<?xml version="1.0" encoding="utf-8"?>
<!-- Generator: Adobe Illustrator 19.1.0, SVG Export Plug-In . SVG Version: 6.00 Build 0)  -->
<svg version="1.1" id="Layer_1" xmlns="http://www.w3.org/2000/svg" xmlns:xlink="http://www.w3.org/1999/xlink" x="0px" y="0px"
	 width="10.3px" height="8px" viewBox="-475 276 10.3 8" style="enable-background:new -475 276 10.3 8;" xml:space="preserve">
<style type="text/css">
	.st0{fill:#FFFFFF;}
</style>
<path class="st0" d="M-464.7,277.6c0-0.2-0.1-0.3-0.2-0.5l-0.9-0.9c-0.1-0.1-0.2-0.2-0.5-0.2c-0.1,0-0.2,0.1-0.3,0.2l-4.5,4.3
	l-1.9-1.9c-0.1-0.1-0.2-0.2-0.5-0.2c-0.1,0-0.2,0.1-0.3,0.2l-0.9,0.9c-0.1,0.1-0.2,0.2-0.2,0.5c0,0.1,0.1,0.3,0.2,0.5l2.4,2.4
	l0.9,0.9c0.1,0.1,0.2,0.2,0.3,0.2s0.3-0.1,0.5-0.2l0.9-0.9l4.8-4.9C-464.8,277.9-464.7,277.7-464.7,277.6z"/>
</svg>
