<?xml version="1.0" encoding="utf-8"?>
<!-- Generator: Adobe Illustrator 21.0.2, SVG Export Plug-In . SVG Version: 6.00 Build 0)  -->
<svg version="1.1" id="Layer_1" xmlns="http://www.w3.org/2000/svg" xmlns:xlink="http://www.w3.org/1999/xlink" x="0px" y="0px"
	 width="45.8px" height="60px" viewBox="0 0 45.8 60" style="enable-background:new 0 0 45.8 60;" xml:space="preserve">
<style type="text/css">
	.st0{fill:#FFFFFF;}
	.st1{fill:#FFCE31;}
	.st2{fill:#C49E33;}
	.st3{fill:#A36F2F;}
	.st4{fill:#E0AD2F;}
	.st5{fill:none;stroke:#000000;stroke-width:8.075215e-02;stroke-miterlimit:10;}
	.st6{fill:#D89F2E;}
	.st7{fill:#C1751B;}
	.st8{fill:#C9992D;}
	.st9{fill:#8C6F26;}
	.st10{fill:#6D4521;}
	.st11{fill:#CD201A;}
	.st12{fill:#FCF43A;}
	.st13{fill:#B71515;}
	.st14{fill:none;stroke:#CD201A;stroke-width:0.1009;stroke-miterlimit:10;}
	.st15{fill:#9B1515;}
</style>
<g>
	<path class="st0" d="M23,54.2c0-3.2,3.7-3.6,3.7-3.6h8.7c0,0,2.9-0.5,2.9-3.9V15.4H23H7.6v31.3c0,3.4,2.9,3.9,2.9,3.9h8.7
		C19.3,50.6,23,51,23,54.2z"/>
	<path d="M23,54.2h-0.2c0-2.7-2.8-3.4-3.6-3.4l0,0h-8.7c0,0-3-0.6-3-4V15.3h30.9v31.4c0,3.4-3,4-3,4l0,0h-8.8
		C26.6,50.8,23,51.2,23,54.2z M19.3,50.6c0.6,0.1,3.1,0.6,3.7,2.8c0.6-2.4,3.7-2.8,3.7-2.8h8.7c0.2,0,2.8-0.6,2.8-3.8V15.5H7.7v31.2
		c0,3.2,2.6,3.8,2.8,3.8H19.3L19.3,50.6z"/>
</g>
<g id="Слой_2_1_">
	<g>
		<path class="st1" d="M25.4,0.1l-0.2,5.8L26.1,6l0.3-4.9l1-0.7c3.3,0.5,3.9,0.9,3.9,0.9l-1,5.4l0.6,0.2l0.9-4.2l1.4-1l3.9,1.6
			c0,0-1.9,4.1-2.2,5.3c0,0-1.1,3.8-1.1,5c0,0,0.2,1.3-10.7,1.3s-10.7-1.3-10.7-1.3c0-1.2-1.1-5-1.1-5C11,7.3,9,3.2,9,3.2l3.8-1.7
			l1.4,1l0.9,4.2l0.6-0.2l-1-5.4c0,0,0.6-0.4,3.9-0.9l1,0.7l0.3,4.9l0.8-0.1L20.5,0C22.9,0,25.4,0.1,25.4,0.1z"/>
		<path d="M23,14.8c-8.7,0-10.4-0.8-10.7-1.2c-0.1-0.1-0.1-0.2-0.1-0.2c0-1.2-1-4.9-1.1-4.9C10.8,7.5,9,3.4,8.9,3.3l0,0l3.8-1.7
			l1.4,1L15,6.8l0.5-0.2l-1-5.4l0,0c0,0,0.6-0.4,3.9-0.9l0,0l1,0.8l0,0L19.7,6l0.7-0.1l0-5.8h0.1c2.4-0.1,5,0,5,0h0.1l-0.2,5.8
			l0.7,0.1l0.2-4.8l1-0.8l0,0c3.3,0.5,3.9,0.9,3.9,0.9l0,0l-1,5.4l0.5,0.2l0.9-4.2l1.4-1l3.9,1.7l0,0c0,0.1-1.9,4.1-2.2,5.3
			c0,0.1-1.1,3.8-1.1,5c0,0,0,0.1-0.1,0.2C33.3,13.9,31.8,14.8,23,14.8z M9.1,3.3c0.2,0.4,1.9,4.1,2.2,5.2c0.1,0.2,1.1,3.8,1.1,5
			c0,0,0,0.1,0.1,0.1c0.3,0.3,2,1.1,10.6,1.1s10.3-0.8,10.6-1.1c0.1-0.1,0.1-0.1,0.1-0.1c0-1.2,1-4.8,1.1-5c0.2-1.1,1.9-4.8,2.2-5.2
			l-4-1.7l-1.4,1l-0.9,4.2l-0.6-0.2l0,0l1-5.4c-0.2-0.1-1-0.4-3.8-0.9l-1,0.7L26.2,6l-0.9-0.1l0.2-5.8c-0.3,0-2.7-0.1-5,0l0.2,5.8
			L19.8,6V5.9L19.4,1l-1-0.7c-2.9,0.5-3.7,0.8-3.8,0.9l1,5.5L15,6.8l-0.9-4.2l-1.3-1L9.1,3.3z"/>
	</g>
	<polygon class="st2" points="12.8,1.6 14.1,7.1 15,6.8 14.2,2.6 	"/>
	<polygon class="st2" points="33.1,1.6 31.8,7.1 30.9,6.8 31.8,2.6 	"/>
	<polygon class="st3" points="18.5,0.4 19.1,6 19.8,6 19.4,1.1 	"/>
	<rect x="13.4" y="1.6" transform="matrix(0.9742 -0.2255 0.2255 0.9742 -0.6333 3.1538)" width="0.1" height="5.6"/>
	<rect x="18.8" y="0.4" transform="matrix(0.9938 -0.111 0.111 0.9938 -0.2335 2.1105)" width="0.1" height="5.6"/>
	<rect x="29.7" y="4.3" transform="matrix(0.2256 -0.9742 0.9742 0.2256 20.9439 34.9554)" width="5.6" height="0.1"/>
	<rect x="24.2" y="3.1" transform="matrix(0.1109 -0.9938 0.9938 0.1109 20.9294 29.6831)" width="5.7" height="0.1"/>
	<polygon points="11.5,5.1 10.6,2.6 10.6,2.6 11.6,5 	"/>
	<rect x="10.1" y="5.2" transform="matrix(0.9127 -0.4087 0.4087 0.9127 -1.2024 4.9003)" width="1.6" height="0.1"/>
	<rect x="10.2" y="5.3" transform="matrix(0.9197 -0.3927 0.3927 0.9197 -1.1407 5.1108)" width="3.5" height="0.1"/>
	<rect x="11.8" y="4.5" transform="matrix(0.9237 -0.3831 0.3831 0.9237 -0.7738 5.2062)" width="1.7" height="0.1"/>
	<rect x="11.4" y="2.3" transform="matrix(0.9387 -0.3448 0.3448 0.9387 -0.5363 4.1773)" width="0.1" height="2.6"/>
	<g>
		<path class="st4" d="M16.3,0.7l0.5,2.7c0,0-0.6,0.2-1.7,0.4l0.1,0.4c0,0,0.8-0.3,3.7-0.8L18.8,3c0,0-1.1,0.2-1.5,0.2l-0.5-2.7
			C16.8,0.6,16.6,0.7,16.3,0.7z"/>
		<path d="M15.2,4.3l-0.1-0.5l0,0c0.9-0.2,1.4-0.4,1.6-0.4l-0.5-2.7l0,0c0.2,0,0.3-0.1,0.4-0.1c0.1,0,0.1,0,0.2,0h0.1l0.6,2.6
			C17.8,3.2,18.9,3,18.9,3H19L19,3.5l0,0C16.1,4,15.3,4.3,15.2,4.3L15.2,4.3z M15.2,3.9l0.1,0.3c0.2-0.1,1.1-0.3,3.6-0.7l-0.1-0.3
			c-0.2,0-1.1,0.2-1.4,0.2h-0.1l-0.5-2.7h-0.1c-0.1,0-0.2,0.1-0.3,0.1l0.5,2.7l0,0C16.8,3.5,16.2,3.6,15.2,3.9z"/>
	</g>
	<g>
		<path class="st4" d="M22.6,0.1v2.7c0,0-1.8,0-2.2,0v0.6c0,0,1.8-0.2,4.9,0V2.8c0,0-1.7-0.1-2.3-0.1V0.1
			C23.1,0.1,22.6,0.1,22.6,0.1z"/>
		<path d="M20.5,3.5V2.8l0,0c0.2,0,1.8,0,2.1,0V0.1h0.6v2.7c0.6,0,2.2,0.1,2.2,0.1l0,0v0.6h-0.1C22.4,3.2,20.6,3.5,20.5,3.5
			L20.5,3.5z M22.8,3.2c0.7,0,1.6,0,2.6,0.1V2.8c-0.2,0-1.7-0.1-2.2-0.1H23V0.1h-0.4v2.7h-0.1c0,0-1.7,0-2.1,0v0.5
			C20.8,3.3,21.5,3.2,22.8,3.2z"/>
	</g>
	<rect x="33.6" y="3.8" transform="matrix(0.3694 -0.9293 0.9293 0.3694 18.3744 34.8133)" width="2.6" height="0.1"/>
	<rect x="35" y="4.5" transform="matrix(0.4143 -0.9102 0.9102 0.4143 15.7093 35.0213)" width="0.1" height="1.6"/>
	<rect x="33.9" y="3.6" transform="matrix(0.3915 -0.9202 0.9202 0.3915 15.7888 34.5024)" width="0.1" height="3.5"/>
	<rect x="33.2" y="3.7" transform="matrix(0.3808 -0.9247 0.9247 0.3808 16.3731 33.5691)" width="0.1" height="1.7"/>
	<polygon points="34,4.8 33.9,4.8 34.9,2.4 34.9,2.4 	"/>
	<g>
		<path class="st4" d="M29.6,0.7l-0.5,2.7c0,0,0.6,0.2,1.7,0.4l-0.1,0.4c0,0-0.8-0.3-3.7-0.8L27.1,3c0,0,1.1,0.2,1.5,0.2l0.5-2.7
			C29.1,0.6,29.3,0.7,29.6,0.7z"/>
		<path d="M30.7,4.3L30.7,4.3c-0.1,0-0.9-0.3-3.7-0.8l0,0L27.1,3h0.1c0,0,1,0.2,1.4,0.2l0.5-2.7h0.1c0,0,0.2,0.1,0.6,0.1l0,0
			l-0.5,2.7c0.2,0,0.7,0.2,1.6,0.4l0,0L30.7,4.3z M27,3.5c2.4,0.4,3.4,0.7,3.6,0.7l0.1-0.3c-1-0.2-1.6-0.4-1.6-0.4l0,0l0.5-2.7
			c-0.2,0-0.3-0.1-0.5-0.1l-0.5,2.7h-0.1c-0.3-0.1-1.2-0.2-1.4-0.2L27,3.5z"/>
	</g>
	<g>
		<path class="st4" d="M22.9,5.7c7,0,11.9,2.5,11.9,2.5l-0.1,0.4c0,0-4.7-2.3-11.8-2.3S11.2,8.6,11.2,8.6l-0.1-0.4
			C11,8.2,15.9,5.7,22.9,5.7z"/>
		<path d="M34.8,8.7L34.8,8.7C34.7,8.6,30,6.3,23,6.3S11.3,8.5,11.3,8.6h-0.1L11,8.1h0.1l0,0C12,7.7,16.6,5.7,23,5.7
			c6.9,0,11.9,2.4,12,2.5l0,0L34.8,8.7z M22.9,6.3c6.7,0,11.3,2.1,11.8,2.3l0.1-0.3C34.4,8,29.5,5.9,22.9,5.9
			c-6.3,0-10.9,2-11.8,2.4l0.1,0.3C11.7,8.3,16.2,6.3,22.9,6.3z"/>
	</g>
	<rect x="14" y="3.8" transform="matrix(0.3373 -0.9414 0.9414 0.3373 5.1229 16.1478)" width="0.1" height="1.3"/>
	<rect x="14.1" y="4.2" transform="matrix(0.2346 -0.9721 0.9721 0.2346 6.1404 17.39)" width="0.1" height="1.2"/>
	<rect x="19.2" y="2.8" transform="matrix(0.5905 -0.807 0.807 0.5905 5.1599 16.8675)" width="0.1" height="1"/>
	<rect x="19.2" y="3.3" transform="matrix(0.5643 -0.8256 0.8256 0.5643 5.2494 17.5579)" width="0.1" height="1"/>
	<rect x="31.3" y="4.4" transform="matrix(0.9396 -0.3424 0.3424 0.9396 0.4022 11.1993)" width="1.3" height="0.1"/>
	<rect x="31.2" y="4.8" transform="matrix(0.9719 -0.2352 0.2352 0.9719 -0.2359 7.6112)" width="1.2" height="0.1"/>
	<rect x="26.1" y="3.3" transform="matrix(0.8067 -0.5909 0.5909 0.8067 3.1564 16.4059)" width="1" height="0.1"/>
	<path class="st5" d="M26.2,4"/>
	<path class="st5" d="M27,3.5"/>
	<g>
		<path class="st6" d="M33.4,13.6c0,0.5-1.8,1-10.6,1c-8.7,0-10.6-0.6-10.6-1s3-1.9,10.7-1.9C30.6,11.7,33.4,13.1,33.4,13.6z"/>
		<path d="M22.8,14.7c-7.2,0-10.6-0.3-10.6-1.1c0-0.6,3.2-2,10.7-2s10.6,1.4,10.6,2c0,0.3-0.6,0.6-2,0.7
			C29.8,14.6,26.8,14.7,22.8,14.7z M23,11.7c-4.2,0-6.8,0.4-8.2,0.8c-1.8,0.4-2.5,0.9-2.5,1.1c0,0.5,1.8,1,10.6,1s10.6-0.6,10.6-1
			c0-0.2-0.6-0.7-2.3-1.1C29.7,12.2,27.1,11.7,23,11.7z"/>
	</g>
	<g>
		<path class="st7" d="M32.2,13.4c0,0.3-1.5,0.8-9.4,0.8c-7.4,0-9.3-0.4-9.3-0.8s2.2-1.2,9.3-1.2C30.3,12.3,32.2,13.1,32.2,13.4z"/>
		<path d="M22.8,14.3c-4.2,0-9.3-0.2-9.3-0.9c0-0.5,2.6-1.2,9.3-1.2c7.4,0,9.4,0.8,9.4,1.2C32.2,13.9,29.1,14.3,22.8,14.3z
			 M22.8,12.3c-6.9,0-9.2,0.8-9.2,1.1c0,0.2,0.6,0.8,9.2,0.8c8.2,0,9.4-0.5,9.4-0.8C32.1,13.1,30.5,12.3,22.8,12.3z"/>
	</g>
	<rect x="12.7" y="7.9" transform="matrix(0.9596 -0.2815 0.2815 0.9596 -1.9696 3.9476)" width="0.1" height="1.8"/>
	<rect x="13" y="7.9" transform="matrix(0.9683 -0.2497 0.2497 0.9683 -1.7597 3.5441)" width="0.1" height="1.7"/>
	<rect x="17.4" y="6.7" transform="matrix(0.9871 -0.1601 0.1601 0.9871 -1.0082 2.8987)" width="0.1" height="1.9"/>
	<path class="st5" d="M18,8.6"/>
	<path class="st5" d="M17.8,6.7"/>
	<rect x="22.6" y="6.3" width="0.1" height="1.4"/>
	<rect x="27.2" y="7.4" transform="matrix(0.1672 -0.9859 0.9859 0.1672 15.986 33.7958)" width="1.5" height="0.1"/>
	<rect x="27.7" y="7.5" transform="matrix(0.1984 -0.9801 0.9801 0.1984 15.4032 33.958)" width="1.5" height="0.1"/>
	<rect x="32" y="8.7" transform="matrix(0.3226 -0.9465 0.9465 0.3226 13.9599 36.9572)" width="1.6" height="0.1"/>
	<path class="st5" d="M32.8,9.5"/>
	<path class="st5" d="M33.3,8"/>
	<g>
		<polygon class="st8" points="12.5,8 13,9.7 13.4,9.6 12.9,7.9 		"/>
		<path d="M13,9.8L12.5,8L13,7.9l0.5,1.8L13,9.8z M12.6,8L13,9.6l0.2-0.1l-0.5-1.7L12.6,8z"/>
	</g>
	<g>
		<polygon class="st4" points="10.6,2.6 11.6,5 10.2,5.6 10.3,6 13.5,4.7 13.4,4.2 11.9,4.8 11,2.4 		"/>
		<path d="M10.2,6.1l-0.2-0.5L11.5,5l-1-2.4L11,2.4l1,2.5l1.5-0.6l0.1,0.5L10.2,6.1z M10.2,5.6L10.3,6l3.2-1.4l-0.1-0.3l-1.5,0.6
			L11,2.4l-0.3,0.2l1,2.4L10.2,5.6z"/>
	</g>
	<g>
		<polygon class="st9" points="13.5,4.7 14.7,5 14.6,4.7 13.4,4.2 		"/>
		<path d="M14.8,5.1l-1.3-0.3l-0.1-0.6l1.3,0.5L14.8,5.1z M13.6,4.7l1,0.3l-0.1-0.2l-1.1-0.4L13.6,4.7z"/>
	</g>
	<g>
		<polygon class="st4" points="35.3,2.6 34.4,5 35.8,5.6 35.7,6 32.4,4.7 32.5,4.2 34,4.8 34.9,2.4 		"/>
		<path d="M35.7,6.1l-3.4-1.4l0.2-0.5L34,4.8l0.9-2.5l0.5,0.2l-1,2.4l1.4,0.6L35.7,6.1z M32.5,4.7L35.7,6l0.1-0.4L34.3,5l1-2.4
			l-0.3-0.2l-0.9,2.5l-1.5-0.6L32.5,4.7z"/>
	</g>
	<g>
		<polygon class="st9" points="32.4,4.7 31.2,5 31.3,4.6 32.5,4.2 		"/>
		<path d="M31.2,5.1l0.1-0.4l1.3-0.5l-0.2,0.6L31.2,5.1z M31.4,4.7l-0.1,0.2l1-0.3l0.1-0.4L31.4,4.7z"/>
	</g>
	<g>
		<polygon class="st10" points="18.8,3.1 18.9,3.5 19.7,4 19.6,3.7 		"/>
		<path d="M19.7,4.2l-0.9-0.6L18.7,3l0.9,0.6L19.7,4.2z M19,3.5L19.7,4V3.7L19,3.2V3.5z"/>
	</g>
	<g>
		<polygon class="st8" points="27.1,3.1 27,3.5 26.3,4 26.3,3.6 		"/>
		<path d="M26.2,4.1V3.6L27.1,3L27,3.6L26.2,4.1z M26.3,3.7V4L27,3.6V3.2L26.3,3.7z"/>
	</g>
	<g>
		<polygon class="st8" points="17.3,6.8 17.6,8.4 17.9,8 17.8,6.7 		"/>
		<path d="M17.6,8.6l-0.3-1.8l0.6-0.1l0.2,1.4L17.6,8.6z M17.4,6.8l0.3,1.6L17.9,8l-0.2-1.4L17.4,6.8z"/>
	</g>
	<g>
		<polygon class="st8" points="22.6,6.3 22.6,7.6 23.1,7.6 23.1,6.3 		"/>
		<path d="M23.2,7.6h-0.6V6.2h0.6V7.6z M22.6,7.5h0.5V6.4h-0.5V7.5z"/>
	</g>
	<g>
		<polygon class="st8" points="28.1,6.7 27.8,8.1 28.3,8.2 28.6,6.8 		"/>
		<path d="M28.4,8.3l-0.6-0.1l0.2-1.5l0.6,0.1L28.4,8.3z M27.9,8.1l0.4,0.1l0.3-1.4l-0.5-0.1L27.9,8.1z"/>
	</g>
	<g>
		<polygon class="st8" points="32.9,9.5 33.5,8.1 33,8 32.5,9.3 		"/>
		<path d="M33,9.5l-0.6-0.2L33,7.9L33.5,8L33,9.5z M32.5,9.3l0.4,0.1l0.5-1.3L33.1,8L32.5,9.3z"/>
	</g>
	<g id="Слой_3">
		<g>
			<path class="st1" d="M11,12.1c0,0-0.4-0.2-0.5-1c0,0,0.8-1,0.7-1.4C11.2,9.7,12.9,11.6,11,12.1z"/>
			<path d="M11,12.1L11,12.1c0,0-0.5-0.2-0.5-1.1l0,0l0,0c0.2-0.2,0.8-1,0.7-1.3V9.6l0.1,0.1c0,0,0.8,0.9,0.7,1.6
				C11.9,11.7,11.6,12,11,12.1L11,12.1z M10.6,11.1c0,0.7,0.4,1,0.4,1c0.5-0.1,0.7-0.3,0.9-0.6c0.2-0.6-0.4-1.4-0.6-1.6
				C11.2,10.2,10.6,10.9,10.6,11.1z"/>
		</g>
		<g>
			<path class="st1" d="M12.9,11c1.2-1,0.6-2.1,0.6-2.1s-0.6,0.6-1.1,0.7c0,0-0.8,0.2-0.8,1"/>
			<path d="M12.9,11L12.9,11c1-1,0.6-1.8,0.6-2.1c-0.2,0.2-0.6,0.6-1.1,0.7c0,0-0.7,0.2-0.8,0.9h-0.1c0.1-0.8,0.9-1,0.9-1
				c0.5-0.1,1.1-0.7,1.1-0.7V8.8v0.1C13.5,8.8,14.2,9.9,12.9,11z"/>
		</g>
		<g>
			<path class="st1" d="M13.2,11c0,0,0.8-0.6,1.4,0c0,0,0.4,0.2,1.4,0.2c0,0-0.4,1.4-1.6,1.4c0,0-0.6,0.2-1.4,0"/>
			<path d="M13.8,12.7c-0.2,0-0.5,0-0.8-0.1v-0.1c0.9,0.2,1.4,0,1.4,0l0,0c1,0,1.4-1,1.6-1.3c-1,0-1.4-0.2-1.4-0.2
				c-0.6-0.6-1.4,0-1.4,0l-0.1-0.1c0,0,0.9-0.6,1.5,0l0,0c0,0,0.4,0.2,1.4,0.2h0.1v0.1c0,0-0.4,1.4-1.7,1.4
				C14.4,12.6,14.2,12.7,13.8,12.7z"/>
		</g>
		<g>
			<path class="st1" d="M13.3,11.7c0,0-0.1,0.6-0.6,1c0,0-0.6,0.4-0.5,0.9c0,0-0.2,0.2-0.6,0c0,0-0.4-0.4-0.3-0.9
				c0,0-0.6-0.3-0.4-0.6c0,0,0.2-0.3,0.9-0.2C11.8,11.9,12.8,11.9,13.3,11.7z"/>
			<path d="M12,13.7c-0.1,0-0.2-0.1-0.3-0.2c0,0-0.4-0.4-0.3-0.9c-0.1-0.1-0.4-0.2-0.4-0.4c0-0.1,0-0.2,0.1-0.2c0,0,0.3-0.3,0.9-0.2
				H12l0,0c0.2,0,1,0,1.3-0.2h0.1v0.1c0,0-0.1,0.6-0.6,1c0,0-0.6,0.4-0.5,0.8l0,0l0,0C12.2,13.5,12.2,13.6,12,13.7L12,13.7z
				 M11.7,11.9c-0.5,0-0.6,0.2-0.6,0.2C11,12.2,11,12.2,11,12.3c0,0.2,0.3,0.3,0.4,0.3l0,0l0,0c-0.1,0.4,0.3,0.8,0.3,0.8
				c0.2,0.1,0.2,0.1,0.3,0.1c0.1,0,0.1-0.1,0.2-0.1c-0.1-0.4,0.5-0.9,0.5-0.9c0.4-0.2,0.5-0.7,0.6-0.9c-0.4,0.2-1.2,0.2-1.4,0.2l0,0
				C11.8,11.9,11.8,11.9,11.7,11.9z"/>
		</g>
		<g>
			<path class="st1" d="M19,9.6c0,0,1.8-1,2.5-1c0,0-0.6-0.6-0.9-0.6L19,9.6z"/>
			<path d="M18.8,9.8L20.6,8l0,0C21,8,21.5,8.6,21.5,8.6l0.1,0.1h-0.1c-0.6-0.1-2.4,1-2.4,1L18.8,9.8z M20.6,8l-1.4,1.4
				c0.5-0.2,1.6-0.8,2.2-0.9C21.2,8.4,20.9,8,20.6,8z"/>
		</g>
		<g>
			<path class="st1" d="M14.4,9.2c0,0,0.2-0.9,1-0.9c0,0,1-0.2,1.4-0.6c0,0,0.3,1.4-1,2.2c0,0-0.2,0.2-0.6,0.6"/>
			<path d="M15.4,10.4L15.4,10.4c0.2-0.3,0.5-0.6,0.5-0.6c1-0.6,1-1.7,1-2c-0.4,0.4-1.3,0.6-1.4,0.6l0,0c-0.7,0-1,0.8-1,0.9h-0.1
				c0,0,0.2-0.9,1-0.9l0,0c0,0,1-0.2,1.3-0.6l0.1-0.1v0.1c0,0,0.2,1.4-1,2.2l0,0C15.8,9.9,15.6,10.2,15.4,10.4z"/>
		</g>
		<g>
			<path class="st1" d="M16.2,10.3c0,0,0.6-0.4,1.8,0.2c0,0,0.6,0.6,1.8,0.6c0,0-0.6,0.9-1.2,1c0,0-2.4,0.4-2.7-0.4"/>
			<path d="M17.4,12.1c-0.6,0-1.4-0.1-1.5-0.6H16c0.3,0.8,2.6,0.4,2.7,0.4c0.5-0.1,1-0.7,1.1-0.9c-1,0-1.7-0.5-1.7-0.6
				c-1.1-0.6-1.8-0.2-1.8-0.2l-0.1-0.1c0,0,0.7-0.4,1.9,0.2l0,0c0,0,0.6,0.6,1.8,0.6H20v0.1c0,0-0.6,0.9-1.2,1
				C18.6,12,18.1,12.1,17.4,12.1z"/>
		</g>
		<g>
			<path class="st1" d="M17.7,8.4c0,0,0.4-0.7,1.5-0.7c0,0,0.8,0.2,1.4-0.3c0,0,0,1.4-0.8,1.8c0,0-1.4,0.8-1.9,1.3"/>
			<path d="M17.9,10.3L17.9,10.3c0.5-0.6,1.8-1.3,1.8-1.3c0.6-0.3,0.7-1.4,0.8-1.7c-0.6,0.4-1.4,0.2-1.4,0.2c-1,0-1.4,0.7-1.4,0.7
				h-0.1c0,0,0.4-0.7,1.5-0.8c0,0,0.8,0.2,1.4-0.3l0.1,0v0.1c0,0.1,0,1.4-0.8,1.8C19.8,9.2,18.5,9.9,17.9,10.3z"/>
		</g>
		<g>
			<path class="st1" d="M19.6,9.9C20.5,9.5,21,9.5,21,9.5C21.6,10,23,9.7,23,9.7c1.8-0.4,2.4-2.2,2.4-2.2c-0.4,0.2-2.7,0-2.7,0
				c-0.8,0-1.4,0.7-1.4,0.7"/>
			<path d="M19.6,9.9L19.6,9.9C20.4,9.5,21,9.5,21,9.5l0,0l0,0c0.6,0.5,2,0.2,2,0.2c1.5-0.4,2.2-1.7,2.3-2c-0.6,0.2-2.6,0-2.6,0l0,0
				c-0.8,0-1.4,0.7-1.4,0.7l-0.1-0.1c0,0,0.6-0.8,1.4-0.8c0.8,0.1,2.4,0.2,2.7,0l0.1-0.1v0.1c0,0-0.6,1.8-2.4,2.2
				c-0.1,0-1.4,0.3-2.1-0.2C20.9,9.6,20.4,9.6,19.6,9.9z"/>
		</g>
		<g>
			<path class="st1" d="M19.8,9.9c0.8-0.3,2,0.1,2,0.1c1.1,0.6,2.1,1,2.1,1s-0.7,1-1.6,1c0,0-2.1,0.2-2.7-0.4"/>
			<path d="M21.5,11.9c-0.6,0-1.6-0.1-2-0.4l0.1-0.1c0.6,0.6,2.7,0.4,2.7,0.4c0.7,0,1.4-0.7,1.6-0.9c-0.2-0.1-1.1-0.4-2.1-0.9
				c0,0-1.1-0.4-1.9-0.1V9.9c0.8-0.3,1.9,0.1,2,0.1c1.1,0.6,2.1,1,2.1,1h0.1V11c0,0-0.7,1-1.7,1C22.2,11.8,21.9,11.9,21.5,11.9z"/>
		</g>
		<g>
			<path class="st1" d="M25,9.1c0,0,1.4-1.4,3.5-0.8c0,0,0.6,0.2,1.4,0.1c0,0-0.1,1.7-2.1,1.9"/>
			<path d="M27.8,10.3L27.8,10.3c1.8-0.3,2-1.6,2.1-1.9c-0.7,0.2-1.4-0.1-1.4-0.1C26.5,7.6,25,9.1,25,9.1L25,9c0,0,1.4-1.4,3.6-0.8
				c0,0,0.6,0.2,1.4,0.1h0.1v0.1C30,8.4,29.8,10.1,27.8,10.3z"/>
		</g>
		<g>
			<path class="st1" d="M27.8,10.3c0,0,2.1-0.4,3,0.6c0,0,0.9,0.8,1.6,1c0,0-0.2,0.8-1.6,0.6c0,0-2.9-0.5-3-1"/>
			<path d="M31.2,12.5c-0.2,0-0.3,0-0.5,0c-0.1,0-3-0.5-3-1.1h0.1c0.1,0.5,2.2,0.9,3,1c1.2,0.2,1.4-0.4,1.5-0.6
				c-0.6-0.2-1.5-0.9-1.5-1c-0.8-1-2.9-0.6-2.9-0.6v-0.1c0.1,0,2.2-0.4,3,0.6c0,0,0.9,0.8,1.5,0.9h0.1v0.1
				C32.4,11.9,32.2,12.5,31.2,12.5z"/>
		</g>
		<g>
			<path class="st1" d="M24.2,9.5c0,0,1.5-0.4,2.6,0.8c0,0,0.9,0.8,1.2,0.7c0,0-0.8,0.9-1.8,0.7c0,0-2.2,0.2-2.6-0.6"/>
			<path d="M25.6,11.9c-0.7,0-1.8-0.1-2.1-0.7h0.1c0.5,0.9,2.6,0.6,2.6,0.6c0.7,0.1,1.4-0.5,1.7-0.6c-0.4-0.1-1.1-0.7-1.1-0.7
				c-1-1.2-2.6-0.8-2.6-0.8V9.5c0,0,1.5-0.4,2.6,0.9c0.2,0.2,0.9,0.8,1.2,0.7h0.1l-0.1,0.1c0,0-0.9,0.9-1.8,0.7
				C26.2,11.9,26,11.9,25.6,11.9z"/>
		</g>
		<g>
			<path class="st1" d="M30.8,10.9c0.7,0.6,1.5-0.2,1.5-0.2l1.6-1.1c-0.4,0-1.7-0.4-1.7-0.4c-0.9-0.4-2.9,0.6-2.9,0.6"/>
			<path d="M31.4,11.1c-0.2,0-0.4-0.1-0.6-0.2l0.1-0.1c0.6,0.5,1.4-0.2,1.4-0.2l0,0c0.1-0.1,0.6-0.4,1.5-1.1
				c-0.5-0.1-1.5-0.4-1.6-0.4c-0.9-0.4-2.9,0.6-2.9,0.6V9.6c0.1,0,2-1,3-0.6c0,0,1.3,0.5,1.7,0.4h0.2l-0.2,0.2
				c-0.6,0.4-1.5,1.1-1.6,1.1C32.2,10.8,31.8,11.1,31.4,11.1z"/>
		</g>
		<g>
			<path class="st1" d="M32.1,11.2c0,0,0.6-0.5,1.8,0.6c0,0,0.3,1,0.6,1c0,0-0.3,0.6-1,0.5c0,0-1.6-0.6-2-0.9c0,0,0.8-0.1,1-0.6
				c0,0-0.4-0.2-0.6-0.2L32.1,11.2z"/>
			<path d="M33.6,13.4c-0.1,0-0.1,0-0.2,0c-0.1,0-1.6-0.6-2-0.9l-0.1-0.1h0.1c0,0,0.7-0.1,0.9-0.6c-0.1,0-0.4-0.2-0.6-0.2h-0.1
				l0.4-0.4c0,0,0.7-0.5,1.8,0.6l0,0c0.1,0.2,0.3,0.9,0.6,1h0.1v0.1C34.5,12.8,34.1,13.4,33.6,13.4z M31.5,12.4
				c0.5,0.3,1.9,0.8,1.9,0.8c0.6,0.1,0.9-0.3,1-0.4c-0.2-0.2-0.5-0.9-0.6-1c-1-1-1.7-0.6-1.7-0.6l-0.3,0.2c0.2,0.1,0.6,0.2,0.6,0.2
				l0,0l0,0C32.2,12.3,31.8,12.4,31.5,12.4z"/>
		</g>
		<g>
			<path class="st1" d="M33.7,9.7c0,0,0.5,0.8,0.8,0.8c0,0,0.3,0.6-0.9,1.2c0,0-0.9-0.6-1.6-0.5L32,11"/>
			<path d="M33.7,11.8L33.7,11.8c0,0-0.9-0.6-1.6-0.5l0,0L32,11h0.1l0.1,0.2c0.6-0.2,1.4,0.4,1.5,0.5c0.6-0.3,0.8-0.6,0.9-0.8
				c0-0.2,0-0.2,0-0.2c-0.4,0-0.8-0.7-0.9-0.8h0.1c0,0,0.4,0.8,0.8,0.7l0,0l0,0c0,0,0.1,0.2,0,0.3C34.5,11.1,34.4,11.4,33.7,11.8
				L33.7,11.8z"/>
		</g>
		<g>
			<path class="st1" d="M10.8,11.1c0.1,0.2-0.1,0.5-0.2,0.5"/>
			<path d="M10.6,11.5L10.6,11.5c0.1-0.1,0.1-0.1,0.2-0.2c0.1-0.1,0.1-0.2,0.1-0.3h0.1c0.1,0.2,0,0.3-0.1,0.4S10.6,11.5,10.6,11.5z"
				/>
		</g>
		<g>
			<path class="st1" d="M11.4,12.7c0.2-0.2,0.8-0.2,1.3-0.4"/>
			<path d="M11.4,12.7L11.4,12.7c0.1-0.2,0.3-0.2,0.6-0.2c0.2,0,0.4-0.1,0.6-0.2v0.1c-0.2,0.1-0.5,0.2-0.6,0.2
				C11.7,12.6,11.5,12.6,11.4,12.7z"/>
		</g>
		<g>
			<path class="st1" d="M12.4,13c0-0.2-0.3-0.2-0.3-0.2s0.3-0.1,0.4,0.1L12.4,13z"/>
			<path d="M12.3,13.1L12.3,13.1c0-0.2-0.2-0.2-0.2-0.2l-0.2-0.1h0.2c0.1,0,0.4-0.1,0.5,0.1l0,0L12.3,13.1z M12.2,12.8
				C12.3,12.8,12.3,12.9,12.2,12.8h0.2C12.4,12.8,12.3,12.8,12.2,12.8z"/>
		</g>
		<g>
			<path class="st1" d="M12.2,13.1C12.2,13,11.8,13,11.8,13s0.4,0.2,0.4,0.4L12.2,13.1z"/>
			<path d="M12.2,13.5L12.2,13.5c-0.1-0.2-0.4-0.4-0.5-0.4L11.7,13h0.2c0.1,0,0.5,0.1,0.6,0.2l0,0L12.2,13.5z M11.9,13.1
				c0.1,0.1,0.2,0.2,0.2,0.2l0.1-0.2C12.2,13.1,12.1,13.1,11.9,13.1z"/>
		</g>
		<g>
			<path class="st1" d="M11.5,11.9c0,0,0.3-0.7,0.8-0.6c0,0,0.6,0.1,0.3,0.6C12.6,11.9,11.8,11.9,11.5,11.9z"/>
			<path d="M12,11.9c-0.2,0-0.4,0-0.5-0.1l0,0l0,0c0,0,0.3-0.8,0.8-0.6c0,0,0.2,0,0.4,0.2c0.1,0.1,0.1,0.2,0,0.4l0,0
				C12.6,11.9,12.3,11.9,12,11.9z M11.6,11.8c0.2,0.1,0.9,0,1,0c0.1-0.2,0.1-0.2,0-0.3c-0.1-0.2-0.3-0.2-0.3-0.2
				C11.9,11.1,11.7,11.7,11.6,11.8z"/>
		</g>
		<g>
			<path class="st1" d="M14.9,11.7c-1-0.2-1.6-0.2-1.8,0.1"/>
			<path d="M13.1,11.8L13.1,11.8c0.2-0.4,0.8-0.3,1.8-0.1v0.1C14,11.5,13.4,11.5,13.1,11.8z"/>
		</g>
		<g>
			<path class="st1" d="M13.5,11.5c0,0,0.6,0.6,1.1,0.6c0,0-0.6-0.2-0.6-0.6C14.1,11.5,13.7,11.5,13.5,11.5z"/>
			<path d="M14.5,12.2c-0.4,0-1-0.6-1-0.6l-0.1-0.1h0.1c0.1,0,0.6,0,0.6,0.1l0,0l0,0C14,11.9,14.5,12.1,14.5,12.2l0.2,0L14.5,12.2
				C14.6,12.2,14.6,12.2,14.5,12.2z M13.6,11.5c0.2,0.2,0.5,0.4,0.8,0.5c-0.2-0.1-0.4-0.2-0.4-0.5C13.9,11.6,13.8,11.5,13.6,11.5z"
				/>
		</g>
		<g>
			<path class="st1" d="M13.2,11.6c0,0,0.3,0.7,0.7,0.6c0,0-0.8-0.2-0.7-0.2C13.2,11.9,13.2,11.7,13.2,11.6z"/>
			<path d="M13.9,12.3c-0.1,0-0.2,0-0.2-0.1c-0.5-0.1-0.5-0.2-0.5-0.2c0-0.1,0-0.3,0-0.4h0.1c0,0,0.2,0.4,0.4,0.6
				C13.8,12.2,13.9,12.3,13.9,12.3h0.3H13.9C13.9,12.3,13.9,12.3,13.9,12.3z M13.3,12c0,0,0.1,0.1,0.2,0.1c-0.1-0.1-0.2-0.2-0.2-0.3
				C13.3,11.9,13.3,12,13.3,12z M13.3,12L13.3,12L13.3,12z"/>
		</g>
		<g>
			<path class="st1" d="M14.4,11.6c0,0,0.3,0.4,0.6,0.3c0,0-0.3-0.2-0.3-0.3H14.4z"/>
			<path d="M15,12c-0.3,0-0.6-0.3-0.6-0.3l-0.1-0.1l0.5,0.1l0,0C14.7,11.8,15,11.9,15,12l0.2,0L15,12C15,12,15,12,15,12z M14.5,11.7
				c0.1,0.1,0.2,0.2,0.4,0.2c-0.1-0.1-0.2-0.2-0.2-0.2H14.5z"/>
		</g>
		<rect x="13.4" y="11.2" transform="matrix(0.7196 -0.6944 0.6944 0.7196 -3.9923 12.5575)" width="0.4" height="0.1"/>
		<rect x="14.2" y="11.2" transform="matrix(0.8447 -0.5352 0.5352 0.8447 -3.7794 9.4026)" width="0.3" height="0.1"/>
		<rect x="14.9" y="11.3" transform="matrix(0.9516 -0.3075 0.3075 0.9516 -2.7594 5.1733)" width="0.3" height="0.1"/>
		<rect x="15.1" y="11.5" transform="matrix(0.989 -0.1477 0.1477 0.989 -1.5434 2.3892)" width="0.4" height="0.1"/>
		<g>
			<path class="st1" d="M12.1,11c0-0.8,0.6-0.4,1.3-1.5"/>
			<path d="M12.2,11L12.2,11c-0.1-0.5,0.1-0.6,0.3-0.6c0.2-0.2,0.6-0.3,0.8-0.8h0.1c-0.3,0.6-0.6,0.7-0.9,0.9
				C12.3,10.5,12.2,10.6,12.2,11z"/>
		</g>
		<g>
			<path class="st1" d="M12.1,10.8c0,0,0.3-0.2,0.6-0.2c0,0-0.3-0.2-0.5-0.1L12.1,10.8z"/>
			<path d="M12,10.9l0.1-0.3l0,0c0.2-0.1,0.5,0.1,0.6,0.1l0.2,0.1h-0.2C12.4,10.7,12.1,10.9,12,10.9L12,10.9z M12.2,10.7L12.2,10.7
				c0.1,0.1,0.2,0,0.3,0C12.4,10.7,12.2,10.7,12.2,10.7z"/>
		</g>
		<g>
			<path class="st1" d="M12.5,10.3c0,0,0.4-0.1,0.6-0.1c0,0,0-0.1-0.3-0.2L12.5,10.3z"/>
			<path d="M12.3,10.4l0.6-0.3l0,0c0.3,0,0.3,0.2,0.3,0.2v0.1h-0.1c-0.2,0-0.6,0.1-0.6,0.1H12.3z M12.9,10.1l-0.2,0.1
				c0.1,0,0.2-0.1,0.3-0.1C13,10.2,13,10.2,12.9,10.1z"/>
		</g>
		<rect x="12.2" y="10" transform="matrix(0.4917 -0.8707 0.8707 0.4917 -2.4664 15.8074)" width="0.2" height="0.1"/>
		<rect x="12.8" y="9.7" transform="matrix(0.4103 -0.912 0.912 0.4103 -1.2343 17.5001)" width="0.2" height="0.1"/>
		<g>
			<path class="st1" d="M14.4,10.3c0.6-1,1.4-0.6,2.2-2.1"/>
			<path d="M14.4,10.3L14.4,10.3c0.2-0.5,0.6-0.6,0.9-0.9c0.4-0.2,0.9-0.4,1.3-1.3h0.1c-0.4,0.9-0.9,1-1.3,1.3
				C15,9.8,14.7,9.9,14.4,10.3z"/>
		</g>
		<g>
			<path class="st1" d="M14.7,9.9c0,0,0.4-0.1,0.6,0.1c0,0-0.6,0.2-0.9,0.3L14.7,9.9z"/>
			<path d="M14.2,10.4l0.5-0.6l0,0c0,0,0.4-0.1,0.6,0.1l0.1,0.1h-0.1c0,0-0.6,0.2-0.9,0.3L14.2,10.4z M14.7,9.9l-0.2,0.2
				c0.2-0.1,0.5-0.2,0.6-0.2C15,9.9,14.8,9.9,14.7,9.9z"/>
		</g>
		<g>
			<path class="st1" d="M15.3,9.5c0,0,0.6-0.1,0.6,0c0,0-0.3-0.2-0.3-0.2L15.3,9.5z"/>
			<path d="M16.2,9.7L16,9.5c-0.1,0-0.5,0-0.6,0h-0.2l0.6-0.2c0,0,0.1,0,0.4,0.2L16.2,9.7z M15.7,9.4l-0.2,0.1c0.1,0,0.2,0,0.3,0
				C15.8,9.5,15.7,9.4,15.7,9.4z M15.7,9.4L15.7,9.4L15.7,9.4z"/>
		</g>
		<rect x="15.1" y="8.8" transform="matrix(0.3424 -0.9396 0.9396 0.3424 1.7486 20.2584)" width="0.5" height="0.1"/>
		<rect x="15.8" y="8.6" transform="matrix(0.4856 -0.8742 0.8742 0.4856 0.6412 18.4072)" width="0.4" height="0.1"/>
		<rect x="16.2" y="9" transform="matrix(0.97 -0.243 0.243 0.97 -1.7058 4.2285)" width="0.2" height="0.1"/>
		<g>
			<path class="st1" d="M13.8,10.3c0,0,0.8-0.3,1-0.9c0,0-0.1,0.2-0.6,0.1c0,0-0.3-0.2-0.5,0C13.7,9.5,13.5,10.2,13.8,10.3z"/>
			<path d="M13.8,10.3L13.8,10.3c-0.2-0.1-0.2-0.2-0.2-0.3c-0.1-0.2,0-0.6,0-0.6c0.2-0.2,0.5,0,0.6,0c0.5,0.2,0.6-0.1,0.6-0.1h0.1
				C14.6,10,13.9,10.3,13.8,10.3L13.8,10.3z M13.7,9.5c0,0.1-0.1,0.6,0.2,0.7c0.1,0,0.6-0.2,0.8-0.7c-0.2,0.1-0.3,0.1-0.6,0
				C14.2,9.5,13.8,9.4,13.7,9.5z"/>
		</g>
		<g>
			<path class="st1" d="M16.7,10.1c0.6-1.2,2.8-1,3.6-2.3"/>
			<path d="M16.8,10.1L16.8,10.1c0.2-0.6,1-0.9,1.7-1.2c0.7-0.2,1.4-0.6,1.8-1.2l0.1,0.1c-0.4,0.6-1.2,1-1.9,1.2
				C17.8,9.3,17.1,9.5,16.8,10.1z"/>
		</g>
		<rect x="17.8" y="8.5" transform="matrix(0.4665 -0.8845 0.8845 0.4665 2.1544 20.5721)" width="0.6" height="0.1"/>
		<rect x="18.8" y="8.2" transform="matrix(0.4198 -0.9076 0.9076 0.4198 3.564 22.0107)" width="0.5" height="0.1"/>
		<rect x="19.4" y="8" transform="matrix(0.3911 -0.9203 0.9203 0.3911 4.5456 22.9692)" width="0.4" height="0.1"/>
		<g>
			<path class="st1" d="M17.3,9.5c0,0,0.1,0.2,0.8,0.2c0,0-0.6,0.2-1,0.1L17.3,9.5z"/>
			<path d="M17.4,9.8c-0.1,0-0.2,0-0.3,0H17l0.4-0.3v0.1c0,0,0.1,0.2,0.7,0.1v0.1C18.1,9.6,17.7,9.8,17.4,9.8z M17.1,9.7
				c0.2,0,0.3,0,0.4,0c-0.2,0-0.2-0.1-0.2-0.2L17.1,9.7z"/>
		</g>
		<g>
			<path class="st1" d="M17.8,9.2c0,0,0.5,0.2,0.9,0.1c0,0-0.6-0.2-0.4-0.2L17.8,9.2z"/>
			<path d="M18.4,9.4c-0.3,0-0.6-0.1-0.6-0.1h-0.1l0.6-0.2l0,0v0.1l0,0l0,0c0,0.1,0.2,0.2,0.4,0.2l0.2,0.1h-0.2
				C18.6,9.4,18.5,9.4,18.4,9.4z M17.9,9.2c0.2,0,0.4,0.1,0.6,0.1c-0.2-0.1-0.2-0.2-0.3-0.2L17.9,9.2z"/>
		</g>
		<g>
			<path class="st1" d="M18.8,8.8c0,0,0.4,0.1,0.6,0c0,0-0.2-0.1-0.2-0.2L18.8,8.8z"/>
			<path d="M19.2,8.9c-0.2,0-0.4,0-0.4,0h-0.2l0.6-0.2v0.1c0,0.1,0.2,0.2,0.2,0.2h0.2h-0.2C19.4,8.9,19.3,8.9,19.2,8.9z M19,8.8
				c0.1,0,0.2,0,0.3,0l-0.1-0.1L19,8.8z"/>
		</g>
		<g>
			<circle class="st1" cx="34.1" cy="11.8" r="0.4"/>
			<path d="M34.1,12.3c-0.2,0-0.5-0.2-0.5-0.5s0.2-0.5,0.5-0.5c0.3,0,0.5,0.2,0.5,0.5S34.4,12.3,34.1,12.3z M34.1,11.4
				c-0.2,0-0.4,0.2-0.4,0.4s0.2,0.4,0.4,0.4c0.2,0,0.4-0.2,0.4-0.4C34.5,11.6,34.4,11.4,34.1,11.4z"/>
		</g>
		<g>
			<path class="st1" d="M19.8,8.4c0,0,0.2,0,0.3-0.1c0,0,0,0-0.2-0.1L19.8,8.4z"/>
			<path d="M19.8,8.4l0.3-0.2l0,0c0.2,0.1,0.2,0.2,0.2,0.2l0,0l0,0c-0.1,0.1-0.3,0.1-0.3,0.1H19.8z M20,8.2L20,8.2
				C20,8.3,20.1,8.3,20,8.2C20.1,8.3,20.1,8.2,20,8.2z"/>
		</g>
		<g>
			<path class="st1" d="M21,9.5c1-1.2,2.8-0.4,4.2-1.8"/>
			<path d="M21,9.5L21,9.5c0.4-0.6,1.1-0.8,1.8-0.9c0.8-0.2,1.6-0.2,2.3-1l0.1,0.1c-0.7,0.7-1.6,0.9-2.3,1C22.2,8.8,21.4,8.9,21,9.5
				z"/>
		</g>
		<rect x="21.6" y="8.2" transform="matrix(0.4394 -0.8983 0.8983 0.4394 4.8807 24.2849)" width="0.6" height="0.1"/>
		<rect x="22.5" y="7.9" transform="matrix(0.5091 -0.8607 0.8607 0.5091 4.2683 23.4497)" width="0.5" height="0.1"/>
		<rect x="23.2" y="8" transform="matrix(0.5966 -0.8026 0.8026 0.5966 3.0374 22.0764)" width="0.6" height="0.1"/>
		<rect x="24" y="8" transform="matrix(0.4856 -0.8742 0.8742 0.4856 5.4206 25.2566)" width="0.3" height="0.1"/>
		<g>
			<path class="st1" d="M21.1,9.3c0,0,0.9,0.1,1,0.2c0,0,0.1-0.2-0.6-0.2c0,0-0.2-0.2-0.1-0.3L21.1,9.3z"/>
			<path d="M22.1,9.7L22.1,9.7c-0.1-0.2-0.6-0.3-1-0.3H21l0.4-0.3c0,0,0,0,0.1,0l0.3-0.2l-0.3,0.2l0,0c0,0.1,0.1,0.2,0.1,0.2
				c0.3,0.1,0.5,0.1,0.6,0.2C22.2,9.6,22.2,9.6,22.1,9.7L22.1,9.7z M21.2,9.3c0.1,0,0.2,0,0.3,0.1c0,0-0.1-0.1-0.1-0.2L21.2,9.3z"/>
		</g>
		<g>
			<path class="st1" d="M22,8.8c0,0,0.8,0.2,1.1,0.3c0,0-0.6-0.3-0.6-0.4L22,8.8z"/>
			<path d="M23,9.2C23,9.2,23,9.2,23,9.2c-0.3-0.2-1-0.3-1-0.3h-0.2l0.8-0.2v0.1C22.6,8.9,22.9,9.1,23,9.2C23,9.1,23,9.2,23,9.2
				L23,9.2z M22.2,8.8c0.2,0,0.3,0.1,0.5,0.2c-0.1-0.1-0.2-0.2-0.2-0.2L22.2,8.8z"/>
		</g>
		<g>
			<path class="st1" d="M23,8.7c0,0,0.6,0,0.9,0.2c0,0-0.5-0.2-0.3-0.2L23,8.7z"/>
			<path d="M23.9,8.8C23.7,8.8,23,8.7,23,8.7V8.6l0.6-0.1v0.1l0,0C23.6,8.6,23.8,8.7,23.9,8.8L23.9,8.8z M23.4,8.7
				c0.1,0,0.2,0,0.2,0l-0.1-0.1L23.4,8.7z"/>
		</g>
		<g>
			<path class="st1" d="M24.3,8.3h0.5c0,0-0.1-0.2-0.2-0.2L24.3,8.3z"/>
			<path d="M24.8,8.4c0,0-0.2,0-0.5,0h-0.2l0.5-0.2l0,0C24.8,8.1,24.8,8.3,24.8,8.4C24.8,8.3,24.8,8.3,24.8,8.4L24.8,8.4L24.8,8.4
				L24.8,8.4z M24.5,8.3c0.1,0,0.2,0,0.2,0c0-0.1-0.1-0.1-0.1-0.1L24.5,8.3z"/>
		</g>
		<g>
			<path class="st1" d="M26.1,9.3c0.7-0.4,2.6,0.2,3.5-0.6"/>
			<path d="M26.1,9.4L26.1,9.4c0.2-0.2,0.8-0.2,1.3-0.2c0.8,0,1.7,0.1,2.2-0.5l0.1,0.1c-0.5,0.6-1.4,0.5-2.2,0.5
				C26.9,9.2,26.4,9.2,26.1,9.4z"/>
		</g>
		<rect x="26.2" y="8.7" transform="matrix(0.6983 -0.7158 0.7158 0.6983 1.7489 21.6053)" width="0.6" height="0.1"/>
		<rect x="27" y="8.6" transform="matrix(0.7129 -0.7013 0.7013 0.7129 1.8 21.7026)" width="0.9" height="0.1"/>
		<rect x="27.9" y="8.7" transform="matrix(0.7347 -0.6784 0.6784 0.7347 1.5667 21.4445)" width="0.6" height="0.1"/>
		<g>
			<path class="st1" d="M26.2,9.3c0,0,0.6,0.5,1,0.6c0,0-0.7-0.6-0.6-0.7L26.2,9.3z"/>
			<path d="M27.3,10l-0.2-0.1c-0.3-0.1-1-0.6-1-0.6l-0.1-0.1l0.6-0.2l-0.1,0.1c0,0.2,0.4,0.5,0.6,0.6L27.3,10z M26.2,9.4
				c0.1,0.1,0.4,0.3,0.6,0.4c-0.2-0.2-0.4-0.4-0.4-0.5L26.2,9.4z"/>
		</g>
		<g>
			<path class="st1" d="M27.2,9.2c0,0,0.3,0.5,1.1,0.4c0,0-0.6-0.2-0.6-0.4H27.2z"/>
			<path d="M28.2,9.7c-0.6,0-1-0.4-1-0.5L27,9.2h0.6v0.1C27.7,9.3,28,9.5,28.2,9.7h0.2H28.2C28.2,9.7,28.2,9.7,28.2,9.7z M27.3,9.2
				c0.1,0.1,0.4,0.3,0.8,0.3c-0.2-0.1-0.4-0.2-0.4-0.3H27.3z"/>
		</g>
		<g>
			<path class="st1" d="M28.6,9.2c0,0,0.5,0,0.6,0.1L29,9.1L28.6,9.2z"/>
			<path d="M29.3,9.4l-0.2-0.1c-0.1,0-0.4-0.1-0.6-0.1h-0.3L29,9.1L29.3,9.4z M28.9,9.2c0.1,0,0.2,0,0.2,0L29,9.1L28.9,9.2z"/>
		</g>
		<g>
			<path class="st1" d="M30,10.3c0.8-0.5,2.6-0.1,3.8-0.8"/>
			<path d="M30,10.4L30,10.4c0.3-0.3,1-0.3,1.6-0.4c0.7-0.1,1.6-0.1,2.2-0.5v0.1c-0.6,0.4-1.5,0.4-2.2,0.5
				C31,10.2,30.4,10.2,30,10.4z"/>
		</g>
		<rect x="30.9" y="9.5" transform="matrix(0.8804 -0.4742 0.4742 0.8804 -0.7892 15.911)" width="0.6" height="0.1"/>
		<rect x="31.2" y="9.5" transform="matrix(0.3848 -0.923 0.923 0.3848 10.5186 34.856)" width="0.4" height="0.1"/>
		<rect x="31.6" y="9.5" transform="matrix(0.8447 -0.5352 0.5352 0.8447 -0.1819 18.5223)" width="0.5" height="0.1"/>
		<rect x="31.7" y="9.6" transform="matrix(0.3807 -0.9247 0.9247 0.3807 10.8877 35.4523)" width="0.4" height="0.1"/>
		<rect x="32.4" y="9.6" transform="matrix(0.9588 -0.284 0.284 0.9588 -1.4015 9.6408)" width="0.3" height="0.1"/>
		<g>
			<path class="st1" d="M33.6,12c0,0,0.4,0.2,0.6,0.5l-0.2-0.4L33.6,12z"/>
			<path d="M34.1,12.6c-0.2-0.2-0.6-0.5-0.6-0.5V12l0.4,0.2L34.1,12.6L34.1,12.6z M33.8,12.2c0.1,0,0.1,0.1,0.2,0.2L33.8,12.2
				L33.8,12.2z"/>
		</g>
		<g>
			<path class="st1" d="M32.9,11.7c0,0,0.4,0,0.4,0.2c0,0-0.2-0.2-0.3-0.3L32.9,11.7z"/>
			<path d="M33.6,12.2l-0.2-0.3l0,0c-0.1-0.1-0.2-0.1-0.3-0.1h-0.1l0.1-0.2l0,0c0.2,0.1,0.3,0.2,0.3,0.2c0,0,0,0,0,0.1L33.6,12.2z
				 M33,11.6c0.1,0,0.1,0,0.2,0C33.2,11.6,33.1,11.6,33,11.6L33,11.6z"/>
		</g>
		<g>
			<path class="st1" d="M28.2,11.4c0,0,0.1,0.2,0,0.3c0,0,0.4,0.2,0.5,0.2C28.6,11.9,28.5,11.5,28.2,11.4z"/>
			<path d="M28.6,11.9L28.6,11.9l-0.6-0.2h0.1c0,0,0-0.1,0-0.2v-0.1h0.1C28.5,11.5,28.7,11.9,28.6,11.9L28.6,11.9L28.6,11.9z
				 M28.2,11.7l0.3,0.1c-0.1-0.1-0.2-0.2-0.3-0.3C28.3,11.5,28.3,11.6,28.2,11.7z"/>
		</g>
		<rect x="29.3" y="10.7" transform="matrix(0.991 -0.1341 0.1341 0.991 -1.1689 4.0548)" width="0.5" height="0.1"/>
		<rect x="29.6" y="10.7" transform="matrix(0.9881 -0.1537 0.1537 0.9881 -1.303 4.713)" width="0.5" height="0.1"/>
		<rect x="30.2" y="11.1" transform="matrix(0.9179 -0.3967 0.3967 0.9179 -1.9136 12.9692)" width="0.3" height="0.1"/>
		<rect x="30.5" y="11.2" transform="matrix(0.8571 -0.5151 0.5151 0.8571 -1.4216 17.3952)" width="0.2" height="0.1"/>
		<g>
			<path class="st1" d="M23.6,10c1.4-0.3,1.8,1.4,3.9,1.1"/>
			<path d="M27.1,11.2c-0.9,0-1.4-0.4-1.9-0.7c-0.5-0.3-1-0.6-1.6-0.5V9.9c0.6-0.2,1.1,0.2,1.6,0.5c0.6,0.4,1.2,0.8,2.3,0.6v0.1
				C27.4,11.2,27.3,11.2,27.1,11.2z"/>
		</g>
		<rect x="24.8" y="9.9" transform="matrix(0.9975 -7.000654e-02 7.000654e-02 0.9975 -0.6319 1.7852)" width="0.7" height="0.1"/>
		<rect x="25.5" y="10.2" transform="matrix(0.9953 -9.719056e-02 9.719056e-02 0.9953 -0.8717 2.5634)" width="0.7" height="0.1"/>
		<rect x="26.2" y="10.7" transform="matrix(0.9451 -0.3267 0.3267 0.9451 -2.0433 9.2466)" width="0.6" height="0.1"/>
		<rect x="24.1" y="9.9" transform="matrix(0.8611 -0.5085 0.5085 0.8611 -2.0437 13.7742)" width="0.1" height="1.5"/>
		<rect x="25" y="10.1" transform="matrix(0.8614 -0.508 0.508 0.8614 -2.1309 14.2708)" width="0.1" height="1.8"/>
		<rect x="25.7" y="10.7" transform="matrix(0.8267 -0.5626 0.5626 0.8267 -1.7942 16.4386)" width="0.1" height="0.9"/>
		<rect x="26.5" y="11" transform="matrix(0.8096 -0.587 0.587 0.8096 -1.5725 17.7143)" width="0.1" height="0.5"/>
		<g>
			<path class="st1" d="M19.9,10.3c1-0.1,1.4,1,3.4,0.6"/>
			<path d="M22.6,11.1c-0.7,0-1.2-0.2-1.6-0.4c-0.3-0.2-0.6-0.3-1-0.2v-0.1c0.5-0.1,0.7,0.1,1.1,0.2c0.5,0.2,1,0.6,2.2,0.3V11
				C23,11.1,22.7,11.1,22.6,11.1z"/>
		</g>
		<rect x="21.7" y="10.6" transform="matrix(0.6924 -0.7215 0.7215 0.6924 -1.4357 19.1721)" width="0.1" height="1.4"/>
		<rect x="20.7" y="10.1" transform="matrix(0.7605 -0.6494 0.6494 0.7605 -2.1562 16.0953)" width="0.1" height="1.8"/>
		<g>
			<path class="st1" d="M19,10.3c0.9,0,0.7,0.9,1.6,1.4"/>
			<path d="M20.6,11.8c-0.4-0.2-0.6-0.6-0.8-0.9c-0.2-0.3-0.3-0.6-0.8-0.6v-0.1c0.5,0,0.7,0.3,0.9,0.6
				C20.1,11.1,20.2,11.5,20.6,11.8L20.6,11.8z"/>
		</g>
		<rect x="20.6" y="10" transform="matrix(0.951 -0.3092 0.3092 0.951 -2.0894 6.9469)" width="0.5" height="0.1"/>
		<rect x="21.6" y="10.3" transform="matrix(0.9375 -0.3481 0.3481 0.9375 -2.2186 8.243)" width="0.5" height="0.1"/>
		<rect x="22.4" y="10.7" transform="matrix(0.97 -0.243 0.243 0.97 -1.9264 5.8009)" width="0.3" height="0.1"/>
		<rect x="22.3" y="11" transform="matrix(0.537 -0.8436 0.8436 0.537 0.9099 24.0746)" width="0.1" height="0.4"/>
		<g>
			<path class="st1" d="M15.9,11.2c1-1,1.3,0.2,3.2,0.1"/>
			<path d="M18.8,11.4c-0.7,0-1.1-0.2-1.5-0.3c-0.5-0.2-0.8-0.3-1.4,0.2l-0.1-0.1c0.6-0.6,1-0.4,1.4-0.2c0.4,0.2,1,0.4,1.8,0.3v0.1
				C19,11.3,19,11.4,18.8,11.4z"/>
		</g>
		<rect x="17.7" y="10.9" transform="matrix(0.7342 -0.6789 0.6789 0.7342 -3.1031 15.0755)" width="0.1" height="1.3"/>
		<rect x="17" y="10.6" transform="matrix(0.742 -0.6704 0.6704 0.742 -3.208 14.3489)" width="0.1" height="1.5"/>
		<rect x="16.6" y="10.9" transform="matrix(0.7368 -0.6761 0.6761 0.7368 -3.4601 14.2843)" width="0.1" height="1.4"/>
		<polygon points="18.6,11.6 18,11.2 18.1,11.2 18.6,11.5 		"/>
		<polygon points="17,10.6 17,10.5 17.2,10.4 17.3,10.4 		"/>
		<rect x="17.7" y="10.7" transform="matrix(0.9404 -0.34 0.34 0.9404 -2.598 6.7235)" width="0.4" height="0.1"/>
		<rect x="18.4" y="11" transform="matrix(0.912 -0.4103 0.4103 0.912 -2.8907 8.569)" width="0.2" height="0.1"/>
		<g>
			<circle class="st1" cx="11.4" cy="10.6" r="0.4"/>
			<path d="M11.4,11c-0.2,0-0.5-0.2-0.5-0.5c0-0.2,0.2-0.5,0.5-0.5c0.2,0,0.5,0.2,0.5,0.5C11.9,10.8,11.7,11,11.4,11z M11.4,10.2
				c-0.2,0-0.4,0.2-0.4,0.4c0,0.2,0.2,0.4,0.4,0.4c0.2,0,0.4-0.2,0.4-0.4C11.8,10.3,11.7,10.2,11.4,10.2z"/>
		</g>
		<g>
			<circle class="st1" cx="14" cy="9.7" r="0.5"/>
			<path d="M14,10.2c-0.3,0-0.6-0.2-0.6-0.6c0-0.3,0.2-0.6,0.6-0.6s0.6,0.2,0.6,0.6C14.5,9.9,14.2,10.2,14,10.2z M14,9.2
				c-0.2,0-0.5,0.2-0.5,0.5c0,0.2,0.2,0.5,0.5,0.5c0.2,0,0.5-0.2,0.5-0.5C14.4,9.5,14.2,9.2,14,9.2z"/>
		</g>
		<g>
			<circle class="st1" cx="15.3" cy="10.7" r="0.4"/>
			<path d="M15.3,11.2c-0.2,0-0.5-0.2-0.5-0.5c0-0.2,0.2-0.5,0.5-0.5s0.5,0.2,0.5,0.5C15.8,11,15.5,11.2,15.3,11.2z M15.3,10.3
				c-0.2,0-0.4,0.2-0.4,0.4c0,0.2,0.2,0.4,0.4,0.4c0.2,0,0.4-0.2,0.4-0.4S15.5,10.3,15.3,10.3z"/>
		</g>
		<g>
			<circle class="st1" cx="17.2" cy="8.7" r="0.5"/>
			<path d="M17.2,9.2c-0.2,0-0.5-0.2-0.5-0.5s0.2-0.5,0.5-0.5c0.2,0,0.5,0.2,0.5,0.5S17.4,9.2,17.2,9.2z M17.2,8.3
				c-0.2,0-0.4,0.2-0.4,0.4s0.2,0.4,0.4,0.4c0.2,0,0.4-0.2,0.4-0.4C17.6,8.5,17.4,8.3,17.2,8.3z"/>
		</g>
		<g>
			<circle class="st1" cx="18.5" cy="10.3" r="0.5"/>
			<path d="M18.5,10.7c-0.2,0-0.5-0.2-0.5-0.5s0.2-0.5,0.5-0.5c0.2,0,0.5,0.2,0.5,0.5C19,10.5,18.7,10.7,18.5,10.7z M18.5,9.8
				c-0.2,0-0.4,0.2-0.4,0.4c0,0.2,0.2,0.4,0.4,0.4s0.4-0.2,0.4-0.4C18.9,10,18.7,9.8,18.5,9.8z"/>
		</g>
		<g>
			<circle class="st1" cx="12.2" cy="11.7" r="0.4"/>
			<path d="M12.2,12.2c-0.2,0-0.5-0.2-0.5-0.5c0-0.2,0.2-0.5,0.5-0.5c0.2,0,0.5,0.2,0.5,0.5C12.7,11.9,12.5,12.2,12.2,12.2z
				 M12.2,11.3c-0.2,0-0.4,0.2-0.4,0.4c0,0.2,0.2,0.4,0.4,0.4c0.2,0,0.4-0.2,0.4-0.4C12.6,11.5,12.5,11.3,12.2,11.3z"/>
		</g>
		<g>
			<circle class="st1" cx="21" cy="8.3" r="0.5"/>
			<path d="M21,8.8c-0.2,0-0.5-0.2-0.5-0.5s0.2-0.5,0.5-0.5c0.2,0,0.5,0.2,0.5,0.5S21.2,8.8,21,8.8z M21,7.9c-0.2,0-0.4,0.2-0.4,0.4
				s0.2,0.4,0.4,0.4s0.4-0.2,0.4-0.4S21.2,7.9,21,7.9z"/>
		</g>
		<g>
			<circle class="st1" cx="22.8" cy="9.9" r="0.5"/>
			<path d="M22.8,10.5c-0.2,0-0.5-0.2-0.5-0.5c0-0.2,0.2-0.5,0.5-0.5c0.2,0,0.5,0.2,0.5,0.5C23.3,10.3,23,10.5,22.8,10.5z M22.8,9.5
				c-0.2,0-0.4,0.2-0.4,0.4c0,0.2,0.2,0.4,0.4,0.4c0.2,0,0.4-0.2,0.4-0.4C23.2,9.8,23,9.5,22.8,9.5z"/>
		</g>
		<g>
			<circle class="st1" cx="25.5" cy="8.4" r="0.5"/>
			<path d="M25.5,8.9c-0.2,0-0.5-0.2-0.5-0.5C25,8.2,25.3,8,25.5,8S26,8.2,26,8.4C26,8.7,25.8,8.9,25.5,8.9z M25.5,8
				c-0.2,0-0.4,0.2-0.4,0.4c0,0.2,0.2,0.4,0.4,0.4s0.4-0.2,0.4-0.4C25.9,8.2,25.7,8,25.5,8z"/>
		</g>
		<g>
			<circle class="st1" cx="27.4" cy="10.3" r="0.5"/>
			<path d="M27.4,10.8c-0.2,0-0.5-0.2-0.5-0.5c0-0.2,0.2-0.5,0.5-0.5s0.5,0.2,0.5,0.5C27.8,10.6,27.7,10.8,27.4,10.8z M27.4,9.9
				c-0.2,0-0.4,0.2-0.4,0.4s0.2,0.4,0.4,0.4s0.4-0.2,0.4-0.4C27.8,10.1,27.6,9.9,27.4,9.9z"/>
		</g>
		<g>
			<circle class="st1" cx="30.2" cy="9.2" r="0.4"/>
			<path d="M30.2,9.7c-0.2,0-0.5-0.2-0.5-0.5c0-0.2,0.2-0.5,0.5-0.5s0.5,0.2,0.5,0.5C30.6,9.5,30.4,9.7,30.2,9.7z M30.2,8.9
				c-0.2,0-0.4,0.2-0.4,0.4c0,0.2,0.2,0.4,0.4,0.4s0.4-0.2,0.4-0.4C30.6,9.1,30.4,8.9,30.2,8.9z"/>
		</g>
		<g>
			<circle class="st1" cx="31.7" cy="11.1" r="0.4"/>
			<path d="M31.7,11.5c-0.2,0-0.5-0.2-0.5-0.5s0.2-0.5,0.5-0.5s0.5,0.2,0.5,0.5C32.1,11.4,31.9,11.5,31.7,11.5z M31.7,10.7
				c-0.2,0-0.4,0.2-0.4,0.4c0,0.2,0.2,0.4,0.4,0.4s0.4-0.2,0.4-0.4C32.1,10.9,31.8,10.7,31.7,10.7z"/>
		</g>
		<g>
			<path class="st1" d="M11.4,10.8c0.2,0.1,0.3,0,0.4-0.2"/>
			<path d="M11.4,10.9L11.4,10.9L11.4,10.9c0,0,0.2-0.1,0.2-0.2l0.1,0.1C11.7,10.8,11.5,10.9,11.4,10.9z"/>
		</g>
		<g>
			<path class="st1" d="M12.1,11.9c0.2,0.1,0.3,0,0.4-0.2"/>
			<path d="M12.2,12L12.2,12L12.2,12c0,0,0.2-0.1,0.2-0.2l0.1,0.1C12.5,11.9,12.3,12,12.2,12z"/>
		</g>
		<g>
			<path class="st1" d="M13.9,9.9c0.2,0.1,0.3,0,0.4-0.2"/>
			<path d="M14,10L14,10L14,10c0,0,0.2-0.1,0.2-0.2l0.1,0.1C14.2,9.9,14.1,10,14,10z"/>
		</g>
		<g>
			<path class="st1" d="M15.1,11.1c0.2,0.1,0.3,0,0.4-0.2"/>
			<path d="M15.3,11.1L15.3,11.1L15.3,11.1c0,0,0.2-0.1,0.2-0.2l0.1,0.1C15.5,11,15.4,11.1,15.3,11.1z"/>
		</g>
		<g>
			<path class="st1" d="M17.1,9c0.2,0.1,0.3,0,0.4-0.2"/>
			<path d="M17.2,9.1L17.2,9.1L17.2,9.1c0,0,0.2-0.1,0.2-0.2l0.1,0.1C17.4,9,17.3,9.1,17.2,9.1z"/>
		</g>
		<g>
			<path class="st1" d="M18.4,10.5c0.2,0.1,0.3,0,0.4-0.2"/>
			<path d="M18.5,10.6L18.5,10.6L18.5,10.6c0,0,0.2-0.1,0.2-0.2l0.1,0.1C18.7,10.5,18.6,10.6,18.5,10.6z"/>
		</g>
		<g>
			<path class="st1" d="M25.4,8.8c0.2,0.1,0.3,0,0.4-0.2"/>
			<path d="M25.5,8.8L25.5,8.8L25.5,8.8c0,0,0.2-0.1,0.2-0.2l0.1,0.1C25.8,8.8,25.6,8.8,25.5,8.8z"/>
		</g>
		<g>
			<path class="st1" d="M27.2,10.6c0.2,0.1,0.3,0,0.4-0.2"/>
			<path d="M27.4,10.6L27.4,10.6L27.4,10.6c0,0,0.2-0.1,0.2-0.2l0.1,0.1C27.6,10.5,27.4,10.6,27.4,10.6z"/>
		</g>
		<g>
			<path class="st1" d="M30,9.5c0.2,0.1,0.3,0,0.4-0.2"/>
			<path d="M30.2,9.6L30.2,9.6L30.2,9.6c0,0,0.2-0.1,0.2-0.2l0.1,0.1C30.4,9.5,30.2,9.6,30.2,9.6z"/>
		</g>
		<g>
			<path class="st1" d="M31.5,11.4c0.2,0.1,0.3,0,0.4-0.2"/>
			<path d="M31.6,11.4L31.6,11.4L31.6,11.4c0,0,0.2-0.1,0.2-0.2l0.1,0.1C31.8,11.4,31.7,11.4,31.6,11.4z"/>
		</g>
		<g>
			<path class="st1" d="M34.1,12c0.2,0.1,0.3,0,0.4-0.2"/>
			<path d="M34.1,12.1L34.1,12.1L34.1,12.1c0,0,0.2-0.1,0.2-0.2l0.1,0.1C34.4,12,34.2,12.1,34.1,12.1z"/>
		</g>
		<g>
			<path class="st1" d="M20.9,8.6c0.2,0.1,0.3,0,0.4-0.2"/>
			<path d="M21,8.7L21,8.7L21,8.7c0,0,0.2-0.1,0.2-0.2l0.1,0.1C21.2,8.6,21,8.7,21,8.7z"/>
		</g>
		<g>
			<path class="st1" d="M22.6,10.3c0.2,0.1,0.3,0,0.4-0.2"/>
			<path d="M22.8,10.3L22.8,10.3L22.8,10.3c0,0,0.2-0.1,0.2-0.2l0.1,0.1C23,10.3,22.9,10.3,22.8,10.3z"/>
		</g>
		<g>
			<path class="st1" d="M32.6,11.1c0.6-0.3,1.2-0.1,1.9-0.6"/>
			<path d="M32.6,11.1L32.6,11.1c0.2-0.2,0.5-0.2,0.7-0.2c0.4-0.1,0.7-0.1,1.2-0.5l0.1,0.1c-0.4,0.4-0.8,0.4-1.2,0.5
				C33.1,11,32.9,11.1,32.6,11.1z"/>
		</g>
		<g>
			<path class="st1" d="M34.1,10.3c0,0-0.2,0.2-0.2,0.2c0,0,0.3,0,0.4-0.2L34.1,10.3z"/>
			<path d="M33.9,10.6L33.9,10.6c0.1-0.1,0.2-0.2,0.2-0.3l0,0l0.2,0.1l0,0C34.2,10.6,33.9,10.6,33.9,10.6z M34.1,10.3L34.1,10.3
				C34.1,10.5,34.2,10.4,34.1,10.3L34.1,10.3z"/>
		</g>
		<g>
			<path class="st1" d="M32.8,10.7c0,0,0.7-0.2,0.9-0.3c0,0-0.2,0.1-0.3,0C33.3,10.4,32.9,10.7,32.8,10.7z"/>
			<path d="M32.8,10.8L32.8,10.8l-0.2-0.1L32.8,10.8C32.8,10.7,32.8,10.7,32.8,10.8c0.2-0.1,0.3-0.2,0.4-0.3
				c0.2-0.1,0.2-0.2,0.2-0.1l0,0c0.1,0,0.2,0,0.2,0h0.1l-0.1,0C33.6,10.6,33,10.7,32.8,10.8C32.9,10.8,32.8,10.8,32.8,10.8z
				 M33.3,10.4c0,0-0.1,0.1-0.2,0.1l-0.1,0.1c0.2-0.1,0.2-0.1,0.4-0.2C33.4,10.5,33.4,10.5,33.3,10.4z"/>
		</g>
		<rect x="33.4" y="10.7" transform="matrix(0.3984 -0.9172 0.9172 0.3984 9.835 37.4755)" width="0.1" height="1.1"/>
		<rect x="34" y="10.7" transform="matrix(0.2137 -0.9769 0.9769 0.2137 16.1286 41.8393)" width="0.1" height="0.3"/>
		<g>
			<path class="st1" d="M31.7,11.5c1.5-0.2,1.2,1.3,2.7,1.3"/>
			<path d="M34.4,12.8c-0.7,0-1-0.3-1.4-0.7c-0.3-0.3-0.6-0.6-1.4-0.6v-0.1c0.8-0.1,1.1,0.2,1.4,0.6c0.3,0.3,0.6,0.6,1.3,0.6
				C34.4,12.7,34.4,12.8,34.4,12.8z"/>
		</g>
		<g>
			<path class="st1" d="M32.8,11.9c0,0.8,0.1,1,0.6,1.4"/>
			<path d="M33.3,13.3c-0.6-0.5-0.6-0.6-0.6-1.4h0.1C32.9,12.6,32.9,12.8,33.3,13.3L33.3,13.3z"/>
		</g>
		<g>
			<path class="st1" d="M33.3,12.3c0,0.5,0.1,0.6,0.5,0.9"/>
			<path d="M33.8,13.3c-0.4-0.3-0.6-0.4-0.6-0.9h0.1C33.3,12.8,33.4,12.9,33.8,13.3L33.8,13.3z"/>
		</g>
		<g>
			<path class="st1" d="M33.8,12.7c0,0.2,0.1,0.3,0.3,0.4"/>
			<path d="M34.1,13.1c-0.2-0.1-0.3-0.2-0.3-0.5h0.1C33.8,12.9,33.9,13,34.1,13.1L34.1,13.1z"/>
		</g>
		<g>
			<path class="st1" d="M28.2,10.6c1.1,0.1,2.6,1.9,4.2,1.3"/>
			<path d="M31.7,12c-0.7,0-1.4-0.4-2.1-0.8c-0.5-0.3-1-0.6-1.4-0.6v-0.1c0.4,0,1,0.3,1.4,0.6c0.8,0.5,1.8,1,2.7,0.6v0.1
				C32.1,12,31.8,12,31.7,12z"/>
		</g>
		<rect x="28.5" y="10.6" transform="matrix(0.9219 -0.3874 0.3874 0.9219 -2.1235 11.9538)" width="0.1" height="1.3"/>
		<rect x="29" y="10.8" transform="matrix(0.9264 -0.3766 0.3766 0.9264 -2.171 11.7628)" width="0.1" height="1.4"/>
		<rect x="29.2" y="10.9" transform="matrix(0.8991 -0.4377 0.4377 0.8991 -2.0092 13.9443)" width="0.1" height="0.9"/>
		<rect x="29.8" y="11.1" transform="matrix(0.9062 -0.4229 0.4229 0.9062 -2.165 13.7018)" width="0.1" height="1.2"/>
		<rect x="30.1" y="11.4" transform="matrix(0.8858 -0.464 0.464 0.8858 -2.0701 15.36)" width="0.1" height="1"/>
		<rect x="30.7" y="11.7" transform="matrix(0.8633 -0.5046 0.5046 0.8633 -1.9069 17.1397)" width="0.1" height="0.8"/>
		<rect x="31" y="10" transform="matrix(0.5497 -0.8354 0.8354 0.5497 5.2281 30.5933)" width="0.1" height="0.9"/>
		<rect x="31.6" y="9.8" transform="matrix(0.2563 -0.9666 0.9666 0.2563 13.6531 38.1878)" width="0.1" height="0.9"/>
		<rect x="31.9" y="10" transform="matrix(0.8178 -0.5755 0.5755 0.8178 -4.337227e-02 20.2429)" width="0.1" height="0.3"/>
		<rect x="32.6" y="9.7" transform="matrix(6.566768e-02 -0.9978 0.9978 6.566768e-02 20.4487 41.9987)" width="0.1" height="0.8"/>
		<g>
			<path class="st1" d="M32.4,11.6c-0.2,0.8-0.1,1,0.2,1.4"/>
			<path d="M32.5,13L32.5,13c-0.2-0.4-0.2-0.6-0.2-1.4h0.1C32.3,12.4,32.4,12.5,32.5,13L32.5,13L32.5,13z"/>
		</g>
	</g>
</g>
<g id="Слой_4_1_">
	<g>
		<path class="st11" d="M2.8,21.9c0,0,0.5,0.1,4.1-1.8c0,0-1.6,1.2-0.5,5.9c0,0,1.4,6.2-0.2,6.6c0,0-2.8,1.4-3,1.4
			c0,0,0.1-5.8-0.4-6.7C2.8,27.3,1.5,23.9,2.8,21.9z"/>
		<path d="M3.2,34L3.2,34c0-0.1,0.1-5.8-0.4-6.7l0,0c-0.1-0.1-0.4-1-0.5-2.1c-0.2-1-0.2-2.3,0.5-3.4l0,0l0,0c0,0,0.6,0,4.1-1.8l0,0
			c0,0-0.4,0.3-0.6,1.2C6,22,5.8,23.5,6.5,25.9c0,0,0.4,1.5,0.5,3.1c0.2,2.2-0.1,3.3-0.8,3.5C6.2,32.6,3.4,33.9,3.2,34L3.2,34z
			 M2.9,27.3L2.9,27.3L2.9,27.3c0.4,0.8,0.4,6.2,0.4,6.6c0.3-0.2,2.9-1.4,3-1.4c1.6-0.5,0.2-6.6,0.2-6.6c-0.6-2.4-0.5-3.9-0.2-4.7
			c0.2-0.6,0.4-1,0.6-1.1c-3.2,1.7-3.8,1.8-3.9,1.8c-0.6,1-0.6,2.4-0.5,3.4C2.5,26.3,2.8,27.2,2.9,27.3z"/>
	</g>
	<path class="st12" d="M2.9,21.9c0,0-0.7,0.8-0.6,2.9c0,0,0,1.1,0.6,2.9c0,0,0.2,1.4,0.2,2.2l0.3-0.2c0,0,0.2-0.2-0.2-2.1
		c0,0-0.3-1-0.6-2.7c0,0-0.2-1.8,0.6-3L2.9,21.9z"/>
	<path class="st12" d="M6.8,20.1c0,0-1.4,1.1-0.5,5.3c0,0,0.6,2.5,0.7,5c0,0,0.1,2.1-1,2.2H5.2c0,0,2.7,0.4,0.6-7.2
		c0,0-0.9-3.4,0.4-5L6.8,20.1z"/>
	<path class="st13" d="M0.8,35.2l5.4-2.7c0,0-1.3,0.6-1-1.5c0,0,0.4-1.7-1-1.8c-0.2,0-0.3,0-0.4,0.1c-1,0.6-3.3,2.1-3.4,2.2
		C0.3,31.5-0.4,32.7,0.8,35.2z"/>
	<path class="st12" d="M3.4,29.6c0,0,0.8-0.4,1.3,0.2c0,0,0.2,0.5,0.1,1.2c0,0-0.3,1.4,0.7,1.8L6,32.6c0,0-1.1,0.3-0.9-1.6
		c0,0,0.2-1.3-0.6-1.6c0,0-0.7-0.4-1.3,0.2L3.4,29.6z"/>
	<g>
		<path class="st11" d="M3.7,29.4c-0.3,1.6-0.2,3.2,0.8,4.1c1,0.9,2.2,4.2,1.8,7.8c-0.5,3.6-0.1,7.1,0.5,7.8c0.6,0.8,2.1,1.8,3,1.8
			h5c0,0,1.2,0.3,0.7,1.1L15,55.6H11c0,0-7.4-0.1-8.6-6.1c0,0-0.6-2.6,0.1-10.5c0,0,0.2-0.6-1.8-3.9c0,0-1.4-2.6-0.1-3.8L3.7,29.4z"
			/>
		<path d="M15,55.5H11c0,0-1.8,0-3.8-0.8c-1.2-0.5-2.2-1-2.9-1.8c-1-1-1.6-2.2-1.9-3.5c0,0-0.6-2.6,0.1-10.5c0,0,0.1-0.6-1.8-3.9
			c0,0-1.4-2.6-0.1-3.8l3.1-1.9l0,0c-0.3,1.8-0.1,3.3,0.8,4.1c0.5,0.5,1,1.6,1.4,2.9c0.3,1.1,0.6,2.9,0.3,4.9
			c-0.5,3.7,0,7.1,0.5,7.8c0.6,0.8,2.1,1.8,3,1.8h5c0,0,0.6,0.2,0.8,0.6c0.1,0.2,0.1,0.4-0.1,0.6L15,55.5z M3.7,29.4l-3,1.9
			c-1.3,1.1,0.1,3.8,0.1,3.8C2.6,38.4,2.6,39,2.6,39c-0.7,7.8-0.2,10.5-0.2,10.5c0.6,3.1,3,4.6,4.8,5.3c2,0.8,3.8,0.8,3.8,0.8H15
			l0.5-3.6c0.1-0.2,0.2-0.4,0.1-0.6c-0.2-0.4-0.8-0.6-0.8-0.6h-5c-1,0-2.5-1-3-1.8c-0.6-0.7-1-4.2-0.5-7.9c0.2-2-0.1-3.8-0.3-4.9
			c-0.3-1.3-0.9-2.4-1.4-2.8C3.6,32.7,3.3,31.1,3.7,29.4z"/>
	</g>
	<path class="st13" d="M15.5,51.6c0,0-0.2,1.4-2.3,0.4c0,0-1.2-0.6-1.8,0.3c0,0-0.7,4.5-0.6,4.8c0,0,2.8,1.2,4.1,0.3
		C14.8,57.5,15.7,52.3,15.5,51.6z"/>
	<path class="st12" d="M11.4,52.6c0,0,0.6-0.6,1.8-0.1c0,0,2.7,0.9,2.4-0.8c0,0-0.2,1.2-2.3,0.4c0,0-1.1-0.6-1.8,0.3L11.4,52.6z"/>
	<path class="st12" d="M0.6,31.3c0,0-1.3,0.8,0,3.5c0,0,0.2,0.2,0.6,1c0.5,1,1.1,2.1,1.4,3.1c0,0-0.4,4.8-0.3,8.1c0,0,0,2.2,0.5,3.4
		c0,0,1.3,4.6,8.2,5.1l0.1-0.7c0,0-8.3-0.1-8.1-7.8c0,0-0.2-3.3,0.2-7.4c0,0,0.4-1.1-2-5.1c0,0-1-1.7-0.2-3.4L0.6,31.3z"/>
	<path class="st12" d="M3.6,29.4c0,0-0.6,2.7,0.9,4.1c0,0,1.6,1.8,1.8,5.9c0,0,0.1,0.9-0.2,2.5c0,0-0.3,2.6,0,5c0,0,0,1,0.5,2
		c0,0,0.9,1.4,2.7,1.8h0.2h5c0,0,1.1,0.3,0.7,1c0,0-0.2,0.3-0.4,0.4l-0.2,0.1c0,0,1-0.6-0.2-1l-5,0.2c0,0-2-0.2-3.5-2.2
		c0,0-0.9-1-0.6-7.4c0,0,0.8-4.6-1.4-7.9c0,0-1.8-1.8-1-4.2L3.6,29.4z"/>
	<path class="st11" d="M2.6,25.9c-0.2-0.7-0.4-2.7,0.4-4.1l0.1,0.1C2.4,23.1,2.6,25.1,2.6,25.9L2.6,25.9z"/>
	<path class="st11" d="M3,27.5c-0.2-0.5-0.3-1.1-0.3-1.4c0-0.1,0-0.2-0.1-0.2h0.1c0,0,0,0.1,0.1,0.2C2.9,26.4,3,27.1,3,27.5L3,27.5z
		"/>
	<path class="st11" d="M3.4,29.5L3.4,29.5c-0.1-0.8-0.2-1.4-0.3-2h0.1C3.3,28.1,3.4,28.7,3.4,29.5z"/>
	<path class="st11" d="M0.6,34.3L0.6,34.3c-0.4-0.7-0.8-1.8,0-3l0.1,0.1C-0.1,32.7,0.4,33.6,0.6,34.3L0.6,34.3L0.6,34.3z"/>
	<path class="st11" d="M2.6,38.9c-0.2-1.3-0.7-2.2-1.4-3.3c-0.2-0.4-0.5-0.8-0.7-1.3l0.1-0.1c0.2,0.5,0.5,0.9,0.7,1.3
		C2,36.6,2.6,37.6,2.6,38.9L2.6,38.9z"/>
	<path class="st11" d="M2.7,39.5L2.7,39.5L2.7,39.5c-0.1-0.2-0.1-0.3-0.1-0.6h0.1C2.8,39.1,2.7,39.3,2.7,39.5
		C2.7,39.4,2.7,39.4,2.7,39.5z"/>
	<path class="st11" d="M2.5,48.5c-0.2-1.6-0.2-5.8,0.2-9h0.1C2.4,42.7,2.4,47,2.5,48.5L2.5,48.5z"/>
	<path class="st11" d="M5,53c-1.7-1.5-2.1-2.3-2.4-4.6h0.1C3,50.6,3.4,51.5,5,53L5,53z"/>
	<path class="st11" d="M10.9,55.2C8,55.1,6.3,54.1,5,53L5,53C6.4,54,8.1,55,10.9,55.2L10.9,55.2z"/>
	<path class="st11" d="M11.4,52.5L11.4,52.5c0.3-0.6,1-0.6,1.7-0.3L13,52.2C12.8,52.2,12,51.9,11.4,52.5z"/>
	<path class="st11" d="M14.6,52.6c-0.4,0-1-0.2-1.4-0.3v-0.1c1.1,0.3,2,0.6,2.3-0.3h0.1C15.4,52.5,15,52.6,14.6,52.6z"/>
	<path class="st11" d="M15,52.2L15,52.2c0.2-0.3,0.3-0.6,0.2-0.7c-0.1-0.2-0.2-0.3-0.6-0.4V51c0.4,0.1,0.6,0.3,0.7,0.5
		C15.5,51.8,15.4,52,15,52.2z"/>
	<rect x="9.6" y="51" class="st11" width="5.1" height="0.1"/>
	<path class="st11" d="M9.6,51C8.3,51,6.8,49.9,6.3,49l0.1-0.1c0.6,1,1.9,1.9,3.2,2V51z"/>
	<path class="st11" d="M6.2,49c-0.3-0.6-0.9-2.5-0.6-7h0.1C5.4,46.6,6,48.3,6.2,49L6.2,49z"/>
	<path class="st11" d="M5.8,42.1L5.8,42.1c0.4-2.8,0.1-5.3-1-7.3L5,34.7C6,36.7,6.3,39.3,5.8,42.1z"/>
	<path class="st11" d="M4.9,34.8c0-0.1-0.1-0.2-0.1-0.2c-0.2-0.3-0.3-0.7-0.8-1.1l0.1-0.1c0.4,0.5,0.6,0.9,0.8,1.2
		C4.9,34.7,5,34.7,4.9,34.8L4.9,34.8z"/>
	<path class="st11" d="M4,33.5c-0.5-0.6-1.1-2.1-0.7-3.8h0.1C3,31.4,3.6,32.8,4,33.5L4,33.5z"/>
	<path class="st11" d="M5,30.2c-0.1-0.4-0.2-0.6-0.4-0.6c-0.2-0.2-0.6-0.2-0.8-0.1v-0.1c0.3-0.1,0.6-0.1,0.9,0.1
		c0.2,0.1,0.4,0.3,0.5,0.7L5,30.2z"/>
	<path class="st11" d="M5,30.9L5,30.9C5,30.7,5,30.4,5,30.2H5C5,30.4,5.1,30.7,5,30.9z"/>
	<path class="st11" d="M5.7,32.7c-0.2,0-0.4-0.2-0.6-0.4C4.9,32,4.8,31.5,5,30.8H5c-0.2,0.6-0.1,1.1,0.2,1.4
		c0.2,0.2,0.3,0.3,0.5,0.3L5.7,32.7z"/>
	<path class="st11" d="M5.9,25.2c-0.4-1.5-0.5-3.7,0.4-4.9h0.1C5.5,21.5,5.7,23.6,5.9,25.2L5.9,25.2z"/>
	<path class="st11" d="M6.7,29.9L6.7,29.9c-0.2-1.4-0.2-2.1-0.9-4.6h0.1C6.6,27.9,6.6,28.4,6.7,29.9L6.7,29.9L6.7,29.9z"/>
	<path class="st11" d="M5.8,32.6L5.8,32.6c0.9-0.5,1-1.2,1-2.7h0.1C6.9,31.2,6.8,32.2,5.8,32.6z"/>
	<g>
		<path class="st11" d="M42.9,27.3c-0.4,0.9-0.4,6.7-0.4,6.7c-0.2-0.1-3-1.4-3-1.4c-1.7-0.5-0.2-6.6-0.2-6.6
			c1.2-4.7-0.5-5.9-0.5-5.9c3.5,1.9,4.1,1.8,4.1,1.8C44.2,23.9,43,27.3,42.9,27.3z"/>
		<path d="M42.6,34L42.6,34c-0.2-0.1-3-1.4-3-1.4c-0.7-0.2-1-1.4-0.8-3.5c0.2-1.6,0.5-3.1,0.5-3.1c0.6-2.4,0.5-3.9,0.2-4.7
			c-0.2-0.9-0.6-1.2-0.6-1.2l0,0c3.4,1.8,4,1.8,4.1,1.8l0,0l0,0l0,0c1,1.5,0.4,3.9,0.2,4.9C43.1,27,43,27.3,43,27.3l0,0
			C42.5,28.2,42.6,33.9,42.6,34L42.6,34z M39,20.1c0.2,0.2,0.4,0.5,0.6,1.1c0.2,0.8,0.4,2.3-0.2,4.7c0,0.1-1.4,6.2,0.2,6.6
			c0,0,2.6,1.3,3,1.4c0-0.5,0-5.8,0.4-6.6l0,0c0-0.1,0.3-0.9,0.5-2c0.2-1,0.2-2.4-0.5-3.4C42.9,21.9,42.2,21.8,39,20.1z"/>
	</g>
	<path class="st12" d="M42.5,21.8c0.8,1.2,0.6,3,0.6,3c-0.2,1.8-0.6,2.7-0.6,2.7c-0.4,1.8-0.2,2.1-0.2,2.1l0.3,0.2
		c0-0.7,0.2-2.2,0.2-2.2c0.6-1.7,0.6-2.9,0.6-2.9c0.2-2.1-0.6-2.9-0.6-2.9H42.5z"/>
	<path class="st12" d="M39.7,20.4c1.3,1.5,0.4,5,0.4,5c-2.2,7.5,0.6,7.2,0.6,7.2h-0.8c-1.1-0.2-1-2.2-1-2.2c0.1-2.6,0.7-5,0.7-5
		c0.9-4.2-0.5-5.3-0.5-5.3L39.7,20.4z"/>
	<path class="st13" d="M45.5,31.5c-0.1-0.1-2.3-1.5-3.4-2.2c-0.1-0.1-0.3-0.1-0.4-0.1c-1.4,0.1-1,1.8-1,1.8c0.3,2-1,1.5-1,1.5
		l5.4,2.7C46.2,32.7,45.5,31.5,45.5,31.5z"/>
	<path class="st12" d="M42.5,29.5c-0.6-0.6-1.3-0.2-1.3-0.2c-0.8,0.4-0.6,1.6-0.6,1.6c0.3,1.8-0.9,1.6-0.9,1.6l0.5,0.2
		c1-0.4,0.7-1.8,0.7-1.8c-0.2-0.6,0.1-1.2,0.1-1.2c0.4-0.6,1.3-0.2,1.3-0.2L42.5,29.5z"/>
	<g>
		<path class="st11" d="M45.3,31.3c1.3,1.2-0.1,3.8-0.1,3.8c-1.9,3.4-1.8,3.9-1.8,3.9c0.6,7.9,0.1,10.5,0.1,10.5
			c-1.3,6-8.6,6.1-8.6,6.1h-3.9l-0.5-3.6c-0.5-0.8,0.7-1.1,0.7-1.1h5c1,0,2.5-1,3-1.8s1-4.3,0.5-7.8c-0.5-3.6,0.8-6.9,1.8-7.8
			c1-0.9,1.1-2.4,0.8-4.1L45.3,31.3z"/>
		<path d="M30.9,55.5L30.9,55.5L30.9,55.5l-0.5-3.6c-0.1-0.2-0.2-0.4-0.1-0.6c0.2-0.4,0.8-0.6,0.8-0.6h5c1,0,2.5-1,3-1.8
			c0.6-0.7,1-4.2,0.5-7.8c-0.2-2,0.1-3.8,0.3-4.9c0.3-1.3,0.9-2.4,1.4-2.9c0.9-0.8,1.1-2.2,0.8-4.1l0,0l3.1,1.9
			c1.3,1.1-0.1,3.8-0.1,3.8c-1.9,3.3-1.8,3.9-1.8,3.9c0.6,7.8,0.1,10.5,0.1,10.5c-0.3,1.4-1,2.6-1.9,3.5c-0.8,0.7-1.8,1.4-2.9,1.8
			c-2,0.8-3.8,0.8-3.8,0.8L30.9,55.5z M30.9,55.5h3.9c0,0,1.8,0,3.8-0.8c1.8-0.7,4.2-2.2,4.8-5.3c0,0,0.6-2.6-0.1-10.5
			c0,0-0.1-0.6,1.8-3.9c0,0,1.4-2.6,0.1-3.8l-3-1.9c0.3,1.8,0,3.3-0.8,4c-0.5,0.5-1,1.5-1.4,2.8c-0.3,1.1-0.6,2.9-0.3,4.9
			c0.5,3.7,0,7.1-0.5,7.9c-0.6,0.8-2.1,1.8-3,1.8h-5c0,0-0.6,0.2-0.8,0.6c-0.1,0.2-0.1,0.3,0.1,0.6l0,0L30.9,55.5z"/>
	</g>
	<path class="st13" d="M31,57.6c1.3,0.8,4.1-0.3,4.1-0.3c0.1-0.3-0.6-4.8-0.6-4.8c-0.6-1-1.8-0.3-1.8-0.3c-2.2,0.9-2.3-0.4-2.3-0.4
		C30.1,52.3,31,57.5,31,57.6z"/>
	<g>
		<path class="st11" d="M22.9,60c4.8,0,7-0.5,7-0.5c3.3-0.3,5-2.2,5-2.2c0.1-2.6-0.6-4.8-0.6-4.8s0.7,1.5-5,2.6c0,0-3.5,0.3-6.6,0.3
			l0,0c-3,0-6.6-0.3-6.6-0.3c-5.7-1-5-2.6-5-2.6s-0.6,2.2-0.6,4.8c0,0,1.8,1.8,5,2.2C15.8,59.4,18.1,60,22.9,60L22.9,60z"/>
		<path d="M22.9,60c-4.4,0-6.6-0.4-7-0.5l0,0c-3.3-0.3-5-2.2-5-2.2l0,0l0,0c-0.1-2.4,0.5-4.4,0.6-4.8v-0.1l0,0c0,0,0,0,0,0.1
			c0,0.1,0,0.2,0.1,0.5c0.3,0.6,1.4,1.4,4.9,2c0,0,3.5,0.3,6.6,0.3s6.6-0.3,6.6-0.3c3.4-0.6,4.6-1.4,4.9-2c0.1-0.2,0.1-0.4,0.1-0.5
			v-0.1l0,0c0,0,0,0,0,0.1c0.1,0.4,0.6,2.4,0.6,4.8l0,0l0,0c0,0-1.8,1.9-5,2.2C30,59.5,27.7,60,22.9,60z M15.8,59.4L15.8,59.4
			c0.4,0.1,2.7,0.5,7,0.5c4.7,0,7-0.5,7-0.5c3.2-0.3,5-2.1,5-2.2c0.1-2.2-0.4-4-0.6-4.6c0,0.1,0,0.2-0.1,0.3c-0.3,0.6-1.4,1.4-4.9,2
			c0,0-3.5,0.3-6.6,0.3S16.3,55,16.3,55c-3.5-0.6-4.6-1.4-4.9-2c-0.1-0.2-0.1-0.2-0.1-0.3c-0.2,0.6-0.6,2.4-0.6,4.6
			C10.9,57.4,12.7,59.1,15.8,59.4L15.8,59.4z"/>
	</g>
	<path class="st12" d="M34.4,52.4c-0.6-1-1.8-0.3-1.8-0.3c-2.1,0.9-2.3-0.4-2.3-0.4c-0.3,1.7,2.4,0.8,2.4,0.8
		c1.1-0.6,1.8,0.1,1.8,0.1L34.4,52.4z"/>
	<path class="st12" d="M22.9,55.3c-3.2,0-6.6-0.3-6.6-0.3s-4.8-0.7-5-2.3l-0.2,0.7c0,0-0.6,1.3,5.1,2.2c0,0,3,0.3,6.6,0.3
		s6.6-0.3,6.6-0.3c5.7-1,5.1-2.2,5.1-2.2l-0.2-0.7c-0.2,1.6-5,2.3-5,2.3S26.1,55.3,22.9,55.3z"/>
	<path class="st12" d="M22.9,59.4c-1.8,0.1-4.2-0.2-4.2-0.2c-0.9-0.1-3-0.5-3-0.5s-3.4-0.5-5-2.6v1c0,0,1.8,1.9,5,2.2
		c0,0,0.4,0.1,1.1,0.2c0,0,2.5,0.3,5.9,0.3s5.9-0.3,5.9-0.3c0.7-0.1,1.1-0.2,1.1-0.2c3.3-0.3,5-2.2,5-2.2v-1c-1.6,2.2-5,2.6-5,2.6
		s-2,0.4-3,0.5C27.1,59.3,24.6,59.5,22.9,59.4L22.9,59.4z"/>
	<path class="st12" d="M44.9,31c1,1.7-0.2,3.4-0.2,3.4c-2.4,3.9-2,5.1-2,5.1c0.4,4.2,0.2,7.4,0.2,7.4c0.2,7.8-8.1,7.8-8.1,7.8
		l0.1,0.7c6.8-0.6,8.2-5.1,8.2-5.1c0.5-1.1,0.5-3.4,0.5-3.4c0.2-3.3-0.3-8.1-0.3-8.1c0.2-1,0.8-2.1,1.4-3.1c0.4-0.7,0.6-1,0.6-1
		c1.2-2.7,0-3.5,0-3.5L44.9,31z"/>
	<path class="st12" d="M42.8,29.8c0.7,2.4-1,4.2-1,4.2c-2.2,3.3-1.4,7.9-1.4,7.9c0.4,6.4-0.6,7.4-0.6,7.4c-1.5,2.1-3.5,2.2-3.5,2.2
		l-5-0.2c-1.2,0.2-0.2,1-0.2,1l-0.2-0.1c-0.3-0.2-0.4-0.4-0.4-0.4c-0.4-0.7,0.7-1,0.7-1h5h0.2c1.8-0.5,2.7-1.8,2.7-1.8
		c0.5-1,0.5-2,0.5-2c0.3-2.4,0-5,0-5c-0.2-1.6-0.2-2.5-0.2-2.5c0.2-4.2,1.8-5.9,1.8-5.9c1.5-1.4,0.9-4.1,0.9-4.1L42.8,29.8z"/>
	<path class="st11" d="M43.2,25.9L43.2,25.9c0.1-0.7,0.2-2.6-0.5-4l0.1-0.1C43.6,23.1,43.4,25.1,43.2,25.9z"/>
	<path class="st11" d="M42.8,27.5L42.8,27.5c0.1-0.5,0.2-1.1,0.2-1.4c0-0.1,0-0.2,0.1-0.2h0.1c0,0,0,0.1-0.1,0.2
		C43.1,26.4,42.9,27.1,42.8,27.5z"/>
	<path class="st11" d="M42.5,29.5c0-0.8,0.1-1.4,0.2-2.1h0.1C42.6,28,42.5,28.7,42.5,29.5L42.5,29.5z"/>
	<path class="st11" d="M45.2,34.3L45.2,34.3L45.2,34.3c0.3-0.7,0.7-1.7-0.1-3l0.1-0.1C46,32.6,45.6,33.6,45.2,34.3L45.2,34.3z"/>
	<path class="st11" d="M43.2,38.9L43.2,38.9c0.1-1.3,0.6-2.3,1.3-3.4c0.2-0.4,0.5-0.8,0.7-1.3l0.1,0.1c-0.2,0.5-0.5,0.9-0.7,1.3
		C43.9,36.7,43.3,37.6,43.2,38.9z"/>
	<path class="st11" d="M43,39.5L43,39.5c0-0.2,0-0.3,0-0.6h0.1C43.1,39.1,43.1,39.2,43,39.5L43,39.5L43,39.5z"/>
	<path class="st11" d="M43.3,48.5L43.3,48.5c0.2-1.6,0.1-5.8-0.2-9h0.1C43.4,42.7,43.5,46.9,43.3,48.5z"/>
	<path class="st11" d="M40.9,53L40.9,53c1.5-1.5,2-2.4,2.3-4.6h0.1C42.9,50.7,42.5,51.5,40.9,53z"/>
	<path class="st11" d="M34.9,55.2L34.9,55.2c2.8-0.2,4.5-1.2,5.8-2.2l0.1,0.1C39.5,54.1,37.8,55.1,34.9,55.2z"/>
	<path class="st11" d="M30.8,59.1L30.8,59.1c2.2-0.6,3.4-1.6,4.2-2.3l0.1,0.1C34.2,57.6,33,58.6,30.8,59.1z"/>
	<path class="st11" d="M21.8,59.8c-3.1,0-5.6-0.4-6.9-0.6L14.5,59h0.1c-2-0.6-3.1-1.5-3.8-2.2l0.1-0.1c0.7,0.7,2,1.8,4.2,2.2h0.2
		c1.4,0.3,4.2,0.7,7.7,0.6c3.8,0.1,6.8-0.4,7.9-0.6v0.1c-1.1,0.2-4.1,0.8-7.9,0.6C22.6,59.8,22.2,59.8,21.8,59.8z"/>
	<path class="st11" d="M29.5,55.3L29.5,55.3c3-0.5,4.7-1.2,5-2.2h0.1C34.3,54.2,32.6,54.9,29.5,55.3z"/>
	<path class="st11" d="M34.3,52.5c-0.6-0.6-1.4-0.3-1.6-0.2l-0.1-0.1C33.3,51.9,34,52,34.3,52.5L34.3,52.5z"/>
	<path class="st11" d="M31.3,52.6c-0.5,0-0.8-0.2-1-0.6h0.1c0.3,0.9,1.2,0.6,2.3,0.3v0.1C32.1,52.5,31.7,52.6,31.3,52.6z"/>
	<path class="st11" d="M22.9,55.7c-3.6,0-6.1-0.2-6.6-0.3l0,0c-3.1-0.4-4.8-1.1-5-2.2h0.1c0.3,1,2,1.8,5,2.2l0,0
		C16.9,55.4,19.4,55.6,22.9,55.7c3.7-0.1,6.2-0.3,6.6-0.4v0.1C29,55.4,26.6,55.7,22.9,55.7z"/>
	<path class="st11" d="M30.7,52.2c-0.3-0.3-0.4-0.6-0.3-0.7c0.1-0.2,0.3-0.4,0.7-0.5v0.1c-0.4,0.1-0.6,0.2-0.6,0.4
		C30.5,51.7,30.6,51.9,30.7,52.2L30.7,52.2z"/>
	<rect x="31.1" y="51" class="st11" width="5.1" height="0.1"/>
	<path class="st11" d="M36.2,51L36.2,51c1.3-0.2,2.7-1.1,3.2-2.1l0.1,0.1C39,50,37.5,51,36.2,51z"/>
	<path class="st11" d="M39.5,49L39.5,49c0.2-0.7,0.8-2.5,0.5-7h0.1C40.4,46.6,39.9,48.4,39.5,49z"/>
	<path class="st11" d="M40,42.1c-0.5-2.8-0.2-5.4,0.9-7.4l0.1,0.1C39.9,36.8,39.6,39.3,40,42.1L40,42.1z"/>
	<path class="st11" d="M40.9,34.8L40.9,34.8c-0.1-0.2,0-0.2,0-0.3c0.2-0.3,0.4-0.7,0.8-1.2l0.1,0.1c-0.4,0.5-0.6,0.9-0.8,1.1
		C41,34.7,40.9,34.7,40.9,34.8z"/>
	<path class="st11" d="M41.8,33.5L41.8,33.5c0.4-0.6,1-2.1,0.6-3.8h0.1C42.9,31.4,42.3,32.9,41.8,33.5z"/>
	<path class="st11" d="M40.9,30.2L40.9,30.2c0-0.4,0.2-0.6,0.4-0.7c0.2-0.2,0.6-0.2,0.9-0.1v0.1c-0.2-0.1-0.6-0.1-0.8,0.1
		C41.1,29.6,40.9,29.9,40.9,30.2z"/>
	<path class="st11" d="M40.8,30.9c-0.1-0.2,0-0.5,0-0.7h0.1C40.9,30.4,40.8,30.7,40.8,30.9L40.8,30.9z"/>
	<path class="st11" d="M40.1,32.7L40.1,32.7c0.2-0.1,0.4-0.2,0.5-0.4c0.2-0.3,0.3-0.9,0.2-1.4h0.1c0.2,0.6,0.1,1.1-0.2,1.5
		C40.5,32.6,40.4,32.7,40.1,32.7z"/>
	<path class="st11" d="M39.9,25.2L39.9,25.2c0.3-1.5,0.4-3.6-0.5-4.8l0.1-0.1C40.4,21.5,40.2,23.6,39.9,25.2z"/>
	<path class="st11" d="M39,29.9L39,29.9L39,29.9c0-1.5,0.1-2.1,0.8-4.7h0.1C39.2,27.8,39.2,28.3,39,29.9L39,29.9z"/>
	<path class="st11" d="M40,32.6c-1-0.4-1-1.3-1-2.7h0.1C39.1,31.4,39.2,32.1,40,32.6L40,32.6z"/>
</g>
<path class="st14" d="M3,21.9"/>
<path class="st14" d="M3.4,29.5"/>
<path d="M19.6,23.5c0,0-1.5-0.2-2.1-1.3c0,0,1,0.8,1.8,0.6c0,0-1.6-2.1-2.8-3c0,0,1.4,1,1.7,1.2l-0.4-2.2c0,0-0.6-0.9-0.3-1.9
	c0,0,0.1,1.4,0.4,1.4c0,0,0.2-0.2,0.5-1.3c0,0,0,1.4-0.3,1.8c0,0,0.2,0.2,1-0.6c0,0-0.5,0.8-0.9,1.1v0.4c0,0,0.4,2.1,1.7,3.1
	c0,0,0.6,0.4,1.6,0c0,0-0.2-0.3-0.3-1.1c0,0,0.5,0.8,0.9,1l0.1,0.1c0.4,0.2,1,0.2,1.5-0.7c0,0-0.6-1-0.6-2.1c0,0,0.6,1.7,1,1.8
	c0,0,0.2,0.2,1.8-1.8c0,0,0.1-1.3-0.6-2c0,0,0.6,0.6,0.9,1.2c0,0,0.6-0.2,0.3-2.1c0,0,0.2,1,0.3,1.6c0,0,0.4-0.6,0.6-1.5
	c0,0-0.2,3.4-5.2,6.5C22.3,23.8,20,23.5,19.6,23.5z"/>
<g>
	<path class="st11" d="M17,25.5c0,0-0.2-0.6,0-0.6c0.3-0.1,1.6-0.4,1.9-0.9c0,0,0.9-0.9,1.5-0.8c0,0,1.3,0.2,1.7,0.5
		c0,0,1.7,0,2-0.2c0,0,0.3,0.2,0,0.6c0,0-0.4,0.6-1.8,0.7c0,0-0.1,2.4-0.5,3.4c-0.2,0.7-0.6,2.9,1.1,3.2c0,0,2.4,0.4,3.4,0
		c1-0.4,5.4-1,6.5,1.8c0,0,0.4,0.9-0.6,0.4c0,0-0.6,1.8-0.2,3.2c0,0-0.2,1.7,2.5,2.6c0,0-0.1,3.4,1.1,4.6v0.4c0,0-0.9,1.3-0.7,1.7
		h-1c0,0,0.9-1.4,1-1.8c0,0-0.6-2.3-0.8-3.2c0,0-0.6-1.1-1.2-1.3c0,0-2.3-0.3-3.4-1.4c0,0-0.1,1.6-1.1,2.9c0,0-0.3,0.2-0.4,0.6
		l-0.1,3.2c0,0-0.9,0.6-0.9,1h-1.2c0,0,1.2-1.5,1.3-1.5c0,0,0.7-2.9,0.6-3.5c0,0,0.2-0.8-0.2-1.3c0,0-2-1.8-2-2.9
		c0,0-1.8,0.8-3.6,0.4c0,0,0.2,0.8-0.3,1.4c0,0-0.2,1.5-0.1,1.8c0,0,0.6,0.8,0,1.4l-0.2,2.8l0.3,0.2c0,0-0.6,1-0.6,1.4h-1
		c0,0,0.6-1,0.8-1.1v-3c0,0-0.6-0.3-0.2-1.4c0,0,0-1-0.3-1.4c0,0-1.5-1.5-1.5-2.5c0,0-2.5,0.2-3.7-0.8c0,0,0-0.1-1.3,0
		c0,0-0.6,0.9-1.3,1.4c0,0-0.8,1.8-0.6,2.5l-0.5,0.6l-0.9,0.2c0,0,0.7-1.4,1-1.9c0,0,1-2.8,1.4-3.4c0,0,0.2-0.7,1.1-0.8
		c0,0,2.3-0.2,2.6-0.6c0,0,0.2-0.2,0.2-0.6c0,0-0.8-1,0.3-3.3c0,0,1.4-1.5,2.1-3.3c0,0-0.4-0.9-0.9-1C18.4,25.9,17.8,26,17,25.5
		L17,25.5z"/>
	<path class="st15" d="M21,46.3h-1.1l0.1-0.1c0,0,0.5-0.9,0.8-1.1l-0.1-3c-0.1-0.1-0.6-0.4-0.2-1.4c0-0.1,0-1-0.2-1.3
		c-0.1-0.1-1.5-1.5-1.5-2.5c-0.4,0-2.5,0.1-3.6-0.9l0,0c0,0-0.2-0.1-1.2,0c-0.1,0.2-0.6,0.9-1.2,1.4c-0.1,0.2-0.7,1.8-0.6,2.5l0,0
		l-0.6,0.6l-1.2,0.2l0.1-0.1c0,0,0.7-1.4,1-1.9c0.1-0.1,1-2.8,1.4-3.4c0-0.1,0.2-0.7,1.1-0.8c0,0,2.2-0.2,2.6-0.6
		c0,0,0.2-0.2,0.2-0.6c-0.1-0.2-0.7-1.2,0.3-3.3c0,0,1.4-1.5,2.1-3.3c-0.1-0.2-0.4-0.8-0.8-0.9c-0.1,0-0.6,0-1.3-0.3l0,0L17,25.6
		c0-0.1-0.2-0.4-0.1-0.6C16.9,25,17,25,17,25c0.3-0.1,1.5-0.4,1.9-0.9c0-0.1,0.9-0.9,1.5-0.9c0.1,0,1.3,0.2,1.7,0.5
		c0.2,0,1.7-0.1,2-0.2l0,0l0,0c0,0,0.2,0.1,0.2,0.3c0,0.2,0,0.2-0.2,0.4c0,0-0.4,0.6-1.8,0.7c0,0.3-0.1,2.4-0.5,3.4
		c-0.2,0.6-0.3,1.7,0.1,2.4c0.2,0.4,0.6,0.6,1,0.7c0,0,2.4,0.4,3.4,0c0.6-0.2,3-0.7,4.8,0.1c0.8,0.4,1.4,1,1.7,1.8
		c0,0,0.2,0.4,0,0.6c-0.1,0.1-0.3,0.1-0.6-0.1c-0.1,0.3-0.6,1.9-0.2,3.1l0,0l0,0c0,0-0.1,1.7,2.4,2.6l0,0l0,0c0,0-0.1,3.4,1,4.6l0,0
		v0.5l0,0c-0.2,0.3-0.9,1.3-0.7,1.6v0.1h-1.1l0.1-0.1c0,0,0.8-1.4,1-1.8c-0.1-0.2-0.6-2.3-0.8-3.1c-0.1-0.1-0.6-1-1.1-1.2
		c0,0-2.2-0.3-3.4-1.4c0,0.4-0.2,1.8-1.1,2.8l0,0c0,0-0.2,0.2-0.4,0.6l-0.1,3.2l0,0c-0.2,0.2-0.9,0.7-0.9,1v0.1h-1.3l0.1-0.1
		c0.2-0.3,1.1-1.4,1.3-1.5c0.1-0.2,0.7-2.9,0.6-3.4c0,0,0.2-0.8-0.2-1.3c-0.1-0.1-1.9-1.7-2.1-2.9c-0.3,0.2-1.9,0.7-3.4,0.4
		c0,0.2,0.1,0.8-0.3,1.3c-0.1,0.4-0.2,1.5-0.1,1.8c0.1,0.1,0.6,0.9,0,1.5l0,2.9l0.3,0.2V45C21.7,45,21,45.9,21,46.3L21,46.3z
		 M20.2,46.2H21c0.1-0.4,0.5-1.1,0.6-1.3l-0.2-0.1l0.1-2.8l0,0c0.6-0.6,0-1.4,0-1.4l0,0c-0.1-0.3,0.1-1.8,0.1-1.8l0,0l0,0
		c0.5-0.6,0.2-1.3,0.2-1.3v-0.1h0.1c1.8,0.4,3.5-0.4,3.5-0.4h0.1v0.1c0,1.1,2,2.9,2,2.9c0.4,0.6,0.2,1.3,0.2,1.3
		c0,0.6-0.6,3.4-0.6,3.5l0,0l0,0c-0.1,0.1-0.8,0.9-1.2,1.4h1c0.1-0.4,0.8-0.9,0.9-1l0.1-3.2c0.2-0.4,0.4-0.6,0.4-0.6
		c1-1.2,1.1-2.8,1.1-2.8v-0.1l0.1,0.1c1.1,1.1,3.4,1.4,3.4,1.4c0.6,0.2,1.2,1.3,1.2,1.3l0,0c0.1,0.9,0.7,3.1,0.8,3.1l0,0l0,0
		c-0.2,0.2-0.8,1.4-1,1.7h0.8c-0.1-0.4,0.6-1.4,0.7-1.6v-0.4c-1.1-1.2-1.1-4.2-1.1-4.6c-2.5-0.8-2.5-2.5-2.5-2.6
		c-0.5-1.4,0.2-3.2,0.2-3.2v-0.1H32c0.4,0.2,0.6,0.2,0.6,0.1c0.1-0.1,0-0.3,0-0.5c-0.3-0.8-0.9-1.4-1.7-1.7
		c-1.8-0.8-4.2-0.3-4.7-0.1c-1,0.4-3.3,0-3.4,0c-0.5-0.1-0.9-0.4-1.1-0.8c-0.4-0.8-0.2-1.9-0.1-2.5c0.4-1,0.5-3.4,0.5-3.4v-0.1h0.1
		c1.4-0.1,1.8-0.7,1.8-0.7c0.1-0.1,0.2-0.2,0.2-0.3c0-0.1-0.1-0.2-0.1-0.2c-0.4,0.2-2,0.2-2,0.2l0,0l0,0c-0.4-0.3-1.6-0.5-1.6-0.5
		c-0.6-0.1-1.4,0.8-1.4,0.8c-0.4,0.5-1.7,0.8-2,0.9l0,0c-0.1,0.1,0,0.3,0.1,0.5l0.2,0.2c0.7,0.3,1.3,0.3,1.3,0.3l0,0l0,0
		c0.6,0.1,0.9,1,0.9,1l0,0l0,0c-0.6,1.8-2.1,3.3-2.1,3.3c-1.1,2.2-0.3,3.2-0.3,3.2l0,0l0,0c0,0.4-0.2,0.6-0.3,0.6
		c-0.4,0.4-2.6,0.6-2.7,0.6c-0.9,0.1-1,0.7-1,0.7l0,0c-0.3,0.5-1.4,3.3-1.4,3.3c-0.2,0.5-0.7,1.5-0.9,1.8l0.8-0.2l0.5-0.6
		c-0.1-0.8,0.6-2.4,0.6-2.5l0,0l0,0c0.6-0.5,1.2-1.4,1.2-1.4l0,0l0,0c1.3-0.1,1.3,0,1.4,0l0,0c1.2,1,3.6,0.8,3.6,0.8H19v0.1
		c0,1,1.5,2.4,1.5,2.5c0.3,0.3,0.3,1.4,0.3,1.4l0,0c-0.4,1,0.1,1.3,0.2,1.3l0,0l0,0l0.1,3l0,0C20.6,45.4,20.2,46,20.2,46.2z"/>
</g>
<polygon points="11.4,40.6 10.5,40.7 10.4,41.9 11.7,41.1 11.6,40.4 "/>
<path d="M20,46.2h1c0,0,0.2,0.5,0.2,0.6h-1.4C19.8,46.9,19.8,46.4,20,46.2z"/>
<path d="M25.7,46.2c0,0-0.4,0.3-0.4,0.6h1.4c0,0,0-0.4,0.1-0.6H25.7z"/>
<path d="M34.7,46.2h-1c0,0-0.4,0.3-0.5,0.6h1.4C34.7,46.9,34.7,46.5,34.7,46.2z"/>
<path d="M20.1,24.1c0,0-0.2,0.2-0.7,0.4c0,0-0.1,0.1,0,0.2c0,0,0.4,0.1,0.9,0C20.3,24.7,20.6,24.2,20.1,24.1"/>
<path class="st15" d="M25.4,37.1L25.4,37.1c0.6-0.6,2.2-1,3-0.9v0.1C27.6,36.2,26,36.6,25.4,37.1z"/>
<path class="st15" d="M29.4,38.7c-0.8-0.9-1.2-1.9-1-2.6h0.1C28.3,36.7,28.6,37.7,29.4,38.7L29.4,38.7z"/>
<path class="st15" d="M18.8,37L18.8,37c-0.1-0.3-0.1-0.6,0-0.8h0.1C18.9,36.4,18.8,36.7,18.8,37z"/>
<path class="st15" d="M21.8,37.5v-0.2c-0.1-0.3-0.1-0.5-0.2-0.9h0.1c0.2,0.4,0.2,0.6,0.2,0.9L21.8,37.5L21.8,37.5z"/>
<path class="st15" d="M18.8,37c-1-0.2-1.6-1-1.8-2h0.1C17.3,35.9,17.8,36.7,18.8,37L18.8,37z"/>
<path class="st15" d="M19.4,26.2c-0.2,0-0.6-0.1-0.9-0.2v-0.1c0.9,0.2,1.4,0.2,1.8-0.2l0.1,0.1C20.1,26.1,19.8,26.2,19.4,26.2z"/>
<path class="st13" d="M17,35.1c0,0-0.7,1-0.8,1.6c0,0,0.8,0.3,2.2,0.3C18.5,36.9,17.3,36.5,17,35.1z"/>
<path class="st13" d="M25.6,37.6c0,0,2.5-0.6,3.1,0c0,0-0.4-0.7-0.3-1.4c0,0-1.5-0.2-3,0.8C25.4,37.1,25.4,37.4,25.6,37.6z"/>
<path class="st13" d="M18.8,26.2c0,0,1,0.2,1.5-0.2c0,0-0.3,0.6-1,1.1C19.4,27,19.1,26.5,18.8,26.2z"/>
</svg>
