<svg width="176" height="48" viewBox="0 0 176 48" fill="none" xmlns="http://www.w3.org/2000/svg">
<g clip-path="url(#clip0_2002_418)">
<path d="M82.6476 0.52401H72.2881C72.173 0.52401 72.1155 0.582247 72.1155 0.698721C71.8277 5.41591 70.9644 10.5408 69.6983 14.6756V14.8503C69.7558 14.9085 69.8134 14.9085 69.8709 14.9085H73.4392C73.4967 14.9085 73.6118 14.8503 73.6118 14.792C74.5902 11.589 75.396 7.39596 75.6837 3.84351H79.0793V14.7338C79.0793 14.8503 79.1369 14.9085 79.252 14.9085H82.6476C82.7627 14.9085 82.8202 14.8503 82.8202 14.7338V0.756958C82.8202 0.640484 82.7627 0.52401 82.6476 0.52401V0.52401ZM126.445 0.52401H123.049C122.934 0.52401 122.877 0.582247 122.877 0.698721V11.5308C122.129 11.7637 121.38 11.822 120.575 11.822C118.33 11.822 117.812 11.1231 117.812 8.09481V0.756958C117.812 0.640484 117.755 0.582247 117.639 0.582247H114.244C114.129 0.582247 114.071 0.640484 114.071 0.756958V8.5607C114.071 13.4526 115.683 15.3744 119.884 15.3744C122.244 15.3744 124.949 14.7338 126.503 14.1514C126.56 14.1514 126.618 14.035 126.618 13.9767V0.756958C126.618 0.640484 126.56 0.52401 126.445 0.52401V0.52401ZM54.7922 0.582247H51.3391C51.2239 0.582247 51.1664 0.640484 51.1664 0.698721C50.6484 2.85349 49.5549 6.46417 48.0586 10.2496L44.6054 0.640484C44.6054 0.582247 44.4903 0.52401 44.4328 0.52401H40.9796C40.9221 0.52401 40.8645 0.582247 40.807 0.582247C40.7494 0.640484 40.7494 0.698721 40.807 0.756958L45.9867 15.0832C45.4687 16.1897 44.9507 17.1215 44.4903 17.9951C44.145 18.6357 43.7997 19.2763 43.4544 19.9751C43.3968 20.0334 43.4544 20.0916 43.4544 20.1498C43.5119 20.2081 43.5695 20.2663 43.627 20.2663H47.3679C47.4255 20.2663 47.483 20.2081 47.5406 20.1498C48.1737 18.9269 48.9794 17.1798 49.7276 15.4327C51.9146 10.1913 53.6987 5.29943 55.0224 0.815194C55.0224 0.756957 55.0224 0.698721 54.9649 0.640484C54.9073 0.582247 54.8498 0.582247 54.7922 0.582247V0.582247ZM67.1084 11.589C67.1084 11.5308 67.0509 11.4725 66.9933 11.4725H66.8207C66.0149 11.7637 64.461 12.0549 63.3675 12.0549C61.0079 12.0549 59.9144 11.4143 59.9144 7.74538C59.9144 4.83354 60.2597 3.43585 63.3675 3.43585C64.2308 3.43585 65.0941 3.55233 66.13 3.90175C66.2451 3.90175 66.3027 3.90175 66.3602 3.78528C66.7631 3.0282 67.2235 2.15464 67.7415 0.989905V0.815194C67.7415 0.756957 67.6839 0.698721 67.6264 0.698721C66.2451 0.232826 64.5761 -0.00012207 63.1373 -0.00012207C58.1878 -0.00012207 56.0008 2.32935 56.0008 7.62891C56.0008 12.9867 58.1878 15.3744 63.1373 15.3744C64.3459 15.3744 66.8207 15.0832 67.9717 14.6173C68.0868 14.5591 68.0868 14.5009 68.0868 14.3844L67.1084 11.589V11.589ZM99.2802 0.582247H95.8271C95.7695 0.582247 95.6544 0.640484 95.6544 0.698721C95.1365 2.85349 94.043 6.46417 92.5466 10.2496L89.0935 0.640484C89.0935 0.582247 88.9783 0.52401 88.9208 0.52401H85.4676C85.4101 0.52401 85.3525 0.582247 85.295 0.582247C85.2374 0.640484 85.2374 0.698721 85.295 0.756958L90.4747 15.0832C89.9567 16.1897 89.4388 17.0633 88.9784 17.9951C88.633 18.6357 88.2877 19.2763 87.9424 19.9751C87.8849 20.0334 87.9424 20.0916 87.9424 20.1498C88 20.2081 88.0575 20.2663 88.1151 20.2663H91.856C91.9135 20.2663 91.9711 20.2081 92.0286 20.1498C92.6617 18.9269 93.4674 17.1798 94.2156 15.4327C96.4026 10.1913 98.1867 5.29943 99.4529 0.815194C99.4529 0.756957 99.4529 0.698721 99.3953 0.640484C99.3953 0.582247 99.3378 0.582247 99.2802 0.582247V0.582247ZM111.942 0.52401H101.928C101.813 0.52401 101.755 0.582247 101.755 0.698721V14.7338C101.755 14.8503 101.813 14.9085 101.928 14.9085H105.323C105.438 14.9085 105.496 14.8503 105.496 14.7338V3.90175H110.733C110.791 3.90175 110.906 3.84351 110.906 3.78528C111.309 2.85349 111.712 1.80522 112.114 0.815194V0.640484C112.057 0.582247 111.999 0.52401 111.942 0.52401Z" fill="#EE3F58"/>
<path d="M18.0139 12.1721C15.7694 12.1721 15.0787 11.5315 15.0787 7.74605C15.0787 3.66947 15.8269 3.32004 18.0139 3.32004C20.2009 3.32004 21.0066 3.66947 21.0066 7.74605C21.0066 11.5897 20.2585 12.1721 18.0139 12.1721V12.1721ZM18.0139 0.117014C13.122 0.117014 11.2227 2.21354 11.2227 7.68781C11.2227 13.2203 13.122 15.3751 18.0139 15.3751C22.9059 15.3751 24.8627 13.2203 24.8627 7.68781C24.8627 2.27178 22.9059 0.117014 18.0139 0.117014V0.117014ZM38.3299 11.5897C38.3299 11.5315 38.2724 11.4732 38.2148 11.4732H38.0422C37.2364 11.7644 35.6825 12.0556 34.589 12.0556C32.2294 12.0556 31.1359 11.415 31.1359 7.74605C31.1359 4.8342 31.4812 3.43652 34.589 3.43652C35.4523 3.43652 36.3156 3.55299 37.3515 3.90241C37.4091 3.90241 37.5242 3.90241 37.5818 3.78594C37.9846 3.02886 38.445 2.15531 38.963 0.990568V0.815857C38.963 0.75762 38.9055 0.699383 38.8479 0.699383C37.5242 0.291725 35.8552 0.0587769 34.4164 0.0587769C29.4669 0.0587769 27.2799 2.38825 27.2799 7.68781C27.2799 13.0456 29.4669 15.4333 34.4164 15.4333C35.625 15.4333 38.0997 15.1421 39.2508 14.6762C39.3659 14.618 39.3659 14.5598 39.3659 14.4433L38.3299 11.5897V11.5897ZM10.1868 0.524672H0.172657C0.0575525 0.524672 0 0.641146 0 0.75762V14.7927C0 14.9092 0.0575525 14.9674 0.172657 14.9674H3.56825C3.68336 14.9674 3.74091 14.9092 3.74091 14.7927V3.90241H8.97818C9.03574 3.90241 9.09329 3.84418 9.15084 3.78594C9.55371 2.85415 9.95658 1.80588 10.3594 0.815857V0.641146C10.3019 0.582909 10.2443 0.524672 10.1868 0.524672Z" fill="#1666B0"/>
<path d="M0 46.592V29.8857H5.41302C7.46427 29.8857 8.80138 29.9693 9.42435 30.1364C10.3816 30.3871 11.1831 30.9341 11.8289 31.7774C12.4746 32.6131 12.7975 33.6957 12.7975 35.0252C12.7975 36.0508 12.6114 36.9131 12.2391 37.6121C11.8669 38.311 11.392 38.8618 10.8146 39.2645C10.2449 39.6595 9.66367 39.9216 9.07108 40.0508C8.26578 40.2103 7.0996 40.2901 5.57256 40.2901H3.37317V46.592H0ZM3.37317 32.7118V37.4525H5.21929C6.54881 37.4525 7.43768 37.3651 7.88592 37.1904C8.33415 37.0157 8.68363 36.7422 8.93433 36.3699C9.19264 35.9976 9.32179 35.5646 9.32179 35.0708C9.32179 34.463 9.14326 33.9616 8.78619 33.5665C8.42912 33.1715 7.97708 32.9246 7.43008 32.8258C7.02743 32.7498 6.21833 32.7118 5.00277 32.7118H3.37317Z" fill="#1666B0"/>
<path d="M21.9598 42.7402L25.1506 43.2758C24.7404 44.4458 24.0908 45.3384 23.2019 45.9538C22.3206 46.5616 21.2152 46.8655 19.8857 46.8655C17.7813 46.8655 16.2239 46.1779 15.2134 44.8028C14.4157 43.7012 14.0169 42.3109 14.0169 40.632C14.0169 38.6263 14.5411 37.0575 15.5895 35.9255C16.6379 34.7859 17.9636 34.2161 19.5666 34.2161C21.3672 34.2161 22.7879 34.8125 23.8287 36.0052C24.8695 37.1904 25.3671 39.0099 25.3215 41.4638H17.2989C17.3217 42.4135 17.58 43.1542 18.0738 43.686C18.5676 44.2102 19.183 44.4723 19.9199 44.4723C20.4213 44.4723 20.843 44.3356 21.1849 44.0621C21.5267 43.7886 21.785 43.348 21.9598 42.7402ZM22.1421 39.5038C22.1193 38.5769 21.88 37.8742 21.4242 37.3955C20.9683 36.9093 20.4137 36.6662 19.7604 36.6662C19.0614 36.6662 18.484 36.9207 18.0282 37.4297C17.5724 37.9387 17.3483 38.6301 17.3559 39.5038H22.1421Z" fill="#1666B0"/>
<path d="M27.8628 34.4896H30.8029V44.0051H34.518V34.4896H37.4695V44.0051H41.1731V34.4896H44.1247V46.592H27.8628V34.4896Z" fill="#1666B0"/>
<path d="M49.7998 38.1818L46.8939 37.6576C47.2205 36.4877 47.7827 35.6216 48.5804 35.0594C49.3781 34.4972 50.5633 34.2161 52.1359 34.2161C53.5642 34.2161 54.6278 34.387 55.3268 34.7289C56.0257 35.0632 56.5157 35.4924 56.7968 36.0166C57.0855 36.5333 57.2299 37.4867 57.2299 38.877L57.1957 42.6148C57.1957 43.6784 57.2451 44.4648 57.3438 44.9738C57.4502 45.4752 57.6439 46.0146 57.925 46.592H54.757C54.6734 46.3793 54.5709 46.064 54.4493 45.6461C54.3961 45.4562 54.3581 45.3308 54.3353 45.2701C53.7883 45.8019 53.2034 46.2007 52.5804 46.4666C51.9574 46.7325 51.2927 46.8655 50.5861 46.8655C49.3402 46.8655 48.3563 46.5274 47.6346 45.8512C46.9204 45.1751 46.5634 44.3204 46.5634 43.2872C46.5634 42.6034 46.7267 41.9957 47.0534 41.4638C47.3801 40.9244 47.8359 40.5142 48.4209 40.2331C49.0135 39.9444 49.8644 39.6937 50.9736 39.481C52.4702 39.1999 53.5072 38.9378 54.0846 38.6947V38.3756C54.0846 37.7602 53.9327 37.3234 53.6288 37.0651C53.3249 36.7992 52.7513 36.6662 51.908 36.6662C51.3382 36.6662 50.8938 36.7802 50.5747 37.0081C50.2556 37.2284 49.9973 37.6197 49.7998 38.1818ZM54.0846 40.7801C53.6744 40.9168 53.0248 41.0802 52.1359 41.2701C51.2471 41.4601 50.6659 41.6462 50.3924 41.8285C49.9745 42.1248 49.7656 42.5009 49.7656 42.9567C49.7656 43.4049 49.9327 43.7924 50.267 44.1191C50.6013 44.4458 51.0267 44.6091 51.5434 44.6091C52.1207 44.6091 52.6715 44.4192 53.1958 44.0393C53.5832 43.7506 53.8377 43.3973 53.9593 42.9795C54.0428 42.706 54.0846 42.1856 54.0846 41.4183V40.7801Z" fill="#1666B0"/>
<path d="M67.4064 42.7402L70.5972 43.2758C70.1869 44.4458 69.5374 45.3384 68.6485 45.9538C67.7672 46.5616 66.6618 46.8655 65.3323 46.8655C63.2279 46.8655 61.6705 46.1779 60.66 44.8028C59.8623 43.7012 59.4635 42.3109 59.4635 40.632C59.4635 38.6263 59.9877 37.0575 61.0361 35.9255C62.0845 34.7859 63.4102 34.2161 65.0132 34.2161C66.8138 34.2161 68.2345 34.8125 69.2753 36.0052C70.3161 37.1904 70.8137 39.0099 70.7681 41.4638H62.7455C62.7683 42.4135 63.0266 43.1542 63.5204 43.686C64.0142 44.2102 64.6296 44.4723 65.3665 44.4723C65.8679 44.4723 66.2896 44.3356 66.6314 44.0621C66.9733 43.7886 67.2316 43.348 67.4064 42.7402ZM67.5887 39.5038C67.5659 38.5769 67.3266 37.8742 66.8708 37.3955C66.4149 36.9093 65.8603 36.6662 65.207 36.6662C64.508 36.6662 63.9306 36.9207 63.4748 37.4297C63.019 37.9387 62.7948 38.6301 62.8024 39.5038H67.5887Z" fill="#1666B0"/>
<path d="M73.1613 34.4896H77.127L80.1355 42.9225L83.1668 34.4896H87.1212V46.592H84.3975V38.6263L81.446 46.592H78.711L75.8963 38.6263V46.592H73.1613V34.4896Z" fill="#1666B0"/>
<path d="M96.876 34.4896H103.884C105.32 34.4896 106.395 34.7517 107.109 35.2759C107.824 35.8001 108.181 36.5902 108.181 37.6462C108.181 38.3224 107.983 38.9112 107.588 39.4126C107.201 39.914 106.711 40.2483 106.118 40.4154C106.954 40.6206 107.577 41.0042 107.987 41.5664C108.397 42.1286 108.602 42.744 108.602 43.4125C108.602 44.3546 108.257 45.1219 107.565 45.7145C106.874 46.2995 105.852 46.592 104.5 46.592H96.876V34.4896ZM100.101 39.5152H102.164C103.159 39.5152 103.877 39.3898 104.317 39.1391C104.766 38.8884 104.99 38.4933 104.99 37.9539C104.99 37.4449 104.781 37.084 104.363 36.8713C103.953 36.651 103.22 36.5408 102.164 36.5408H100.101V39.5152ZM100.101 44.5407H102.631C103.543 44.5407 104.207 44.4306 104.625 44.2102C105.043 43.9899 105.252 43.5949 105.252 43.0251C105.252 42.4325 105.013 42.026 104.534 41.8057C104.055 41.5778 103.125 41.4638 101.742 41.4638H100.101V44.5407Z" fill="#1666B0"/>
<path d="M110.973 34.4896H114.938L117.947 42.9225L120.978 34.4896H124.933V46.592H122.209V38.6263L119.257 46.592H116.522L113.708 38.6263V46.592H110.973V34.4896Z" fill="#1666B0"/>
<path d="M135.166 42.7402L138.357 43.2758C137.947 44.4458 137.297 45.3384 136.408 45.9538C135.527 46.5616 134.421 46.8655 133.092 46.8655C130.988 46.8655 129.43 46.1779 128.42 44.8028C127.622 43.7012 127.223 42.3109 127.223 40.632C127.223 38.6263 127.747 37.0575 128.796 35.9255C129.844 34.7859 131.17 34.2161 132.773 34.2161C134.573 34.2161 135.994 34.8125 137.035 36.0052C138.076 37.1904 138.573 39.0099 138.528 41.4638H130.505C130.528 42.4135 130.786 43.1542 131.28 43.686C131.774 44.2102 132.389 44.4723 133.126 44.4723C133.628 44.4723 134.049 44.3356 134.391 44.0621C134.733 43.7886 134.991 43.348 135.166 42.7402ZM135.348 39.5038C135.326 38.5769 135.086 37.8742 134.63 37.3955C134.175 36.9093 133.62 36.6662 132.967 36.6662C132.268 36.6662 131.69 36.9207 131.234 37.4297C130.779 37.9387 130.554 38.6301 130.562 39.5038H135.348Z" fill="#1666B0"/>
<path d="M151.382 38.0679L148.226 38.6377C148.119 38.0071 147.876 37.5323 147.496 37.2132C147.124 36.8941 146.638 36.7346 146.038 36.7346C145.24 36.7346 144.602 37.0119 144.123 37.5665C143.652 38.1135 143.417 39.0327 143.417 40.3243C143.417 41.7601 143.656 42.7744 144.135 43.367C144.621 43.9595 145.27 44.2558 146.083 44.2558C146.691 44.2558 147.189 44.0849 147.576 43.743C147.964 43.3935 148.237 42.7972 148.397 41.9539L151.542 42.4895C151.215 43.9329 150.588 45.0231 149.661 45.7601C148.735 46.497 147.492 46.8655 145.935 46.8655C144.165 46.8655 142.752 46.3071 141.696 45.1903C140.647 44.0735 140.123 42.5275 140.123 40.5522C140.123 38.5541 140.651 37.0005 141.707 35.8913C142.763 34.7745 144.191 34.2161 145.992 34.2161C147.466 34.2161 148.636 34.5352 149.502 35.1733C150.376 35.8039 151.002 36.7688 151.382 38.0679Z" fill="#1666B0"/>
<path d="M152.385 34.4896H163.336V37.0765H159.462V46.592H156.26V37.0765H152.385V34.4896Z" fill="#1666B0"/>
<path d="M172.271 42.7402L175.462 43.2758C175.051 44.4458 174.402 45.3384 173.513 45.9538C172.632 46.5616 171.526 46.8655 170.197 46.8655C168.092 46.8655 166.535 46.1779 165.524 44.8028C164.727 43.7012 164.328 42.3109 164.328 40.632C164.328 38.6263 164.852 37.0575 165.901 35.9255C166.949 34.7859 168.275 34.2161 169.878 34.2161C171.678 34.2161 173.099 34.8125 174.14 36.0052C175.181 37.1904 175.678 39.0099 175.633 41.4638H167.61C167.633 42.4135 167.891 43.1542 168.385 43.686C168.879 44.2102 169.494 44.4723 170.231 44.4723C170.732 44.4723 171.154 44.3356 171.496 44.0621C171.838 43.7886 172.096 43.348 172.271 42.7402ZM172.453 39.5038C172.43 38.5769 172.191 37.8742 171.735 37.3955C171.279 36.9093 170.725 36.6662 170.071 36.6662C169.372 36.6662 168.795 36.9207 168.339 37.4297C167.883 37.9387 167.659 38.6301 167.667 39.5038H172.453Z" fill="#1666B0"/>
</g>
<defs>
<clipPath id="clip0_2002_418">
<rect width="175.165" height="47.9085" fill="white"/>
</clipPath>
</defs>
</svg>
