<?xml version="1.0" encoding="utf-8"?>
<!-- Generator: Adobe Illustrator 21.0.2, SVG Export Plug-In . SVG Version: 6.00 Build 0)  -->
<svg version="1.1" id="Layer_1" xmlns="http://www.w3.org/2000/svg" xmlns:xlink="http://www.w3.org/1999/xlink" x="0px" y="0px"
	 width="1232.8px" height="172.4px" viewBox="0 0 1232.8 172.4" style="enable-background:new 0 0 1232.8 172.4;"
	 xml:space="preserve">
<style type="text/css">
	.st0{opacity:0.32;fill:#B33034;}
</style>
<path class="st0" d="M1220.9,133.2V87.6h-8.3l-2.2-2.2h-26.9l-1.7,1.7h-7.9v15.3h-22.8v38.3h-7.9v-12.4h-16.2v22.6h-12.6v-14.6h-4.3
	c0-1.4-2.4-5.7-10.6-5.7c-8.2,0-8.3,6.5-8.3,6.5h-6.8v11.9h-10.1v3.9h-10v5h-9v18.2h-10.3v-21.2h-7.8V151h-3.3v-3.9h-5.4
	c-0.4,0,0,2.5,0,2.5h-3.8v3.7h-12.5v4h-4.7v6.5h-3.9V160H995v11.1h-4.7v13.6h-4.2v-58.2H981v-5.3h-4.7v-2.8h-6v3.2h-3.1v2.8h-5.4
	v3.3h-4.3v6.7h-9.2v3.5c0,0.4-3.3,0-3.3,0v50.4h-5.8v-53h-11.7v-8.9h-15.7v5.8h-6.9v2.9h-0.6v34.8h-14.6v-23.3h-5V136h-4.8v-3.8h-18
	v16.9h-13.3v5.3h-15.1v-7.2h-27.7v6.4v14.6h-5.4v-8.9h-35.4v12.3H755v-8h-8.9v-10.6h-29v16.5h-7.9v-27.5h-7.5v-5.7h-26.7v-5.3h-45.5
	v8.3h-7.7v16.9h-9.1V150h-9.1v-4.9h-22.8l-3.3-3.2h-11.8l-3-2.9h-10v3.7H549v22h-6.4V129h-4.8v-3.6H525V97.5h-8.7v-4h-9.7v-8h-21.9
	v12.1h-16.2v72.4h-8.1v-68.8c0,0-4.6,0.6-4.6,0v-4.7H443v-9.1h-6v-4.6h-7.5v-3.8h-4.3v-4.4h-8.3v3.8h-6.6v7.2h-7.2v79.5h-5.8v-18.6
	h-6.6v-15.2H379v5.3h-5.4v-8.9H367v-5.5h-17.4v-5.1h-5.2c0,0,0.6-3.4,0-3.4h-7.5v5.3h-4.6v5.3h-10.8v29h-10.8v-25.9l4.5-5.8v-1.9
	l2.4-4.3h-12.3v-2.1c3.2-1,5.6-3.9,5.6-7.5c0-3.4-2.1-6.2-5.1-7.3c0.1-0.3,0.1-0.7-0.2-0.8c-0.5-0.2-1.5-0.2-1.6-0.4
	c-0.1-0.2-0.5-1.9-0.9-2.4c-0.4-0.5-0.4-1-1-1.2c-0.6-0.2-1.3-2-2-2.4c-0.7-0.4-0.3-1.8-2.2-2.7c-1.3-0.5-1.8-0.2-1.8-0.2
	s-0.2-0.7,0-1.2c0.2-0.4,0.8-1.2,0.2-2.1c-0.5-0.9-0.6-0.7-1.1-1.4c-0.5-0.7-0.9-1.7-1.8-1.8c-0.9-0.2-1.4,0.6-1.4,0.6
	s-0.6-0.2-0.9,0.1c-0.3,0.3-0.4,0.9-0.3,1.4c0.1,0.5-0.6,1-0.7,1.4c-0.1,0.4,0.2,0.7,0.2,1.2c-0.1,0.5-0.8,1.8,0,2.4
	c0.6,0.4,1,0.5,1,0.5l0.1,1.6c0,0-1.8-0.1-2.4,0.9c-0.6,1.1-1.3,1.9-2.3,2.1c-0.9,0.2-1.6-0.1-2.2,0.6c-0.6,0.6-0.9,1-0.9,1
	s-0.7-0.1-0.5-0.8c0.2-0.7,0.4-1.6,0-1.7c-0.5-0.1-0.9,0.6-1,0.3c-0.1-0.2,0-1.3,0-1.3h0.9v-1.7h-1.7L281,89c0,0,0.5-0.2,0.4-0.8
	c-0.2-0.6-0.5-1.3-0.8-1.6c-0.3-0.3,0.4-0.3-0.3-0.3s-1.2-0.2-1.6,0.2c-0.4,0.5-0.2,1.1-0.2,1.4c0,0.3-0.2,0.7-0.4,1.4
	c-0.2,0.7-0.2,1.7-0.2,2.2c0.1,0.5,0.5,1.3,0.5,1.3s-1.4-0.3-1.9-0.6c-0.5-0.3-1.3-1.4-2.3-1.5c0.2-1.2,0.6-1.9,0.4-2.6
	c-0.2-0.7-0.6-1.5-0.3-1.6c0.3-0.2,0.8-0.6,0.7-1.3c-0.1-0.7-0.1-0.7-0.4-1.3c-0.3-0.5-0.8-0.9-0.9-1.4c-0.1-0.4,0.4-0.6-0.7-1.3
	c-1.1-0.7-2.5-2-2.5-2s0.2-0.7,0.6-0.7c0.4,0.1,0.5,0.6,1.2,0.3c0.7-0.3,0.9-0.7,1-1.2c0.1-0.5,0.5-1.1,0.5-1.1l0.6-0.1
	c0,0-0.1-0.7,0.1-1.1s0.3-0.7,0.3-1c0-0.4,0.5-0.1,0.5-0.7c0-0.5,0.1-1.5-1-2.3c-1.1-0.8-2.4-1.8-3.8-1.1s-1.9,1.5-2,2.5
	s-0.7,1.2-0.9,1.6c-0.1,0.5,0,1,0,1l-0.3,0.5c0,0-1.2-1.5-1.9-3.3c-0.7-1.7-1-3-1.6-3.4c0.7-1.4,1.1-2.9,1.3-4.6
	c0.2-1.7,0.2-2.7,0.7-2.7c0.5,0,1.4,0,2.3-0.6c0.8-0.5,1.4-0.5,1.6-0.8c0.2-0.3,0.3-1.2-0.5-0.9c-0.8,0.3-1.5,1.1-1.7,0.7
	c-0.2-0.4-0.4-0.5,0.1-1.2c0.5-0.8,1.2-1.8,0.4-2.2c-0.8-0.4-3.7-0.6-4.3,1.1c-0.6,1.8,0.1,2.4-0.4,3.3c-0.5,0.9-1.4,3.3-1.8,4.1
	c-0.4,0.8-0.6,2.7-0.6,3.4c0,0.7-0.4,0.3,0,1.6c0.1,0.5,0.1,2.4,0,2.9c-0.1,0.5,0,1.7,0.6,3.3c0.5,1.6,1.1,2.9,0.9,4.3
	c-0.2,1.4-0.2,2.9,0.8,4.3c0.5,0.4,0.5,2.3,0.5,2.3s-1.4,2.1-1.3,4.3c0.1,2.1,0,4.3-0.6,5.9c-0.6,1.6-2.6,3.3,0.1,4.6
	c-0.6,1.6-1.9,4.7-1.8,5.7c0.1,1,0.1,0.6,0,1.4c-0.1,0.9,0.6,1.3,0.6,1.3l-0.2,1.9H255v2.5h-12.3l2.4,4.3v1.9l4.5,5.8v26.1h-3.5
	l-2.9,2.1v8.3h-5.5v-16.7h-10.3h-0.9H221v7.7h-2.3v-7.7h0h-6.4h-0.1v7.7H210v-7.7h0h-6.4h-0.1v7.7h-2.3v-7.7h0h-6.4h-0.1v7.7h-2.3
	v-7.7h0h-6.4H186v7.7h-2.3v-7.7h0h-6.4h-0.1v7.7H175v-7.7h0h-6.4h-0.1v7.7h-2.3v-7.7h-6.4v-16.5h-5.2v7.5h-1.5v-7.5h-2.6h-2.6v7.5
	h-1.5v-7.5h-0.1h-5.1h-0.1v7.5h-1.5v-7.5h-2.6h-2.6v7.5h-1.5v-7.5h-0.1h-5.1h-0.1v7.5H126v-7.5h-2.6h-1.1l-0.7-27.8l2.6-10.1V69.4
	l1-2.5l-4.5-3.3H96.9V57l2.3-2.3h-4.3L65.5,16L36.1,54.7h-4.3l2.3,2.3v6.6H10.3l-4.5,3.3l1,2.5V93L9.4,103l-1.2,43.9L0,172h50.2
	v-19.9c0-5,4.5-11.4,15.3-11.4c10.8,0,15.3,6.4,15.3,11.4V172h34H131h28.8h4.6v-3.5c0-5.8,5.8-8.1,8.2-8.1c2.3,0,8.2,2.3,8.2,8.1
	v3.5h6v-3.5c0-5.8,5.8-8.1,8.2-8.1c2.3,0,8.2,2.3,8.2,8.1v3.5h6v-3.5c0-5.8,5.8-8.1,8.2-8.1c2.3,0,8.2,2.3,8.2,8.1v3.5h6l-0.2,0.4
	h48.8h30.2v11.9h593.9h0.6h328v-51H1220.9z M270,110.5c0,0-1.2,1.2-2.2,1.1c-1,0-1.7-0.1-2.5,0c-0.9,0.1-1.2,0-1.2,0s0.2,0,0.4-0.5
	c0.2-0.4,0.2-1.5,0.4-2.4c0.2-0.8,0.4-1.2,0.4-1.9s-0.2-2.3,0.4-3.1c0.1-0.1,1,0.4,1.8,0.3c0.8,0,1.1-0.2,1.9-0.2c0.7,0,1,0,1.1,0
	C270.5,104,270,110.5,270,110.5 M279.2,112.4c-0.1,0.1-0.6-0.8-1.1-0.9c-0.5-0.1-0.7-0.2-0.6-0.8c0.1-0.6,0.4-0.7,0.5-1.3
	c0.1-0.5-0.2-0.7,0.1-1.1c0.3-0.4,0.8-0.6,1-0.4c0.2,0.2,0.5,0.3,0.5,0.3S279.5,112,279.2,112.4 M280.2,102.9
	c-0.4,0-0.8-0.5-1.1-0.2c-0.3,0.3-0.4,0.6-0.9,0.7c-0.6,0.1-1.3,0.3-1.3,0.3s0.5-1.5,0.2-1.9c-0.2-0.4-0.9-1.3-0.8-2
	s1.2-1.7,0.7-2.4c-0.6-0.7-1.3-1-1.2-1.8c0-0.7,0.2-0.7,0.2-0.7l3.5,0.7c0,0,0.5,1.1,0.6,1.1c0.1,0.1,0.9,5.9,0.9,5.9
	S280.6,102.9,280.2,102.9 M284.1,102.7c0,0-0.3-0.8-0.7-0.9c-0.2-0.9-0.5-2.8-0.5-2.8h1.3l0.3,3.4L284.1,102.7z M298.1,99.9
	c-0.1-0.3-0.3-0.6-0.3-0.8c-0.1-0.3,0.7-0.5,1.1-1.1c0.4-0.6,0.2-1.5-0.2-2.2c-0.3-0.7,0-1,0-1s1,0.2,1,0.9c0,0.8,1.1,2.1,1.6,2.7
	C300.2,98.7,299.1,99.2,298.1,99.9"/>
</svg>
