<?xml version="1.0" encoding="utf-8"?>
<!-- Generator: Adobe Illustrator 19.1.0, SVG Export Plug-In . SVG Version: 6.00 Build 0)  -->
<svg version="1.1" id="Слой_1" xmlns="http://www.w3.org/2000/svg" xmlns:xlink="http://www.w3.org/1999/xlink" x="0px" y="0px"
	 width="87px" height="94px" viewBox="14 -17 87 94" style="enable-background:new 14 -17 87 94;" xml:space="preserve">
<style type="text/css">
	.st0{fill:#E94B3D;}
</style>
<path class="st0" d="M57.5-13c2.4,0,4.7,0.4,6.3,1.1c0.1,0,6.4,2.9,13.4,7c6.9,4.1,12.6,8.3,12.6,8.3c3,2.2,5.9,7.5,6.3,11.2
	c0,0.1,0.7,7.1,0.7,15.3s-0.7,15.3-0.7,15.3c-0.4,3.8-3.4,9-6.3,11.2c-0.1,0-5.7,4.2-12.6,8.3c-6.9,4.1-13.3,7-13.4,7
	c-1.6,0.7-3.9,1.1-6.3,1.1s-4.7-0.4-6.3-1.1c-0.1,0-6.4-2.9-13.4-7c-6.9-4.1-12.6-8.3-12.6-8.3c-3-2.2-5.9-7.5-6.3-11.2
	c-0.2,0-0.9-7.1-0.9-15.2s0.7-15.3,0.7-15.3c0.4-3.8,3.4-9,6.3-11.2c0.1,0,5.7-4.2,12.6-8.3s13.3-7,13.4-7
	C52.8-12.6,55.1-13,57.5-13 M57.5-17c-2.9,0-5.8,0.5-7.9,1.5c0,0-6.5,2.9-13.8,7.2c-7.2,4.3-13,8.5-13,8.5c-3.9,2.9-7.4,9.2-7.9,14
	c0,0-0.8,7.2-0.8,15.8c0,8.5,0.8,15.8,0.8,15.8c0.5,4.8,4.1,11.1,7.9,14c0,0,5.8,4.3,13,8.6s13.8,7.2,13.8,7.2
	c2.2,1,5.1,1.5,7.9,1.5s5.8-0.5,7.9-1.5c0,0,6.5-2.9,13.8-7.2c7.2-4.3,13-8.6,13-8.6c3.9-2.9,7.4-9.2,7.9-14c0,0,0.8-7.2,0.8-15.8
	c0-8.5-0.8-15.8-0.8-15.8c-0.5-4.8-4.1-11.1-7.9-14c0,0-5.8-4.3-13-8.5c-7.2-4.3-13.8-7.2-13.8-7.2C63.2-16.5,60.4-17,57.5-17z"/>
<g>
	<path class="st0" d="M70.5,31.7L54.4,47.9c-1.1,1.1-2.6,1.1-3.7,0c-1.1-1.1-1.1-2.6,0-3.7L65,29.9L50.7,15.6
		c-1.1-1.1-1.1-2.6,0-3.7c1.1-1.1,2.6-1.1,3.7,0l16.2,16.2c0.5,0.5,0.8,1.2,0.8,1.8C71.1,30.5,71,31.1,70.5,31.7z"/>
</g>
</svg>
