<?xml version="1.0" encoding="utf-8"?>
<!-- Generator: Adobe Illustrator 21.0.2, SVG Export Plug-In . SVG Version: 6.00 Build 0)  -->
<svg version="1.1" id="Layer_1" xmlns="http://www.w3.org/2000/svg" xmlns:xlink="http://www.w3.org/1999/xlink" x="0px" y="0px"
	 width="57.3px" height="75px" viewBox="0 0 57.3 75" style="enable-background:new 0 0 57.3 75;" xml:space="preserve">
<style type="text/css">
	.st0{fill:#FFFFFF;}
	.st1{fill:#FFCE31;}
	.st2{fill:#C49E33;}
	.st3{fill:#A36F2F;}
	.st4{fill:#E0AD2F;}
	.st5{fill:none;stroke:#000000;stroke-width:0.101;stroke-miterlimit:10;}
	.st6{fill:#D89F2E;}
	.st7{fill:#C1751B;}
	.st8{fill:#C9992D;}
	.st9{fill:#8C6F26;}
	.st10{fill:#6D4521;}
	.st11{fill:#CD201A;}
	.st12{fill:#FCF43A;}
	.st13{fill:#B71515;}
	.st14{fill:none;stroke:#CD201A;stroke-width:0.1262;stroke-miterlimit:10;}
	.st15{fill:#9B1515;}
</style>
<g>
	<path class="st0" d="M28.7,67.8c0-4,4.6-4.5,4.6-4.5h10.9c0,0,3.6-0.6,3.6-4.9V19.2H28.7H9.5v39.2c0,4.3,3.6,4.9,3.6,4.9h10.9
		C24.1,63.3,28.7,63.8,28.7,67.8z"/>
	<path d="M28.8,67.8h-0.3c0-3.4-3.5-4.2-4.5-4.3c0,0,0,0,0,0l-10.9,0c0,0-3.7-0.7-3.7-5V19.1H48v39.3c0,4.3-3.7,5-3.7,5l0,0H33.3
		C33.2,63.5,28.8,64,28.8,67.8z M24.1,63.2c0.7,0.1,3.9,0.8,4.6,3.5c0.7-3,4.6-3.5,4.6-3.5l10.9,0c0.3,0,3.5-0.7,3.5-4.8v-39H9.6v39
		c0,4,3.3,4.7,3.5,4.8L24.1,63.2L24.1,63.2z"/>
</g>
<g id="Слой_2_1_">
	<g>
		<path class="st1" d="M31.8,0.1l-0.2,7.2l1,0.1l0.4-6.1l1.2-0.9c4.1,0.6,4.9,1.1,4.9,1.1l-1.3,6.8l0.7,0.2l1.1-5.3l1.7-1.2L46.2,4
			c0,0-2.4,5.1-2.7,6.6c0,0-1.4,4.7-1.4,6.2c0,0,0.3,1.6-13.4,1.6s-13.4-1.6-13.4-1.6c0-1.5-1.4-6.2-1.4-6.2C13.7,9.1,11.3,4,11.3,4
			l4.8-2.1l1.7,1.2l1.1,5.3l0.7-0.2l-1.3-6.8c0,0,0.7-0.5,4.9-1.1l1.2,0.9l0.4,6.1l1-0.1l-0.2-7.2C28.6,0,31.8,0.1,31.8,0.1z"/>
		<path d="M28.7,18.5c-10.9,0-13-1-13.4-1.5c-0.1-0.1-0.1-0.2-0.1-0.2c0-1.5-1.3-6.1-1.4-6.1c-0.3-1.4-2.6-6.5-2.7-6.6l0,0l4.8-2.1
			l1.8,1.3l1.1,5.2l0.6-0.2l-1.3-6.8l0,0c0,0,0.8-0.5,4.9-1.1l0,0l1.2,1l0,0l0.4,6l0.9-0.1L25.5,0l0.1,0c3-0.1,6.2,0,6.3,0l0.1,0
			l-0.2,7.2l0.9,0.1L33,1.3l1.2-1l0,0c4.1,0.6,4.9,1.1,4.9,1.1l0,0l-1.3,6.8l0.6,0.2l1.1-5.2l1.8-1.3L46.2,4l0,0
			c0,0.1-2.4,5.1-2.7,6.6c0,0.1-1.4,4.7-1.4,6.2c0,0,0,0.1-0.1,0.2C41.7,17.4,39.7,18.5,28.7,18.5z M11.4,4.1
			c0.3,0.5,2.4,5.1,2.7,6.5c0.1,0.2,1.4,4.7,1.4,6.2c0,0,0,0.1,0.1,0.1c0.4,0.4,2.5,1.4,13.3,1.4c10.8,0,12.9-1,13.3-1.4
			c0.1-0.1,0.1-0.1,0.1-0.1c0-1.5,1.3-6,1.4-6.2c0.3-1.4,2.4-6,2.7-6.5L41.4,2l-1.7,1.2l-1.1,5.3l-0.8-0.2l0,0l1.3-6.8
			c-0.2-0.1-1.2-0.5-4.8-1.1l-1.2,0.9l-0.4,6.1l-1.1-0.1l0.2-7.2c-0.4,0-3.4-0.1-6.2,0l0.2,7.2l-1.1,0.1l0-0.1l-0.4-6.1l-1.2-0.9
			c-3.6,0.6-4.6,1-4.8,1.1l1.3,6.9l-0.8,0.2l-1.1-5.3L16.1,2L11.4,4.1z"/>
	</g>
	<polygon class="st2" points="16,2 17.6,8.8 18.8,8.5 17.7,3.2 	"/>
	<polygon class="st2" points="41.4,2 39.8,8.8 38.6,8.5 39.7,3.2 	"/>
	<polygon class="st3" points="23.1,0.4 23.9,7.4 24.7,7.4 24.3,1.3 	"/>
	<rect x="16.8" y="1.9" transform="matrix(0.9742 -0.2255 0.2255 0.9742 -0.7734 3.9343)" width="0.1" height="7"/>
	<rect x="23.5" y="0.4" transform="matrix(0.9938 -0.111 0.111 0.9938 -0.2869 2.6362)" width="0.1" height="7"/>
	<rect x="37.1" y="5.3" transform="matrix(0.2256 -0.9742 0.9742 0.2256 26.2161 43.6838)" width="7" height="0.1"/>
	<rect x="30.3" y="3.8" transform="matrix(0.1109 -0.9938 0.9938 0.1109 26.247 37.1012)" width="7.1" height="0.1"/>
	<polygon points="14.4,6.3 13.2,3.2 13.3,3.2 14.5,6.2 	"/>
	<rect x="12.6" y="6.5" transform="matrix(0.9127 -0.4087 0.4087 0.9127 -1.5108 6.1194)" width="2" height="0.1"/>
	<rect x="12.7" y="6.6" transform="matrix(0.9196 -0.3927 0.3927 0.9196 -1.4151 6.3746)" width="4.4" height="0.1"/>
	<rect x="14.8" y="5.6" transform="matrix(0.9237 -0.3831 0.3831 0.9237 -0.9514 6.4945)" width="2.1" height="0.1"/>
	<rect x="14.3" y="2.8" transform="matrix(0.9387 -0.3448 0.3448 0.9387 -0.6627 5.2243)" width="0.1" height="3.3"/>
	<g>
		<path class="st4" d="M20.4,0.8L21,4.2c0,0-0.8,0.2-2.1,0.5l0.1,0.5c0,0,1-0.4,4.6-1l-0.1-0.5c0,0-1.4,0.2-1.9,0.3l-0.6-3.4
			C21,0.7,20.8,0.8,20.4,0.8z"/>
		<path d="M19,5.3l-0.1-0.6l0,0c1.1-0.3,1.8-0.5,2-0.5l-0.6-3.4l0,0c0.2,0,0.4-0.1,0.5-0.1c0.1,0,0.1,0,0.2,0l0.1,0L21.8,4
			c0.5-0.1,1.8-0.3,1.8-0.3l0.1,0l0.1,0.6l0,0C20.1,4.9,19.1,5.3,19,5.3L19,5.3z M19,4.8l0.1,0.4c0.3-0.1,1.4-0.4,4.5-0.9l-0.1-0.4
			c-0.3,0-1.4,0.2-1.8,0.3l-0.1,0l-0.6-3.4c0,0-0.1,0-0.1,0c-0.1,0-0.3,0.1-0.4,0.1l0.6,3.4l0,0C21,4.3,20.2,4.5,19,4.8z"/>
	</g>
	<g>
		<path class="st4" d="M28.3,0.1l0,3.4c0,0-2.3,0-2.7,0l0,0.7c0,0,2.3-0.3,6.1,0l0-0.7c0,0-2.1-0.1-2.9-0.1V0.1
			C28.9,0.1,28.3,0.1,28.3,0.1z"/>
		<path d="M25.6,4.3l0-0.8l0,0c0.3,0,2.3,0,2.6,0l0-3.4H29v3.4c0.8,0,2.8,0.1,2.8,0.1l0,0l0,0.8l-0.1,0C28,4,25.7,4.3,25.6,4.3
			L25.6,4.3z M28.5,4c0.9,0,2,0,3.2,0.1l0-0.6c-0.3,0-2.1-0.1-2.8-0.1h-0.1V0.1h-0.5l0,3.4l-0.1,0c0,0-2.1,0-2.6,0l0,0.6
			C26,4.1,26.9,4,28.5,4z"/>
	</g>
	<rect x="41.9" y="4.7" transform="matrix(0.3694 -0.9293 0.9293 0.3694 23.0789 43.4637)" width="3.2" height="0.1"/>
	<rect x="43.8" y="5.6" transform="matrix(0.4143 -0.9102 0.9102 0.4143 19.6709 43.769)" width="0.1" height="2"/>
	<rect x="42.5" y="4.4" transform="matrix(0.3915 -0.9202 0.9202 0.3915 19.7593 43.1718)" width="0.1" height="4.4"/>
	<rect x="41.5" y="4.6" transform="matrix(0.3808 -0.9247 0.9247 0.3808 20.53 41.9283)" width="0.1" height="2.1"/>
	<polygon points="42.5,6 42.4,6 43.6,2.9 43.7,3 	"/>
	<g>
		<path class="st4" d="M37,0.8l-0.6,3.4c0,0,0.8,0.2,2.1,0.5l-0.1,0.5c0,0-1-0.4-4.6-1l0.1-0.5c0,0,1.4,0.2,1.9,0.3l0.6-3.4
			C36.4,0.7,36.6,0.8,37,0.8z"/>
		<path d="M38.4,5.3L38.4,5.3c-0.1,0-1.1-0.4-4.6-1l0,0l0.1-0.6l0.1,0c0,0,1.3,0.2,1.8,0.3l0.6-3.4l0.1,0c0,0,0.2,0.1,0.7,0.1l0,0
			l-0.6,3.4c0.2,0,0.9,0.2,2,0.5l0,0L38.4,5.3z M33.8,4.3c3,0.5,4.2,0.9,4.5,0.9l0.1-0.4c-1.2-0.3-2-0.5-2-0.5l0,0l0.6-3.4
			c-0.2,0-0.4-0.1-0.6-0.1l-0.6,3.4l-0.1,0c-0.4-0.1-1.5-0.3-1.8-0.3L33.8,4.3z"/>
	</g>
	<g>
		<path class="st4" d="M28.6,7.1c8.7,0,14.9,3.1,14.9,3.1l-0.1,0.5c0,0-5.9-2.9-14.8-2.9S14,10.7,14,10.7l-0.1-0.5
			C13.8,10.2,19.9,7.1,28.6,7.1z"/>
		<path d="M43.5,10.8L43.5,10.8c-0.1-0.1-6-3-14.8-3c-8.8,0-14.6,2.8-14.6,2.9l-0.1,0l-0.2-0.6h0.1l0,0c1.1-0.5,6.8-3,14.8-3
			c8.6,0,14.9,3,15,3.1l0,0L43.5,10.8z M28.6,7.8c8.4,0,14.1,2.6,14.8,2.9l0.1-0.4c-0.5-0.3-6.6-3-14.9-3c-7.9,0-13.6,2.5-14.7,3
			l0.1,0.4C14.6,10.3,20.3,7.8,28.6,7.8z"/>
	</g>
	<rect x="17.5" y="4.7" transform="matrix(0.3373 -0.9414 0.9414 0.3373 6.4405 20.1693)" width="0.1" height="1.6"/>
	<rect x="17.6" y="5.2" transform="matrix(0.2346 -0.9721 0.9721 0.2346 7.7162 21.7155)" width="0.1" height="1.5"/>
	<rect x="24" y="3.5" transform="matrix(0.5905 -0.807 0.807 0.5905 6.4544 21.1022)" width="0.1" height="1.3"/>
	<rect x="24" y="4.1" transform="matrix(0.5643 -0.8256 0.8256 0.5643 6.625 21.919)" width="0.1" height="1.2"/>
	<rect x="39.1" y="5.5" transform="matrix(0.9396 -0.3424 0.3424 0.9396 0.525 13.9813)" width="1.6" height="0.1"/>
	<rect x="39" y="5.9" transform="matrix(0.9719 -0.2352 0.2352 0.9719 -0.2859 9.5188)" width="1.5" height="0.1"/>
	<rect x="32.7" y="4.1" transform="matrix(0.8067 -0.5909 0.5909 0.8067 3.9762 20.5388)" width="1.3" height="0.1"/>
	<path class="st5" d="M32.8,5"/>
	<path class="st5" d="M33.8,4.3"/>
	<g>
		<path class="st6" d="M41.8,17c0,0.6-2.2,1.3-13.3,1.3c-10.9,0-13.3-0.7-13.3-1.3c0-0.6,3.8-2.4,13.4-2.4
			C38.3,14.6,41.8,16.4,41.8,17z"/>
		<path d="M28.5,18.4c-9,0-13.3-0.4-13.3-1.4c0-0.7,4-2.5,13.4-2.5c9.4,0,13.2,1.7,13.2,2.5c0,0.4-0.8,0.7-2.5,0.9
			C37.2,18.2,33.5,18.4,28.5,18.4z M28.7,14.6c-5.2,0-8.5,0.5-10.3,1c-2.2,0.5-3.1,1.1-3.1,1.4c0,0.6,2.3,1.3,13.2,1.3
			c10.9,0,13.2-0.7,13.2-1.3c0-0.3-0.8-0.9-2.9-1.4C37.1,15.2,33.9,14.6,28.7,14.6z"/>
	</g>
	<g>
		<path class="st7" d="M40.3,16.7c0,0.4-1.9,1-11.8,1c-9.2,0-11.6-0.5-11.6-1c0-0.5,2.7-1.5,11.6-1.5C37.9,15.3,40.3,16.3,40.3,16.7
			z"/>
		<path d="M28.5,17.8c-5.3,0-11.6-0.2-11.6-1.1c0-0.6,3.2-1.5,11.6-1.5c9.3,0,11.8,1,11.8,1.5C40.3,17.4,36.4,17.8,28.5,17.8z
			 M28.5,15.3c-8.6,0-11.5,1-11.5,1.4c0,0.2,0.8,1,11.5,1c10.2,0,11.7-0.6,11.7-1C40.2,16.4,38.1,15.3,28.5,15.3z"/>
	</g>
	<rect x="15.9" y="9.9" transform="matrix(0.9595 -0.2815 0.2815 0.9595 -2.4593 4.9332)" width="0.1" height="2.2"/>
	<rect x="16.3" y="9.8" transform="matrix(0.9683 -0.2497 0.2497 0.9683 -2.1818 4.4232)" width="0.1" height="2.1"/>
	<rect x="21.8" y="8.4" transform="matrix(0.9871 -0.1601 0.1601 0.9871 -1.2474 3.6156)" width="0.1" height="2.4"/>
	<path class="st5" d="M22.5,10.7"/>
	<path class="st5" d="M22.2,8.3"/>
	<rect x="28.2" y="7.8" width="0.1" height="1.8"/>
	<rect x="34.1" y="9.2" transform="matrix(0.1672 -0.9859 0.9859 0.1672 20.0271 42.2643)" width="1.9" height="0.1"/>
	<rect x="34.6" y="9.3" transform="matrix(0.1984 -0.9801 0.9801 0.1984 19.3704 42.4014)" width="1.9" height="0.1"/>
	<rect x="40" y="10.8" transform="matrix(0.3226 -0.9465 0.9465 0.3226 17.5177 46.175)" width="2" height="0.1"/>
	<path class="st5" d="M41,11.8"/>
	<path class="st5" d="M41.7,10"/>
	<g>
		<polygon class="st8" points="15.6,10 16.3,12.1 16.7,12 16.1,9.8 		"/>
		<path d="M16.2,12.2L15.6,10l0.6-0.2l0.6,2.3L16.2,12.2z M15.7,10l0.6,2l0.3-0.1l-0.6-2.1L15.7,10z"/>
	</g>
	<g>
		<polygon class="st4" points="13.3,3.2 14.5,6.2 12.7,7 12.9,7.5 16.9,5.8 16.8,5.2 14.9,6 13.8,2.9 		"/>
		<path d="M12.8,7.6L12.6,7l1.8-0.8l-1.2-3l0.6-0.3L15,6l1.9-0.8L17,5.8L12.8,7.6z M12.7,7l0.2,0.4l4-1.7l-0.1-0.4l-1.9,0.8L13.8,3
			l-0.4,0.2l1.2,3L12.7,7z"/>
	</g>
	<g>
		<polygon class="st9" points="16.9,5.8 18.4,6.2 18.3,5.8 16.8,5.2 		"/>
		<path d="M18.5,6.3l-1.6-0.4l-0.1-0.7l1.6,0.6L18.5,6.3z M17,5.8l1.3,0.4l-0.1-0.3l-1.4-0.5L17,5.8z"/>
	</g>
	<g>
		<polygon class="st4" points="44.2,3.2 43,6.2 44.8,7 44.6,7.5 40.5,5.8 40.6,5.2 42.5,6 43.6,2.9 		"/>
		<path d="M44.6,7.6l-4.2-1.8l0.2-0.6L42.5,6l1.1-3.1l0.6,0.3l-1.2,3L44.8,7L44.6,7.6z M40.6,5.8l4,1.7L44.7,7l-1.8-0.8l1.2-3
			L43.7,3l-1.1,3.1l-1.9-0.8L40.6,5.8z"/>
	</g>
	<g>
		<polygon class="st9" points="40.5,5.8 39,6.2 39.1,5.7 40.6,5.2 		"/>
		<path d="M39,6.3l0.1-0.5l1.6-0.6l-0.2,0.7L39,6.3z M39.2,5.8l-0.1,0.3l1.3-0.4l0.1-0.5L39.2,5.8z"/>
	</g>
	<g>
		<polygon class="st10" points="23.5,3.8 23.6,4.3 24.6,5 24.5,4.6 		"/>
		<path d="M24.6,5.2l-1.1-0.8l-0.1-0.7l1.1,0.8L24.6,5.2z M23.7,4.3l0.9,0.6l0-0.3l-0.9-0.7L23.7,4.3z"/>
	</g>
	<g>
		<polygon class="st8" points="33.9,3.8 33.8,4.3 32.9,5 32.9,4.5 		"/>
		<path d="M32.8,5.1l0-0.6l1.1-0.8l-0.1,0.7L32.8,5.1z M32.9,4.6l0,0.4l0.9-0.6l0-0.4L32.9,4.6z"/>
	</g>
	<g>
		<polygon class="st8" points="21.6,8.4 22,10.5 22.4,10 22.2,8.3 		"/>
		<path d="M22,10.7l-0.4-2.3l0.7-0.1l0.3,1.8L22,10.7z M21.7,8.4l0.4,2l0.3-0.4l-0.2-1.7L21.7,8.4z"/>
	</g>
	<g>
		<polygon class="st8" points="28.3,7.8 28.3,9.4 28.9,9.4 28.9,7.8 		"/>
		<path d="M29,9.5l-0.8,0V7.7l0.8,0V9.5z M28.3,9.3l0.6,0V7.9l-0.6,0V9.3z"/>
	</g>
	<g>
		<polygon class="st8" points="35.1,8.3 34.8,10.1 35.4,10.2 35.8,8.4 		"/>
		<path d="M35.5,10.3l-0.7-0.1l0.3-1.9l0.8,0.1L35.5,10.3z M34.9,10.1l0.5,0.1l0.4-1.7l-0.6-0.1L34.9,10.1z"/>
	</g>
	<g>
		<polygon class="st8" points="41.2,11.8 41.9,10.1 41.3,9.9 40.7,11.6 		"/>
		<path d="M41.3,11.8l-0.7-0.2l0.7-1.8l0.6,0.2L41.3,11.8z M40.7,11.6l0.5,0.1l0.6-1.6L41.4,10L40.7,11.6z"/>
	</g>
	<g id="Слой_3">
		<g>
			<path class="st1" d="M13.7,15.1c0,0-0.5-0.2-0.6-1.3c0,0,1-1.3,0.9-1.7C14,12.1,16.1,14.5,13.7,15.1z"/>
			<path d="M13.7,15.1L13.7,15.1c0,0-0.6-0.3-0.6-1.4l0,0l0,0c0.3-0.3,1-1.3,0.9-1.6l0-0.1l0.1,0.1c0,0,1,1.1,0.9,2
				C14.9,14.6,14.5,15,13.7,15.1L13.7,15.1z M13.2,13.8c0,0.9,0.5,1.2,0.5,1.3c0.6-0.1,0.9-0.4,1.1-0.8c0.2-0.7-0.5-1.7-0.7-2
				C14,12.7,13.3,13.6,13.2,13.8z"/>
		</g>
		<g>
			<path class="st1" d="M16.1,13.7c1.5-1.3,0.8-2.6,0.8-2.6s-0.8,0.8-1.4,0.9c0,0-1,0.2-1,1.2"/>
			<path d="M16.1,13.7L16.1,13.7c1.3-1.2,0.8-2.3,0.7-2.6c-0.2,0.2-0.8,0.8-1.4,0.9c0,0-0.9,0.2-1,1.1l-0.1,0c0.1-1,1.1-1.2,1.1-1.2
				c0.6-0.1,1.4-0.9,1.4-0.9l0-0.1l0,0.1C16.9,11,17.7,12.4,16.1,13.7z"/>
		</g>
		<g>
			<path class="st1" d="M16.5,13.7c0,0,1-0.7,1.8,0c0,0,0.5,0.3,1.8,0.3c0,0-0.5,1.7-2,1.7c0,0-0.7,0.3-1.8,0"/>
			<path d="M17.2,15.8c-0.3,0-0.6,0-1-0.1l0-0.1c1.1,0.3,1.8,0,1.8,0l0,0c1.3,0,1.8-1.3,2-1.6c-1.3,0-1.7-0.3-1.8-0.3
				c-0.7-0.7-1.7,0-1.7,0l-0.1-0.1c0,0,1.1-0.7,1.9,0l0,0c0,0,0.5,0.3,1.8,0.3l0.1,0l0,0.1c0,0-0.5,1.7-2.1,1.7
				C18,15.7,17.7,15.8,17.2,15.8z"/>
		</g>
		<g>
			<path class="st1" d="M16.6,14.6c0,0-0.1,0.8-0.7,1.2c0,0-0.7,0.5-0.6,1.1c0,0-0.2,0.3-0.7,0c0,0-0.5-0.5-0.4-1.1
				c0,0-0.8-0.4-0.5-0.7c0,0,0.3-0.4,1.1-0.3C14.8,14.8,16,14.9,16.6,14.6z"/>
			<path d="M15,17.1c-0.1,0-0.3-0.1-0.4-0.2c0,0-0.5-0.5-0.4-1.1c-0.1-0.1-0.5-0.3-0.5-0.5c0-0.1,0-0.2,0.1-0.3c0,0,0.4-0.4,1.1-0.3
				l0.1,0l0,0c0.3,0,1.2,0,1.6-0.2l0.1,0l0,0.1c0,0-0.1,0.8-0.7,1.3c0,0-0.7,0.5-0.6,1l0,0l0,0C15.3,16.9,15.2,17,15,17.1
				C15,17.1,15,17.1,15,17.1z M14.6,14.8c-0.6,0-0.8,0.3-0.8,0.3c-0.1,0.1-0.1,0.1-0.1,0.2c0,0.2,0.4,0.4,0.5,0.4l0,0l0,0
				c-0.1,0.5,0.4,1,0.4,1c0.2,0.1,0.3,0.1,0.4,0.1c0.1,0,0.1-0.1,0.2-0.1c-0.1-0.5,0.6-1.1,0.6-1.1c0.5-0.3,0.6-0.9,0.7-1.1
				c-0.5,0.2-1.5,0.2-1.7,0.2l0,0C14.7,14.8,14.7,14.8,14.6,14.8z"/>
		</g>
		<g>
			<path class="st1" d="M23.8,12c0,0,2.2-1.3,3.1-1.2c0,0-0.7-0.7-1.1-0.8L23.8,12z"/>
			<path d="M23.5,12.2l2.3-2.3l0,0c0.4,0.1,1.1,0.8,1.1,0.8l0.1,0.1l-0.1,0c-0.8-0.1-3,1.2-3,1.2L23.5,12.2z M25.8,10L24,11.8
				c0.6-0.3,2-1,2.7-1.1C26.5,10.5,26.1,10,25.8,10z"/>
		</g>
		<g>
			<path class="st1" d="M18,11.5c0,0,0.3-1.1,1.3-1.1c0,0,1.3-0.2,1.7-0.8c0,0,0.4,1.8-1.2,2.7c0,0-0.3,0.3-0.7,0.7"/>
			<path d="M19.2,13L19.2,13c0.3-0.4,0.6-0.7,0.6-0.7c1.3-0.7,1.3-2.1,1.2-2.5c-0.5,0.5-1.6,0.7-1.7,0.7c0,0,0,0,0,0
				c-0.9,0-1.2,1-1.3,1.1l-0.1,0c0,0,0.3-1.1,1.3-1.1c0,0,0,0,0,0c0,0,1.2-0.2,1.6-0.7l0.1-0.1l0,0.1c0,0,0.3,1.8-1.2,2.7l0,0
				C19.8,12.4,19.5,12.7,19.2,13z"/>
		</g>
		<g>
			<path class="st1" d="M20.3,12.8c0,0,0.8-0.5,2.3,0.2c0,0,0.8,0.8,2.2,0.7c0,0-0.7,1.1-1.5,1.2c0,0-3,0.5-3.4-0.5"/>
			<path d="M21.8,15.1c-0.8,0-1.7-0.1-1.9-0.7l0.1,0c0.4,1,3.3,0.5,3.4,0.5c0.6-0.1,1.2-0.9,1.4-1.1c-1.3,0-2.1-0.6-2.1-0.7
				c-1.4-0.7-2.3-0.2-2.3-0.2l-0.1-0.1c0,0,0.9-0.5,2.4,0.2l0,0c0,0,0.8,0.7,2.2,0.7l0.1,0l0,0.1c0,0-0.7,1.1-1.5,1.2
				C23.3,15,22.6,15.1,21.8,15.1z"/>
		</g>
		<g>
			<path class="st1" d="M22.1,10.4c0,0,0.5-0.9,1.9-0.9c0,0,1,0.2,1.8-0.4c0,0,0,1.7-1,2.2c0,0-1.7,1-2.4,1.6"/>
			<path d="M22.4,12.9L22.4,12.9c0.6-0.7,2.3-1.6,2.3-1.6c0.8-0.4,0.9-1.7,1-2.1c-0.8,0.5-1.7,0.3-1.8,0.3c-1.3,0-1.8,0.9-1.8,0.9
				l-0.1,0c0,0,0.5-0.9,1.9-1c0,0,1,0.2,1.8-0.4L25.8,9l0,0.1c0,0.1,0,1.8-1,2.3C24.8,11.4,23.1,12.4,22.4,12.9z"/>
		</g>
		<g>
			<path class="st1" d="M24.5,12.3c1.1-0.4,1.7-0.4,1.7-0.4c0.8,0.6,2.6,0.2,2.6,0.2c2.3-0.5,3-2.7,3-2.7c-0.5,0.3-3.4,0-3.4,0
				c-1,0-1.8,0.9-1.8,0.9"/>
			<path d="M24.5,12.3L24.5,12.3c1-0.4,1.7-0.5,1.7-0.5h0l0,0c0.8,0.6,2.5,0.2,2.5,0.2c1.9-0.5,2.7-2.1,2.9-2.5
				c-0.7,0.2-3.2,0-3.3,0c0,0,0,0,0,0c-1,0-1.7,0.9-1.7,0.9l-0.1-0.1c0,0,0.8-1,1.8-1c1,0.1,3,0.2,3.4,0l0.1-0.1l0,0.1
				c0,0-0.8,2.2-3,2.7c-0.1,0-1.8,0.4-2.6-0.2C26.1,12,25.5,12,24.5,12.3z"/>
		</g>
		<g>
			<path class="st1" d="M24.8,12.3c1-0.4,2.5,0.1,2.5,0.1c1.4,0.8,2.6,1.2,2.6,1.2s-0.9,1.2-2,1.2c0,0-2.6,0.2-3.4-0.5"/>
			<path d="M26.9,14.8c-0.8,0-2-0.1-2.5-0.5l0.1-0.1c0.8,0.7,3.4,0.5,3.4,0.5c0.9,0,1.8-0.9,2-1.1c-0.3-0.1-1.4-0.5-2.6-1.1
				c0,0-1.4-0.5-2.4-0.1l0-0.1c1-0.4,2.4,0.1,2.5,0.1c1.4,0.7,2.6,1.2,2.6,1.2l0.1,0l0,0.1c0,0-0.9,1.2-2.1,1.2
				C27.8,14.7,27.4,14.8,26.9,14.8z"/>
		</g>
		<g>
			<path class="st1" d="M31.2,11.3c0,0,1.8-1.8,4.4-1c0,0,0.8,0.3,1.8,0.1c0,0-0.1,2.1-2.6,2.4"/>
			<path d="M34.8,12.8l0-0.1c2.2-0.3,2.5-1.9,2.6-2.3c-0.9,0.2-1.7-0.1-1.7-0.1c-2.6-0.8-4.4,1-4.4,1l-0.1-0.1c0,0,1.8-1.8,4.5-1
				c0,0,0.8,0.3,1.8,0.1l0.1,0l0,0.1C37.5,10.4,37.3,12.6,34.8,12.8z"/>
		</g>
		<g>
			<path class="st1" d="M34.8,12.8c0,0,2.6-0.5,3.7,0.7c0,0,1.1,1,2,1.2c0,0-0.2,1-2,0.7c0,0-3.6-0.6-3.8-1.3"/>
			<path d="M39,15.6c-0.2,0-0.4,0-0.6,0c-0.1,0-3.7-0.6-3.8-1.4l0.1,0c0.1,0.6,2.7,1.1,3.7,1.3c1.5,0.2,1.8-0.5,1.9-0.7
				c-0.8-0.2-1.9-1.1-1.9-1.2c-1-1.2-3.6-0.7-3.6-0.7l0-0.1c0.1,0,2.7-0.5,3.7,0.8c0,0,1.1,1,1.9,1.1l0.1,0l0,0.1
				C40.5,14.8,40.3,15.6,39,15.6z"/>
		</g>
		<g>
			<path class="st1" d="M30.3,11.9c0,0,1.9-0.5,3.2,1c0,0,1.1,1,1.5,0.9c0,0-1,1.1-2.2,0.9c0,0-2.7,0.3-3.3-0.8"/>
			<path d="M32,14.8c-0.9,0-2.2-0.1-2.6-0.9l0.1,0c0.6,1.1,3.3,0.8,3.3,0.8c0.9,0.1,1.8-0.6,2.1-0.8c-0.5-0.1-1.4-0.9-1.4-0.9
				c-1.3-1.5-3.2-1-3.2-1l0-0.1c0,0,1.9-0.5,3.3,1.1c0.3,0.3,1.1,1,1.5,0.9l0.1,0l-0.1,0.1c0,0-1.1,1.1-2.2,0.9
				C32.8,14.8,32.5,14.8,32,14.8z"/>
		</g>
		<g>
			<path class="st1" d="M38.5,13.6c0.9,0.7,1.9-0.2,1.9-0.2c0,0,2-1.4,2-1.4c-0.5,0-2.1-0.5-2.1-0.5c-1.1-0.5-3.6,0.7-3.6,0.7"/>
			<path d="M39.2,13.9c-0.3,0-0.5-0.1-0.8-0.3l0.1-0.1c0.8,0.6,1.8-0.2,1.8-0.2l0,0c0.1-0.1,0.7-0.5,1.9-1.4c-0.6-0.1-1.9-0.5-2-0.5
				c-1.1-0.5-3.6,0.7-3.6,0.7l0-0.1c0.1,0,2.5-1.2,3.7-0.7c0,0,1.6,0.6,2.1,0.5l0.2,0L42.3,12c-0.8,0.5-1.9,1.4-2,1.4
				C40.3,13.5,39.8,13.9,39.2,13.9z"/>
		</g>
		<g>
			<path class="st1" d="M40.1,14c0,0,0.8-0.6,2.2,0.7c0,0,0.4,1.2,0.7,1.2c0,0-0.4,0.7-1.2,0.6c0,0-2-0.7-2.5-1.1c0,0,1-0.1,1.2-0.8
				c0,0-0.5-0.2-0.8-0.3L40.1,14z"/>
			<path d="M42,16.7c-0.1,0-0.1,0-0.2,0c-0.1,0-2-0.7-2.5-1.1l-0.1-0.1l0.1,0c0,0,0.9-0.1,1.1-0.7c-0.1,0-0.5-0.2-0.8-0.3l-0.1,0
				L40,14c0,0,0.9-0.6,2.3,0.7l0,0c0.1,0.3,0.4,1.1,0.7,1.2l0.1,0l0,0.1C43.1,16,42.7,16.7,42,16.7z M39.4,15.5c0.6,0.4,2.4,1,2.4,1
				c0.7,0.1,1.1-0.4,1.2-0.5c-0.3-0.2-0.6-1.1-0.7-1.2c-1.3-1.3-2.1-0.8-2.1-0.7l-0.4,0.3c0.3,0.1,0.7,0.3,0.7,0.3l0,0l0,0
				C40.3,15.3,39.7,15.5,39.4,15.5z"/>
		</g>
		<g>
			<path class="st1" d="M42.2,12.1c0,0,0.6,1,1,1c0,0,0.4,0.7-1.1,1.5c0,0-1.1-0.8-2-0.6L40,13.7"/>
			<path d="M42.1,14.7L42.1,14.7c0,0-1.1-0.8-2-0.6l0,0L40,13.7l0.1,0l0.1,0.2c0.8-0.2,1.8,0.5,1.9,0.6c0.8-0.4,1-0.8,1.1-1
				c0-0.2,0-0.3,0-0.3c-0.5,0-1-0.9-1.1-1l0.1,0c0,0,0.5,1,1,0.9l0,0l0,0c0,0,0.1,0.2,0,0.4C43.2,13.8,43,14.2,42.1,14.7L42.1,14.7z
				"/>
		</g>
		<g>
			<path class="st1" d="M13.5,13.8c0.1,0.3-0.1,0.6-0.3,0.6"/>
			<path d="M13.2,14.4v-0.1c0.1,0,0.1,0,0.2-0.1c0.1-0.1,0.1-0.3,0.1-0.4l0.1,0c0.1,0.2,0,0.4-0.1,0.5
				C13.4,14.4,13.3,14.4,13.2,14.4z"/>
		</g>
		<g>
			<path class="st1" d="M14.2,15.8c0.3-0.3,1-0.2,1.6-0.5"/>
			<path d="M14.2,15.8L14.2,15.8c0.1-0.2,0.4-0.3,0.7-0.3c0.3,0,0.5-0.1,0.8-0.2l0,0.1c-0.3,0.1-0.6,0.2-0.8,0.2
				C14.6,15.7,14.4,15.7,14.2,15.8z"/>
		</g>
		<g>
			<path class="st1" d="M15.5,16.2c0-0.2-0.4-0.3-0.4-0.3s0.4-0.1,0.5,0.1L15.5,16.2z"/>
			<path d="M15.4,16.3l0-0.1c0-0.1-0.2-0.2-0.3-0.2l-0.3-0.1l0.3,0c0.1,0,0.5-0.1,0.6,0.1l0,0L15.4,16.3z M15.3,16
				c0.1,0,0.1,0.1,0.1,0.1l0.1-0.1C15.5,16,15.4,16,15.3,16z"/>
		</g>
		<g>
			<path class="st1" d="M15.3,16.4c-0.1-0.2-0.6-0.2-0.6-0.2s0.5,0.3,0.5,0.5L15.3,16.4z"/>
			<path d="M15.3,16.8L15.3,16.8c-0.1-0.2-0.5-0.5-0.6-0.5l-0.1-0.1l0.2,0c0.1,0,0.6,0.1,0.7,0.2l0,0L15.3,16.8z M14.9,16.3
				c0.1,0.1,0.3,0.2,0.3,0.3l0.1-0.2C15.2,16.4,15.1,16.3,14.9,16.3z"/>
		</g>
		<g>
			<path class="st1" d="M14.4,14.8c0,0,0.4-0.9,1-0.8c0,0,0.7,0.1,0.4,0.8C15.8,14.8,14.8,14.9,14.4,14.8z"/>
			<path d="M15,14.9c-0.2,0-0.5,0-0.6-0.1l0,0l0,0c0,0,0.4-1,1-0.8c0,0,0.3,0,0.5,0.3c0.1,0.1,0.1,0.3,0,0.5l0,0
				C15.8,14.8,15.4,14.9,15,14.9z M14.5,14.7c0.3,0.1,1.1,0,1.3,0c0.1-0.2,0.1-0.3,0-0.4c-0.1-0.2-0.4-0.2-0.4-0.2
				C14.9,13.9,14.6,14.6,14.5,14.7z"/>
		</g>
		<g>
			<path class="st1" d="M18.6,14.6c-1.3-0.3-2-0.3-2.2,0.1"/>
			<path d="M16.4,14.7L16.4,14.7c0.2-0.5,1-0.4,2.2-0.1l0,0.1C17.5,14.4,16.7,14.3,16.4,14.7z"/>
		</g>
		<g>
			<path class="st1" d="M16.9,14.4c0,0,0.8,0.8,1.4,0.7c0,0-0.7-0.2-0.7-0.7C17.6,14.4,17.1,14.4,16.9,14.4z"/>
			<path d="M18.1,15.2c-0.5,0-1.2-0.7-1.3-0.7l-0.1-0.1l0.1,0c0.1,0,0.7,0,0.7,0.1l0,0l0,0c0,0.4,0.6,0.6,0.6,0.6l0.2,0.1l-0.2,0
				C18.2,15.2,18.2,15.2,18.1,15.2z M17,14.4c0.2,0.2,0.6,0.5,1,0.6c-0.2-0.1-0.5-0.3-0.5-0.6C17.4,14.5,17.2,14.4,17,14.4z"/>
		</g>
		<g>
			<path class="st1" d="M16.5,14.5c0,0,0.4,0.9,0.9,0.8c0,0-1-0.2-0.9-0.3C16.5,14.9,16.5,14.6,16.5,14.5z"/>
			<path d="M17.4,15.4c-0.1,0-0.2,0-0.3-0.1c-0.6-0.1-0.6-0.2-0.6-0.3c0-0.1,0-0.4,0-0.5l0.1,0c0,0,0.2,0.5,0.5,0.7
				c0.1,0,0.3,0.1,0.4,0.1l0.3,0.1l-0.3,0C17.4,15.4,17.4,15.4,17.4,15.4z M16.6,15c0,0,0.1,0.1,0.3,0.1c-0.1-0.1-0.2-0.2-0.3-0.4
				C16.6,14.9,16.6,15,16.6,15z M16.6,15C16.6,15,16.6,15,16.6,15C16.6,15,16.6,15,16.6,15z"/>
		</g>
		<g>
			<path class="st1" d="M18,14.5c0,0,0.4,0.5,0.8,0.4c0,0-0.4-0.2-0.4-0.4L18,14.5z"/>
			<path d="M18.7,15c-0.4,0-0.7-0.4-0.8-0.4l-0.1-0.1l0.6,0.1l0,0c0,0.1,0.3,0.3,0.4,0.3l0.1,0.1l-0.1,0C18.8,15,18.7,15,18.7,15z
				 M18.1,14.6c0.1,0.1,0.3,0.3,0.5,0.3c-0.1-0.1-0.2-0.2-0.3-0.3L18.1,14.6z"/>
		</g>
		<rect x="16.7" y="13.9" transform="matrix(0.7196 -0.6944 0.6944 0.7196 -4.9445 15.7231)" width="0.5" height="0.1"/>
		<rect x="17.7" y="13.9" transform="matrix(0.8447 -0.5352 0.5352 0.8447 -4.6939 11.7786)" width="0.4" height="0.1"/>
		<rect x="18.6" y="14.1" transform="matrix(0.9516 -0.3075 0.3075 0.9516 -3.4444 6.4591)" width="0.4" height="0.1"/>
		<rect x="18.9" y="14.4" transform="matrix(0.989 -0.1477 0.1477 0.989 -1.9299 2.9849)" width="0.5" height="0.1"/>
		<g>
			<path class="st1" d="M15.1,13.7c0-1,0.8-0.5,1.6-1.9"/>
			<path d="M15.2,13.7h-0.1c0-0.6,0.2-0.7,0.5-0.8c0.3-0.2,0.7-0.4,1-1l0.1,0c-0.4,0.7-0.8,0.9-1.1,1.1
				C15.4,13.1,15.2,13.2,15.2,13.7z"/>
		</g>
		<g>
			<path class="st1" d="M15.1,13.5c0,0,0.4-0.2,0.7-0.2c0,0-0.4-0.2-0.6-0.1L15.1,13.5z"/>
			<path d="M15,13.6l0.1-0.4l0,0c0.3-0.1,0.6,0.1,0.7,0.1l0.3,0.1l-0.3,0c-0.3,0-0.7,0.2-0.7,0.2L15,13.6z M15.3,13.3l0,0.1
				c0.1,0,0.2-0.1,0.4-0.1C15.5,13.3,15.3,13.3,15.3,13.3z"/>
		</g>
		<g>
			<path class="st1" d="M15.6,12.9c0,0,0.5-0.1,0.8-0.1c0,0,0-0.1-0.4-0.2L15.6,12.9z"/>
			<path d="M15.4,13l0.7-0.4l0,0c0.4,0,0.4,0.2,0.4,0.2l0,0.1l-0.1,0c-0.3,0-0.8,0.1-0.8,0.1L15.4,13z M16.1,12.6l-0.2,0.1
				c0.1,0,0.3-0.1,0.4-0.1C16.3,12.7,16.2,12.7,16.1,12.6z"/>
		</g>
		<rect x="15.2" y="12.4" transform="matrix(0.4917 -0.8707 0.8707 0.4917 -3.006 19.727)" width="0.3" height="0.1"/>
		<rect x="16" y="12.1" transform="matrix(0.4103 -0.912 0.912 0.4103 -1.5659 21.8369)" width="0.3" height="0.1"/>
		<g>
			<path class="st1" d="M18,12.9c0.8-1.3,1.8-0.7,2.8-2.6"/>
			<path d="M18,12.9L18,12.9c0.3-0.6,0.7-0.8,1.1-1.1c0.5-0.3,1.1-0.5,1.6-1.6l0.1,0c-0.5,1.1-1.1,1.3-1.6,1.6
				C18.7,12.2,18.4,12.4,18,12.9z"/>
		</g>
		<g>
			<path class="st1" d="M18.4,12.4c0,0,0.5-0.1,0.7,0.1c0,0-0.8,0.2-1.1,0.4L18.4,12.4z"/>
			<path d="M17.7,13l0.6-0.7l0,0c0,0,0.5-0.1,0.8,0.1l0.1,0.1l-0.1,0c0,0-0.8,0.2-1.1,0.4L17.7,13z M18.4,12.4l-0.2,0.2
				c0.3-0.1,0.6-0.2,0.8-0.2C18.8,12.3,18.5,12.4,18.4,12.4z"/>
		</g>
		<g>
			<path class="st1" d="M19.1,11.9c0,0,0.7-0.1,0.8,0c0,0-0.4-0.3-0.4-0.2L19.1,11.9z"/>
			<path d="M20.3,12.1L20,11.9c-0.1,0-0.6,0-0.8,0l-0.3,0l0.7-0.3c0,0,0.1,0,0.5,0.2L20.3,12.1z M19.6,11.7l-0.2,0.1
				c0.1,0,0.3,0,0.4,0C19.7,11.8,19.6,11.7,19.6,11.7z M19.6,11.7L19.6,11.7L19.6,11.7z"/>
		</g>
		<rect x="18.9" y="11" transform="matrix(0.3424 -0.9396 0.9396 0.3424 2.2264 25.319)" width="0.6" height="0.1"/>
		<rect x="19.7" y="10.7" transform="matrix(0.4856 -0.8742 0.8742 0.4856 0.8668 23.0055)" width="0.5" height="0.1"/>
		<rect x="20.2" y="11.2" transform="matrix(0.97 -0.243 0.243 0.97 -2.1136 5.2804)" width="0.3" height="0.1"/>
		<g>
			<path class="st1" d="M17.3,12.8c0,0,1-0.4,1.2-1.1c0,0-0.1,0.3-0.8,0.1c0,0-0.4-0.2-0.6,0C17.1,11.8,16.9,12.7,17.3,12.8z"/>
			<path d="M17.3,12.9L17.3,12.9c-0.2-0.1-0.2-0.2-0.3-0.4c-0.1-0.3,0-0.7,0-0.7c0.2-0.2,0.6,0,0.7,0c0.6,0.2,0.7-0.1,0.7-0.1l0.1,0
				C18.3,12.5,17.4,12.8,17.3,12.9L17.3,12.9z M17.1,11.8c0,0.1-0.1,0.8,0.2,0.9c0.1,0,0.8-0.3,1-0.9c-0.2,0.1-0.4,0.1-0.7,0
				C17.7,11.8,17.3,11.7,17.1,11.8z"/>
		</g>
		<g>
			<path class="st1" d="M20.9,12.6c0.8-1.5,3.5-1.2,4.5-2.9"/>
			<path d="M21,12.6L21,12.6c0.3-0.8,1.2-1.1,2.1-1.5c0.9-0.3,1.8-0.7,2.3-1.5l0.1,0.1c-0.5,0.8-1.5,1.2-2.4,1.5
				C22.2,11.6,21.4,11.9,21,12.6z"/>
		</g>
		<rect x="22.3" y="10.5" transform="matrix(0.4665 -0.8845 0.8845 0.4665 2.7453 25.7435)" width="0.8" height="0.1"/>
		<rect x="23.5" y="10.2" transform="matrix(0.4198 -0.9076 0.9076 0.4198 4.4563 27.5317)" width="0.6" height="0.1"/>
		<rect x="24.3" y="10" transform="matrix(0.3911 -0.9203 0.9203 0.3911 5.693 28.6859)" width="0.5" height="0.1"/>
		<g>
			<path class="st1" d="M21.6,11.8c0,0,0.1,0.3,1,0.2c0,0-0.8,0.2-1.3,0.1L21.6,11.8z"/>
			<path d="M21.7,12.2c-0.1,0-0.3,0-0.4,0l-0.1,0l0.5-0.4l0,0.1c0,0,0.1,0.3,0.9,0.1l0,0.1C22.6,12,22.1,12.2,21.7,12.2z M21.4,12.1
				c0.2,0,0.4,0,0.5,0c-0.2,0-0.3-0.1-0.3-0.2L21.4,12.1z"/>
		</g>
		<g>
			<path class="st1" d="M22.3,11.5c0,0,0.6,0.2,1.1,0.1c0,0-0.7-0.3-0.5-0.3L22.3,11.5z"/>
			<path d="M23,11.7c-0.4,0-0.7-0.1-0.8-0.1l-0.1,0l0.8-0.3c0,0,0,0,0,0l0,0.1l0,0c0,0,0,0,0,0c0,0.1,0.2,0.2,0.5,0.2l0.2,0.1
				l-0.2,0C23.3,11.7,23.1,11.7,23,11.7z M22.4,11.5c0.2,0,0.5,0.1,0.8,0.1c-0.2-0.1-0.3-0.2-0.4-0.2L22.4,11.5z"/>
		</g>
		<g>
			<path class="st1" d="M23.5,11c0,0,0.5,0.1,0.8,0c0,0-0.2-0.1-0.2-0.2L23.5,11z"/>
			<path d="M24,11.1c-0.2,0-0.5,0-0.5,0l-0.2,0l0.8-0.3l0,0.1c0,0.1,0.2,0.2,0.2,0.2l0.2,0l-0.2,0C24.2,11.1,24.1,11.1,24,11.1z
				 M23.7,11c0.1,0,0.3,0,0.4,0c0,0-0.1-0.1-0.1-0.1L23.7,11z"/>
		</g>
		<g>
			<circle class="st1" cx="42.7" cy="14.7" r="0.5"/>
			<path d="M42.7,15.3c-0.3,0-0.6-0.2-0.6-0.6s0.2-0.6,0.6-0.6s0.6,0.2,0.6,0.6S43,15.3,42.7,15.3z M42.7,14.2
				c-0.3,0-0.5,0.2-0.5,0.5c0,0.3,0.2,0.5,0.5,0.5c0.3,0,0.5-0.2,0.5-0.5C43.2,14.5,43,14.2,42.7,14.2z"/>
		</g>
		<g>
			<path class="st1" d="M24.8,10.4c0,0,0.3,0,0.4-0.1c0,0,0,0-0.2-0.1L24.8,10.4z"/>
			<path d="M24.7,10.4l0.4-0.3l0,0c0.2,0.1,0.2,0.2,0.2,0.2l0,0l0,0c-0.1,0.1-0.4,0.1-0.4,0.1L24.7,10.4z M25,10.2L25,10.2
				C25,10.3,25.1,10.3,25,10.2C25.1,10.3,25.1,10.2,25,10.2z"/>
		</g>
		<g>
			<path class="st1" d="M26.2,11.8c1.2-1.5,3.5-0.5,5.3-2.2"/>
			<path d="M26.3,11.9L26.3,11.9c0.5-0.8,1.4-1,2.3-1.1c1-0.2,2-0.3,2.9-1.2l0.1,0.1c-0.9,0.9-2,1.1-2.9,1.2
				C27.7,11,26.8,11.1,26.3,11.9z"/>
		</g>
		<rect x="27" y="10.2" transform="matrix(0.4394 -0.8983 0.8983 0.4394 6.1512 30.3164)" width="0.7" height="0.1"/>
		<rect x="28.1" y="9.9" transform="matrix(0.5091 -0.8607 0.8607 0.5091 5.348 29.3185)" width="0.6" height="0.1"/>
		<rect x="29" y="9.9" transform="matrix(0.5966 -0.8026 0.8026 0.5966 3.8571 27.6028)" width="0.7" height="0.1"/>
		<rect x="30" y="10" transform="matrix(0.4856 -0.8742 0.8742 0.4856 6.7695 31.5101)" width="0.4" height="0.1"/>
		<g>
			<path class="st1" d="M26.4,11.6c0,0,1.1,0.1,1.3,0.3c0,0,0.1-0.2-0.7-0.3c0,0-0.3-0.3-0.1-0.4L26.4,11.6z"/>
			<path d="M27.6,12.1L27.6,12c-0.1-0.1-0.8-0.3-1.2-0.3l-0.1,0l0.5-0.4c0,0,0,0,0.1,0l0.4-0.2l-0.4,0.3c0,0,0,0,0,0
				c0,0.1,0.1,0.2,0.1,0.2c0.4,0.1,0.6,0.1,0.7,0.3c0,0.1,0,0.1,0,0.1L27.6,12.1z M26.5,11.6c0.1,0,0.2,0,0.4,0.1
				c0,0-0.1-0.1-0.1-0.2L26.5,11.6z"/>
		</g>
		<g>
			<path class="st1" d="M27.5,11c0,0,1,0.2,1.4,0.4c0,0-0.7-0.4-0.7-0.5L27.5,11z"/>
			<path d="M28.8,11.5C28.8,11.4,28.8,11.4,28.8,11.5c-0.4-0.2-1.3-0.4-1.3-0.4l-0.2,0l1-0.2l0,0.1c0,0.1,0.3,0.3,0.6,0.5
				C28.8,11.3,28.8,11.4,28.8,11.5L28.8,11.5z M27.7,11c0.2,0,0.4,0.1,0.6,0.2c-0.1-0.1-0.2-0.2-0.2-0.3L27.7,11z"/>
		</g>
		<g>
			<path class="st1" d="M28.8,10.8c0,0,0.8,0,1.1,0.2c0,0-0.6-0.3-0.4-0.3L28.8,10.8z"/>
			<path d="M29.9,11c-0.3-0.1-1.1-0.2-1.1-0.2l0-0.1l0.7-0.1l0,0.1c0,0,0,0,0,0C29.5,10.7,29.7,10.8,29.9,11L29.9,11z M29.2,10.8
				c0.1,0,0.2,0,0.3,0c0,0-0.1-0.1-0.1-0.1L29.2,10.8z"/>
		</g>
		<g>
			<path class="st1" d="M30.4,10.3c0,0,0.6,0,0.6,0c0,0-0.1-0.2-0.2-0.3L30.4,10.3z"/>
			<path d="M31,10.4c0,0-0.3,0-0.6,0h-0.2l0.6-0.3l0,0C31,10.1,31,10.3,31,10.4C31,10.3,31,10.3,31,10.4L31,10.4L31,10.4L31,10.4z
				 M30.6,10.3c0.1,0,0.2,0,0.3,0c0-0.1-0.1-0.1-0.1-0.1L30.6,10.3z"/>
		</g>
		<g>
			<path class="st1" d="M32.6,11.6c0.9-0.5,3.3,0.3,4.4-0.8"/>
			<path d="M32.6,11.7L32.6,11.7c0.3-0.3,1-0.3,1.6-0.3c1,0,2.1,0.1,2.7-0.6l0.1,0.1c-0.6,0.7-1.8,0.6-2.8,0.6
				C33.6,11.5,33,11.5,32.6,11.7z"/>
		</g>
		<rect x="32.8" y="10.8" transform="matrix(0.6983 -0.7158 0.7158 0.6983 2.2243 27.0242)" width="0.7" height="0.1"/>
		<rect x="33.7" y="10.7" transform="matrix(0.7129 -0.7013 0.7013 0.7129 2.3088 27.1341)" width="1.1" height="0.1"/>
		<rect x="34.9" y="10.8" transform="matrix(0.7347 -0.6784 0.6784 0.7347 2.0019 26.8031)" width="0.7" height="0.1"/>
		<g>
			<path class="st1" d="M32.7,11.6c0,0,0.8,0.6,1.2,0.7c0,0-0.9-0.7-0.8-0.9L32.7,11.6z"/>
			<path d="M34.1,12.5l-0.2-0.1c-0.4-0.1-1.2-0.7-1.2-0.7l-0.1-0.1l0.7-0.2l-0.1,0.1c0,0.2,0.5,0.6,0.8,0.8L34.1,12.5z M32.8,11.7
				c0.1,0.1,0.5,0.4,0.8,0.5c-0.2-0.2-0.5-0.5-0.5-0.6L32.8,11.7z"/>
		</g>
		<g>
			<path class="st1" d="M34,11.5c0,0,0.4,0.6,1.4,0.5c0,0-0.8-0.3-0.7-0.5L34,11.5z"/>
			<path d="M35.2,12.1c-0.8,0-1.2-0.5-1.3-0.6l-0.1-0.1l0.8,0l0,0.1c0,0.1,0.4,0.3,0.7,0.5l0.2,0.1l-0.2,0
				C35.3,12.1,35.2,12.1,35.2,12.1z M34.1,11.5c0.1,0.1,0.5,0.4,1,0.4c-0.2-0.1-0.5-0.2-0.5-0.4L34.1,11.5z"/>
		</g>
		<g>
			<path class="st1" d="M35.8,11.4c0,0,0.6,0,0.7,0.1l-0.2-0.2L35.8,11.4z"/>
			<path d="M36.6,11.7l-0.2-0.1c-0.1,0-0.5-0.1-0.7-0.1l-0.4,0l0.9-0.2L36.6,11.7z M36.1,11.4c0.1,0,0.2,0,0.3,0l-0.1-0.1L36.1,11.4
				z"/>
		</g>
		<g>
			<path class="st1" d="M37.5,12.9c1-0.6,3.3-0.1,4.8-1"/>
			<path d="M37.5,13L37.5,13c0.4-0.4,1.2-0.4,2-0.5c0.9-0.1,2-0.1,2.8-0.6l0,0.1c-0.8,0.5-1.9,0.5-2.8,0.6
				C38.7,12.7,38,12.7,37.5,13z"/>
		</g>
		<rect x="38.6" y="11.8" transform="matrix(0.8804 -0.4742 0.4742 0.8804 -0.959 19.9003)" width="0.7" height="0.1"/>
		<rect x="39" y="11.9" transform="matrix(0.3848 -0.923 0.923 0.3848 13.1376 43.5137)" width="0.5" height="0.1"/>
		<rect x="39.5" y="11.9" transform="matrix(0.8447 -0.5352 0.5352 0.8447 -0.2153 23.1378)" width="0.6" height="0.1"/>
		<rect x="39.7" y="11.9" transform="matrix(0.3807 -0.9247 0.9247 0.3807 13.6426 44.3522)" width="0.5" height="0.1"/>
		<rect x="40.5" y="12" transform="matrix(0.9588 -0.284 0.284 0.9588 -1.75 12.0348)" width="0.4" height="0.1"/>
		<g>
			<path class="st1" d="M42,15c0,0,0.5,0.3,0.8,0.6l-0.2-0.5L42,15z"/>
			<path d="M42.7,15.7c-0.2-0.3-0.7-0.6-0.7-0.6l0-0.1l0.5,0.2L42.7,15.7L42.7,15.7z M42.3,15.2c0.1,0,0.1,0.1,0.2,0.2l-0.1-0.1
				L42.3,15.2z"/>
		</g>
		<g>
			<path class="st1" d="M41.2,14.6c0,0,0.5,0,0.5,0.2c0,0-0.2-0.3-0.4-0.4L41.2,14.6z"/>
			<path d="M42,15.2l-0.3-0.4c0,0,0,0,0,0c-0.1-0.1-0.3-0.1-0.4-0.1l-0.1,0l0.1-0.3l0,0c0.2,0.1,0.4,0.2,0.4,0.3c0,0,0,0,0,0.1
				L42,15.2z M41.3,14.5c0.1,0,0.1,0,0.2,0C41.5,14.5,41.4,14.5,41.3,14.5L41.3,14.5z"/>
		</g>
		<g>
			<path class="st1" d="M35.3,14.2c0,0,0.1,0.3,0,0.4c0,0,0.5,0.2,0.6,0.2C35.8,14.8,35.6,14.4,35.3,14.2z"/>
			<path d="M35.8,14.9L35.8,14.9l-0.7-0.3l0.1,0c0,0,0-0.1,0-0.3l0-0.1l0.1,0C35.6,14.3,35.9,14.8,35.8,14.9L35.8,14.9L35.8,14.9z
				 M35.3,14.6l0.4,0.1c-0.1-0.1-0.2-0.3-0.4-0.4C35.4,14.4,35.4,14.5,35.3,14.6z"/>
		</g>
		<rect x="36.6" y="13.3" transform="matrix(0.991 -0.1341 0.1341 0.991 -1.4507 5.0631)" width="0.6" height="0.1"/>
		<rect x="37" y="13.4" transform="matrix(0.9881 -0.1537 0.1537 0.9881 -1.6258 5.8863)" width="0.6" height="0.1"/>
		<rect x="37.8" y="13.8" transform="matrix(0.9179 -0.3967 0.3967 0.9179 -2.3716 16.2133)" width="0.4" height="0.1"/>
		<rect x="38.2" y="14" transform="matrix(0.8571 -0.5151 0.5151 0.8571 -1.7874 21.7511)" width="0.3" height="0.1"/>
		<g>
			<path class="st1" d="M29.5,12.5c1.8-0.4,2.3,1.7,4.9,1.4"/>
			<path d="M33.9,14c-1.1,0-1.8-0.5-2.4-0.9c-0.6-0.4-1.2-0.8-2-0.6l0-0.1c0.8-0.2,1.4,0.2,2,0.6c0.7,0.5,1.5,1,2.9,0.8l0,0.1
				C34.2,14,34.1,14,33.9,14z"/>
		</g>
		<rect x="31" y="12.3" transform="matrix(0.9975 -7.000328e-02 7.000328e-02 0.9975 -0.7866 2.2295)" width="0.9" height="0.1"/>
		<rect x="31.9" y="12.7" transform="matrix(0.9953 -9.719390e-02 9.719390e-02 0.9953 -1.0828 3.2045)" width="0.9" height="0.1"/>
		<rect x="32.8" y="13.3" transform="matrix(0.9451 -0.3267 0.3267 0.9451 -2.5528 11.5589)" width="0.7" height="0.1"/>
		<rect x="30.2" y="12.3" transform="matrix(0.8611 -0.5085 0.5085 0.8611 -2.5474 17.2198)" width="0.1" height="1.9"/>
		<rect x="31.3" y="12.6" transform="matrix(0.8614 -0.508 0.508 0.8614 -2.632 17.8447)" width="0.1" height="2.3"/>
		<rect x="32.2" y="13.3" transform="matrix(0.8267 -0.5626 0.5626 0.8267 -2.2079 20.5729)" width="0.1" height="1.1"/>
		<rect x="33.1" y="13.8" transform="matrix(0.8096 -0.587 0.587 0.8096 -1.958 22.1089)" width="0.1" height="0.6"/>
		<g>
			<path class="st1" d="M24.9,12.9c1.3-0.1,1.7,1.2,4.2,0.8"/>
			<path d="M28.2,13.8c-0.9,0-1.5-0.3-2-0.5c-0.4-0.2-0.8-0.4-1.3-0.3l0-0.1c0.6-0.1,0.9,0.1,1.4,0.3c0.6,0.3,1.3,0.7,2.8,0.4l0,0.1
				C28.7,13.8,28.4,13.8,28.2,13.8z"/>
		</g>
		<rect x="27.2" y="13.2" transform="matrix(0.6924 -0.7215 0.7215 0.6924 -1.7903 23.9839)" width="0.1" height="1.7"/>
		<rect x="25.9" y="12.6" transform="matrix(0.7605 -0.6494 0.6494 0.7605 -2.7034 20.1097)" width="0.1" height="2.2"/>
		<g>
			<path class="st1" d="M23.8,12.9c1.1,0,0.9,1.1,2,1.8"/>
			<path d="M25.8,14.7c-0.5-0.3-0.8-0.7-1-1.1c-0.3-0.4-0.4-0.7-1-0.7l0-0.1c0.6,0,0.9,0.4,1.1,0.8C25.1,13.9,25.3,14.3,25.8,14.7
				L25.8,14.7z"/>
		</g>
		<rect x="25.8" y="12.5" transform="matrix(0.951 -0.3092 0.3092 0.951 -2.6071 8.6796)" width="0.6" height="0.1"/>
		<rect x="27" y="12.8" transform="matrix(0.9374 -0.3481 0.3481 0.9374 -2.7731 10.2897)" width="0.6" height="0.1"/>
		<rect x="28" y="13.3" transform="matrix(0.97 -0.243 0.243 0.97 -2.4042 7.2528)" width="0.4" height="0.1"/>
		<rect x="27.9" y="13.7" transform="matrix(0.537 -0.8436 0.8436 0.537 1.2113 30.0618)" width="0.1" height="0.5"/>
		<g>
			<path class="st1" d="M19.9,14c1.3-1.2,1.6,0.3,4,0.1"/>
			<path d="M23.5,14.2c-0.9,0-1.4-0.2-1.9-0.4c-0.6-0.3-1-0.4-1.7,0.2l-0.1-0.1c0.7-0.7,1.2-0.5,1.8-0.3c0.5,0.2,1.2,0.5,2.3,0.4
				l0,0.1C23.8,14.1,23.7,14.2,23.5,14.2z"/>
		</g>
		<rect x="22.1" y="13.5" transform="matrix(0.7342 -0.6789 0.6789 0.7342 -3.8403 18.8789)" width="0.1" height="1.6"/>
		<rect x="21.3" y="13.2" transform="matrix(0.742 -0.6704 0.6704 0.742 -4.0284 17.9557)" width="0.1" height="1.9"/>
		<rect x="20.7" y="13.6" transform="matrix(0.7368 -0.6761 0.6761 0.7368 -4.2858 17.8295)" width="0.1" height="1.7"/>
		<polygon points="23.2,14.5 22.5,14 22.6,14 23.3,14.4 		"/>
		<polygon points="21.2,13.2 21.2,13.1 21.5,13 21.6,13 		"/>
		<rect x="22.1" y="13.4" transform="matrix(0.9404 -0.34 0.34 0.9404 -3.2308 8.3832)" width="0.5" height="0.1"/>
		<rect x="23" y="13.7" transform="matrix(0.912 -0.4103 0.4103 0.912 -3.6006 10.6973)" width="0.3" height="0.1"/>
		<g>
			<circle class="st1" cx="14.3" cy="13.2" r="0.5"/>
			<path d="M14.3,13.7c-0.3,0-0.6-0.3-0.6-0.6c0-0.3,0.3-0.6,0.6-0.6c0.3,0,0.6,0.3,0.6,0.6C14.9,13.5,14.6,13.7,14.3,13.7z
				 M14.3,12.7c-0.3,0-0.5,0.2-0.5,0.5s0.2,0.5,0.5,0.5s0.5-0.2,0.5-0.5S14.6,12.7,14.3,12.7z"/>
		</g>
		<g>
			<circle class="st1" cx="17.5" cy="12.1" r="0.6"/>
			<path d="M17.5,12.7c-0.4,0-0.7-0.3-0.7-0.7c0-0.4,0.3-0.7,0.7-0.7s0.7,0.3,0.7,0.7C18.1,12.4,17.8,12.7,17.5,12.7z M17.5,11.5
				c-0.3,0-0.6,0.2-0.6,0.6c0,0.3,0.2,0.6,0.6,0.6c0.3,0,0.6-0.2,0.6-0.6C18,11.8,17.8,11.5,17.5,11.5z"/>
		</g>
		<g>
			<circle class="st1" cx="19.1" cy="13.4" r="0.5"/>
			<path d="M19.1,14c-0.3,0-0.6-0.3-0.6-0.6c0-0.3,0.3-0.6,0.6-0.6s0.6,0.3,0.6,0.6C19.7,13.7,19.4,14,19.1,14z M19.1,12.9
				c-0.3,0-0.5,0.2-0.5,0.5c0,0.3,0.2,0.5,0.5,0.5c0.3,0,0.5-0.2,0.5-0.5C19.6,13.1,19.4,12.9,19.1,12.9z"/>
		</g>
		<g>
			<circle class="st1" cx="21.5" cy="10.8" r="0.6"/>
			<path d="M21.5,11.4c-0.3,0-0.6-0.3-0.6-0.6s0.3-0.6,0.6-0.6s0.6,0.3,0.6,0.6S21.8,11.4,21.5,11.4z M21.5,10.3
				c-0.3,0-0.5,0.2-0.5,0.5c0,0.3,0.2,0.5,0.5,0.5c0.3,0,0.5-0.2,0.5-0.5C22,10.6,21.8,10.3,21.5,10.3z"/>
		</g>
		<g>
			<circle class="st1" cx="23.1" cy="12.8" r="0.6"/>
			<path d="M23.1,13.4c-0.3,0-0.6-0.3-0.6-0.6c0-0.3,0.3-0.6,0.6-0.6c0.3,0,0.6,0.3,0.6,0.6C23.7,13.1,23.4,13.4,23.1,13.4z
				 M23.1,12.2c-0.3,0-0.5,0.2-0.5,0.5c0,0.3,0.2,0.5,0.5,0.5c0.3,0,0.5-0.2,0.5-0.5C23.6,12.5,23.4,12.2,23.1,12.2z"/>
		</g>
		<g>
			<circle class="st1" cx="15.3" cy="14.6" r="0.5"/>
			<path d="M15.3,15.2c-0.3,0-0.6-0.3-0.6-0.6S15,14,15.3,14s0.6,0.3,0.6,0.6S15.6,15.2,15.3,15.2z M15.3,14.1
				c-0.3,0-0.5,0.2-0.5,0.5c0,0.3,0.2,0.5,0.5,0.5s0.5-0.2,0.5-0.5C15.8,14.3,15.6,14.1,15.3,14.1z"/>
		</g>
		<g>
			<circle class="st1" cx="26.2" cy="10.3" r="0.6"/>
			<path d="M26.2,10.9c-0.3,0-0.6-0.3-0.6-0.6s0.3-0.6,0.6-0.6c0.3,0,0.6,0.3,0.6,0.6S26.5,10.9,26.2,10.9z M26.2,9.8
				c-0.3,0-0.5,0.2-0.5,0.5c0,0.3,0.2,0.5,0.5,0.5c0.3,0,0.5-0.2,0.5-0.5C26.7,10,26.5,9.8,26.2,9.8z"/>
		</g>
		<g>
			<circle class="st1" cx="28.5" cy="12.4" r="0.6"/>
			<path d="M28.5,13.1c-0.3,0-0.6-0.3-0.6-0.6c0-0.3,0.3-0.6,0.6-0.6s0.6,0.3,0.6,0.6C29.1,12.8,28.8,13.1,28.5,13.1z M28.5,11.9
				c-0.3,0-0.5,0.2-0.5,0.5c0,0.3,0.2,0.5,0.5,0.5c0.3,0,0.5-0.2,0.5-0.5C29,12.2,28.8,11.9,28.5,11.9z"/>
		</g>
		<g>
			<circle class="st1" cx="31.9" cy="10.5" r="0.6"/>
			<path d="M31.9,11.1c-0.3,0-0.6-0.3-0.6-0.6s0.3-0.6,0.6-0.6s0.6,0.3,0.6,0.6S32.2,11.1,31.9,11.1z M31.9,10
				c-0.3,0-0.5,0.2-0.5,0.5s0.2,0.5,0.5,0.5s0.5-0.2,0.5-0.5S32.1,10,31.9,10z"/>
		</g>
		<g>
			<circle class="st1" cx="34.2" cy="12.8" r="0.6"/>
			<path d="M34.2,13.5c-0.3,0-0.6-0.3-0.6-0.6c0-0.3,0.3-0.6,0.6-0.6c0.3,0,0.6,0.3,0.6,0.6C34.8,13.2,34.6,13.5,34.2,13.5z
				 M34.2,12.3c-0.3,0-0.5,0.2-0.5,0.5c0,0.3,0.2,0.5,0.5,0.5c0.3,0,0.5-0.2,0.5-0.5C34.7,12.6,34.5,12.3,34.2,12.3z"/>
		</g>
		<g>
			<circle class="st1" cx="37.7" cy="11.5" r="0.5"/>
			<path d="M37.7,12.1c-0.3,0-0.6-0.3-0.6-0.6s0.3-0.6,0.6-0.6c0.3,0,0.6,0.3,0.6,0.6S38,12.1,37.7,12.1z M37.7,11.1
				c-0.3,0-0.5,0.2-0.5,0.5s0.2,0.5,0.5,0.5c0.3,0,0.5-0.2,0.5-0.5S38,11.1,37.7,11.1z"/>
		</g>
		<g>
			<circle class="st1" cx="39.6" cy="13.9" r="0.5"/>
			<path d="M39.6,14.4c-0.3,0-0.6-0.3-0.6-0.6c0-0.3,0.3-0.6,0.6-0.6c0.3,0,0.6,0.3,0.6,0.6C40.1,14.2,39.9,14.4,39.6,14.4z
				 M39.6,13.4c-0.3,0-0.5,0.2-0.5,0.5s0.2,0.5,0.5,0.5c0.3,0,0.5-0.2,0.5-0.5S39.8,13.4,39.6,13.4z"/>
		</g>
		<g>
			<path class="st1" d="M14.2,13.5c0.2,0.1,0.4,0,0.5-0.2"/>
			<path d="M14.3,13.6c0,0-0.1,0-0.1,0l0-0.1c0.1,0.1,0.3,0,0.4-0.2l0.1,0.1C14.6,13.5,14.4,13.6,14.3,13.6z"/>
		</g>
		<g>
			<path class="st1" d="M15.1,14.9c0.2,0.1,0.4,0,0.5-0.2"/>
			<path d="M15.3,15c0,0-0.1,0-0.1,0l0-0.1c0.1,0.1,0.3,0,0.4-0.2l0.1,0.1C15.6,14.9,15.4,15,15.3,15z"/>
		</g>
		<g>
			<path class="st1" d="M17.4,12.4c0.2,0.1,0.4,0,0.5-0.2"/>
			<path d="M17.5,12.5c0,0-0.1,0-0.1,0l0-0.1c0.1,0.1,0.3,0,0.4-0.2l0.1,0.1C17.8,12.4,17.6,12.5,17.5,12.5z"/>
		</g>
		<g>
			<path class="st1" d="M18.9,13.8c0.2,0.1,0.4,0,0.5-0.2"/>
			<path d="M19.1,13.8c0,0-0.1,0-0.1,0l0-0.1c0.1,0.1,0.3,0,0.4-0.2l0.1,0.1C19.4,13.7,19.2,13.8,19.1,13.8z"/>
		</g>
		<g>
			<path class="st1" d="M21.4,11.2c0.2,0.1,0.4,0,0.5-0.2"/>
			<path d="M21.5,11.3c0,0-0.1,0-0.1,0l0-0.1c0.1,0.1,0.3,0,0.4-0.2l0.1,0.1C21.8,11.2,21.6,11.3,21.5,11.3z"/>
		</g>
		<g>
			<path class="st1" d="M23,13.1c0.2,0.1,0.4,0,0.5-0.2"/>
			<path d="M23.1,13.2c0,0-0.1,0-0.1,0l0-0.1c0.1,0.1,0.3,0,0.4-0.2l0.1,0.1C23.4,13.1,23.3,13.2,23.1,13.2z"/>
		</g>
		<g>
			<path class="st1" d="M31.7,10.9c0.2,0.1,0.4,0,0.5-0.2"/>
			<path d="M31.9,11c0,0-0.1,0-0.1,0l0-0.1c0.1,0.1,0.3,0,0.4-0.2l0.1,0.1C32.2,10.9,32,11,31.9,11z"/>
		</g>
		<g>
			<path class="st1" d="M34,13.2c0.2,0.1,0.4,0,0.5-0.2"/>
			<path d="M34.2,13.2c0,0-0.1,0-0.1,0l0-0.1c0.1,0.1,0.3,0,0.4-0.2l0.1,0.1C34.5,13.1,34.3,13.2,34.2,13.2z"/>
		</g>
		<g>
			<path class="st1" d="M37.5,11.9c0.2,0.1,0.4,0,0.5-0.2"/>
			<path d="M37.7,12c0,0-0.1,0-0.1,0l0-0.1c0.1,0.1,0.3,0,0.4-0.2l0.1,0.1C38,11.9,37.8,12,37.7,12z"/>
		</g>
		<g>
			<path class="st1" d="M39.4,14.2c0.2,0.1,0.4,0,0.5-0.2"/>
			<path d="M39.5,14.2c0,0-0.1,0-0.1,0l0-0.1c0.1,0.1,0.3,0,0.4-0.2l0.1,0.1C39.8,14.2,39.6,14.2,39.5,14.2z"/>
		</g>
		<g>
			<path class="st1" d="M42.6,15c0.2,0.1,0.4,0,0.5-0.2"/>
			<path d="M42.7,15.1c0,0-0.1,0-0.1,0l0-0.1c0.1,0.1,0.3,0,0.4-0.2l0.1,0.1C43,15,42.8,15.1,42.7,15.1z"/>
		</g>
		<g>
			<path class="st1" d="M26.1,10.7c0.2,0.1,0.4,0,0.5-0.2"/>
			<path d="M26.2,10.8c0,0-0.1,0-0.1,0l0-0.1c0.1,0.1,0.3,0,0.4-0.2l0.1,0.1C26.5,10.7,26.3,10.8,26.2,10.8z"/>
		</g>
		<g>
			<path class="st1" d="M28.3,12.8c0.2,0.1,0.4,0,0.5-0.2"/>
			<path d="M28.5,12.9c0,0-0.1,0-0.1,0l0-0.1c0.1,0.1,0.3,0,0.4-0.2l0.1,0.1C28.8,12.8,28.6,12.9,28.5,12.9z"/>
		</g>
		<g>
			<path class="st1" d="M40.8,13.9c0.7-0.4,1.5-0.1,2.4-0.8"/>
			<path d="M40.8,13.9L40.8,13.9c0.3-0.3,0.6-0.3,0.9-0.3c0.5-0.1,0.9-0.1,1.5-0.6l0.1,0.1c-0.5,0.5-1,0.5-1.5,0.6
				C41.4,13.7,41.1,13.8,40.8,13.9z"/>
		</g>
		<g>
			<path class="st1" d="M42.7,12.9c0,0-0.2,0.3-0.3,0.3c0,0,0.4,0,0.5-0.2L42.7,12.9z"/>
			<path d="M42.4,13.2l0-0.1c0.1,0,0.2-0.2,0.3-0.3l0,0l0.2,0.1l0,0C42.8,13.2,42.4,13.2,42.4,13.2z M42.7,12.9c0,0-0.1,0.1-0.1,0.1
				C42.7,13.1,42.8,13,42.7,12.9L42.7,12.9z"/>
		</g>
		<g>
			<path class="st1" d="M41,13.4c0,0,0.9-0.2,1.1-0.4c0,0-0.3,0.1-0.4,0C41.7,13,41.1,13.4,41,13.4z"/>
			<path d="M41,13.5C41,13.5,41,13.5,41,13.5l-0.2-0.1l0.2,0c0,0,0,0,0.1,0c0.1,0,0.3-0.2,0.4-0.3c0.2-0.1,0.2-0.2,0.3-0.1l0,0
				c0.1,0,0.2,0,0.3,0l0.1,0L42.1,13C42,13.2,41.3,13.4,41,13.5C41.1,13.5,41,13.5,41,13.5z M41.7,13c0,0-0.1,0.1-0.2,0.1
				c0,0-0.1,0.1-0.1,0.1c0.2-0.1,0.3-0.1,0.5-0.2C41.8,13.1,41.8,13.1,41.7,13z"/>
		</g>
		<rect x="41.8" y="13.3" transform="matrix(0.3984 -0.9172 0.9172 0.3984 12.3569 46.8216)" width="0.1" height="1.4"/>
		<rect x="42.5" y="13.4" transform="matrix(0.2137 -0.9769 0.9769 0.2137 20.2039 52.2501)" width="0.1" height="0.4"/>
		<g>
			<path class="st1" d="M39.6,14.4c1.9-0.3,1.5,1.6,3.4,1.6"/>
			<path d="M43,16c-0.9,0-1.3-0.4-1.7-0.9c-0.4-0.4-0.7-0.8-1.7-0.7l0-0.1c1-0.1,1.4,0.3,1.8,0.7c0.4,0.4,0.7,0.8,1.6,0.8V16z"/>
		</g>
		<g>
			<path class="st1" d="M41,14.8c0,1,0.1,1.3,0.7,1.8"/>
			<path d="M41.7,16.6C41,16,41,15.8,41,14.8h0.1C41.1,15.7,41.1,16,41.7,16.6L41.7,16.6z"/>
		</g>
		<g>
			<path class="st1" d="M41.7,15.4c0,0.6,0.1,0.7,0.6,1.1"/>
			<path d="M42.3,16.6c-0.5-0.4-0.7-0.5-0.7-1.1h0.1C41.7,16,41.8,16.1,42.3,16.6L42.3,16.6z"/>
		</g>
		<g>
			<path class="st1" d="M42.3,15.9c0,0.3,0.1,0.4,0.4,0.5"/>
			<path d="M42.6,16.4c-0.3-0.1-0.4-0.2-0.4-0.6l0.1,0C42.3,16.1,42.4,16.2,42.6,16.4L42.6,16.4z"/>
		</g>
		<g>
			<path class="st1" d="M35.2,13.2c1.4,0.1,3.3,2.4,5.2,1.6"/>
			<path d="M39.6,15c-0.9,0-1.8-0.5-2.6-1c-0.6-0.4-1.2-0.7-1.8-0.8l0-0.1c0.5,0,1.2,0.4,1.8,0.8c1,0.6,2.2,1.3,3.4,0.8l0,0.1
				C40.1,15,39.8,15,39.6,15z"/>
		</g>
		<rect x="35.7" y="13.2" transform="matrix(0.9219 -0.3874 0.3874 0.9219 -2.6345 14.962)" width="0.1" height="1.6"/>
		<rect x="36.2" y="13.4" transform="matrix(0.9264 -0.3766 0.3766 0.9264 -2.6885 14.7071)" width="0.1" height="1.7"/>
		<rect x="36.5" y="13.6" transform="matrix(0.8991 -0.4377 0.4377 0.8991 -2.4876 17.4033)" width="0.1" height="1.1"/>
		<rect x="37.2" y="13.9" transform="matrix(0.9062 -0.4229 0.4229 0.9062 -2.6931 17.1043)" width="0.1" height="1.5"/>
		<rect x="37.7" y="14.2" transform="matrix(0.8858 -0.464 0.464 0.8858 -2.5727 19.2288)" width="0.1" height="1.2"/>
		<rect x="38.3" y="14.6" transform="matrix(0.8633 -0.5046 0.5046 0.8633 -2.3516 21.3933)" width="0.1" height="1"/>
		<rect x="38.7" y="12.5" transform="matrix(0.5497 -0.8354 0.8354 0.5497 6.5471 38.2207)" width="0.1" height="1.1"/>
		<rect x="39.5" y="12.2" transform="matrix(0.2563 -0.9666 0.9666 0.2563 17.1054 47.701)" width="0.1" height="1.1"/>
		<rect x="39.9" y="12.5" transform="matrix(0.8178 -0.5755 0.5755 0.8178 -3.198417e-02 25.3057)" width="0.1" height="0.4"/>
		<rect x="40.7" y="12.1" transform="matrix(6.566495e-02 -0.9978 0.9978 6.566495e-02 25.5788 52.396)" width="0.1" height="1"/>
		<g>
			<path class="st1" d="M40.5,14.5c-0.2,1-0.1,1.2,0.2,1.7"/>
			<path d="M40.6,16.2L40.6,16.2c-0.2-0.5-0.3-0.7-0.2-1.7l0.1,0C40.4,15.5,40.5,15.6,40.6,16.2L40.6,16.2L40.6,16.2z"/>
		</g>
	</g>
</g>
<g id="Слой_4_1_">
	<g>
		<path class="st11" d="M3.5,27.3c0,0,0.6,0.1,5.1-2.3c0,0-2,1.5-0.6,7.4c0,0,1.8,7.7-0.3,8.3c0,0-3.5,1.7-3.7,1.8
			c0,0,0.1-7.3-0.5-8.4C3.5,34.1,1.9,29.8,3.5,27.3z"/>
		<path d="M4,42.5L4,42.5c0-0.1,0.1-7.3-0.5-8.4c0,0,0,0,0,0c-0.1-0.1-0.5-1.2-0.6-2.6c-0.2-1.2-0.2-2.9,0.6-4.2l0,0l0,0
			c0,0,0.7,0,5.1-2.3l0,0c0,0-0.5,0.4-0.8,1.5c-0.3,1-0.5,2.8,0.3,5.9c0,0,0.5,1.9,0.6,3.9c0.3,2.7-0.1,4.1-1,4.4
			C7.7,40.7,4.3,42.4,4,42.5L4,42.5z M3.6,34.1L3.6,34.1L3.6,34.1c0.5,1,0.5,7.7,0.5,8.3c0.4-0.2,3.6-1.8,3.7-1.8
			C9.8,40,8.1,32.4,8,32.4c-0.8-3-0.6-4.9-0.3-5.9c0.2-0.8,0.5-1.2,0.7-1.4c-4,2.1-4.8,2.2-4.9,2.2c-0.8,1.3-0.8,3-0.6,4.3
			C3.1,32.9,3.5,34,3.6,34.1z"/>
	</g>
	<path class="st12" d="M3.6,27.3c0,0-0.9,1-0.7,3.6c0,0,0,1.4,0.8,3.6c0,0,0.3,1.8,0.2,2.7l0.4-0.2c0,0,0.2-0.3-0.3-2.6
		c0,0-0.4-1.2-0.7-3.4c0,0-0.2-2.2,0.7-3.7L3.6,27.3z"/>
	<path class="st12" d="M8.5,25.1c0,0-1.7,1.4-0.6,6.6c0,0,0.8,3.1,0.9,6.3c0,0,0.1,2.6-1.3,2.7l-1,0c0,0,3.4,0.5,0.8-9
		c0,0-1.1-4.3,0.5-6.2L8.5,25.1z"/>
	<path class="st13" d="M1,44l6.7-3.4c0,0-1.6,0.7-1.2-1.9c0,0,0.5-2.1-1.3-2.2c-0.2,0-0.4,0-0.5,0.1c-1.3,0.8-4.1,2.6-4.2,2.7
		C0.4,39.4-0.5,40.8,1,44z"/>
	<path class="st12" d="M4.3,37c0,0,1-0.5,1.6,0.3c0,0,0.3,0.6,0.1,1.5c0,0-0.4,1.7,0.9,2.2l0.6-0.3c0,0-1.4,0.4-1.1-2
		c0,0,0.3-1.6-0.7-2c0,0-0.9-0.5-1.6,0.2L4.3,37z"/>
	<g>
		<path class="st11" d="M4.6,36.7c-0.4,2-0.2,4,1,5.1s2.8,5.2,2.2,9.7c-0.6,4.5-0.1,8.9,0.6,9.8c0.7,1,2.6,2.3,3.8,2.3h6.2
			c0,0,1.5,0.4,0.9,1.4l-0.6,4.5h-4.9c0,0-9.2-0.1-10.8-7.6c0,0-0.8-3.2,0.1-13.1c0,0,0.2-0.7-2.3-4.9c0,0-1.7-3.3-0.1-4.7L4.6,36.7
			z"/>
		<path d="M18.7,69.4h-4.9c0,0-2.3,0-4.8-1c-1.5-0.6-2.7-1.3-3.6-2.3c-1.2-1.2-2-2.7-2.4-4.4c0,0-0.7-3.3,0.1-13.1
			c0,0,0.1-0.7-2.3-4.9c0,0-1.7-3.3-0.1-4.8l3.9-2.4l0,0c-0.4,2.2-0.1,4.1,1,5.1c0.6,0.6,1.3,2,1.7,3.6c0.4,1.4,0.8,3.6,0.4,6.1
			c-0.6,4.6,0,8.9,0.6,9.8c0.7,1,2.6,2.2,3.7,2.2h6.2c0,0,0.8,0.2,1,0.7c0.1,0.2,0.1,0.5-0.1,0.7L18.7,69.4z M4.6,36.7l-3.8,2.4
			c-1.6,1.4,0.1,4.7,0.1,4.7c2.4,4.2,2.3,4.9,2.3,4.9C2.3,58.5,3,61.8,3,61.8c0.8,3.9,3.7,5.7,6,6.6c2.5,1,4.8,1,4.8,1l4.9,0
			l0.6-4.5c0.1-0.3,0.2-0.5,0.1-0.7c-0.2-0.5-1-0.7-1-0.7l-6.2,0c-1.2,0-3.1-1.3-3.8-2.3c-0.7-0.9-1.2-5.3-0.6-9.9
			c0.3-2.5-0.1-4.7-0.4-6.1c-0.4-1.6-1.1-3-1.7-3.5C4.5,40.8,4.1,38.9,4.6,36.7z"/>
	</g>
	<path class="st13" d="M19.4,64.5c0,0-0.2,1.7-2.9,0.5c0,0-1.5-0.8-2.2,0.4c0,0-0.9,5.6-0.8,6c0,0,3.5,1.5,5.1,0.4
		C18.5,71.9,19.6,65.4,19.4,64.5z"/>
	<path class="st12" d="M14.2,65.7c0,0,0.7-0.8,2.2-0.1c0,0,3.4,1.1,3-1c0,0-0.3,1.5-2.9,0.5c0,0-1.4-0.8-2.2,0.4L14.2,65.7z"/>
	<path class="st12" d="M0.7,39.1c0,0-1.6,1,0,4.4c0,0,0.2,0.3,0.7,1.2C2,46,2.8,47.3,3.1,48.6c0,0-0.5,6-0.4,10.1c0,0,0,2.8,0.6,4.2
		c0,0,1.6,5.8,10.2,6.4l0.1-0.9c0,0-10.4-0.1-10.1-9.8c0,0-0.3-4.1,0.3-9.3c0,0,0.5-1.4-2.5-6.4c0,0-1.3-2.1-0.2-4.3L0.7,39.1z"/>
	<path class="st12" d="M4.5,36.7c0,0-0.8,3.4,1.1,5.1c0,0,2,2.2,2.2,7.4c0,0,0.1,1.1-0.2,3.1c0,0-0.4,3.3,0,6.3c0,0,0,1.3,0.6,2.5
		c0,0,1.1,1.7,3.4,2.3l0.3,0h6.3c0,0,1.4,0.4,0.9,1.3c0,0-0.2,0.4-0.5,0.5l-0.2,0.1c0,0,1.3-0.8-0.2-1.2L12,64.3
		c0,0-2.5-0.2-4.4-2.8c0,0-1.1-1.2-0.7-9.2c0,0,1-5.8-1.8-9.9c0,0-2.2-2.3-1.3-5.3L4.5,36.7z"/>
	<path class="st11" d="M3.3,32.3c-0.2-0.9-0.5-3.4,0.5-5.1l0.1,0.1c-0.9,1.6-0.7,4.1-0.5,5L3.3,32.3z"/>
	<path class="st11" d="M3.8,34.4c-0.2-0.6-0.4-1.4-0.4-1.8c0-0.1,0-0.2-0.1-0.3l0.1,0c0,0,0,0.1,0.1,0.3c0.1,0.4,0.2,1.2,0.4,1.8
		L3.8,34.4z"/>
	<path class="st11" d="M4.2,36.9l-0.1,0c0-1-0.1-1.8-0.3-2.5l0.1,0C4.1,35.1,4.2,35.9,4.2,36.9z"/>
	<path class="st11" d="M0.8,42.9l-0.1-0.1c-0.4-0.8-0.9-2.1,0.1-3.7l0.1,0.1c-1,1.6-0.4,2.8-0.1,3.6l0.1,0.1L0.8,42.9z"/>
	<path class="st11" d="M3.3,48.6c-0.2-1.6-0.9-2.8-1.7-4.1c-0.3-0.5-0.6-1-0.9-1.6l0.1-0.1c0.3,0.6,0.6,1.1,0.9,1.6
		c0.8,1.3,1.5,2.6,1.7,4.2L3.3,48.6z"/>
	<path class="st11" d="M3.4,49.3l-0.1,0c0,0,0-0.1,0-0.1c0-0.1,0-0.3,0-0.6l0.1,0c0.1,0.3,0,0.5,0,0.6C3.4,49.2,3.4,49.2,3.4,49.3z"
		/>
	<path class="st11" d="M3.1,60.6c-0.3-2-0.2-7.3,0.2-11.3l0.1,0c-0.4,4-0.4,9.4-0.2,11.3L3.1,60.6z"/>
	<path class="st11" d="M6.2,66.3c-2.1-1.9-2.6-2.9-3-5.7l0.1,0C3.7,63.3,4.2,64.4,6.2,66.3L6.2,66.3z"/>
	<path class="st11" d="M13.6,69c-3.6-0.1-5.7-1.4-7.4-2.7l0.1-0.1c1.7,1.3,3.8,2.6,7.3,2.7L13.6,69z"/>
	<path class="st11" d="M14.3,65.6L14.3,65.6c0.4-0.7,1.2-0.8,2.1-0.4l-0.1,0.1C16,65.2,15,64.9,14.3,65.6z"/>
	<path class="st11" d="M18.2,65.8c-0.5,0-1.2-0.2-1.8-0.4l0-0.1c1.4,0.4,2.5,0.7,2.9-0.4l0.1,0C19.2,65.6,18.8,65.8,18.2,65.8z"/>
	<path class="st11" d="M18.8,65.3L18.8,65.3c0.2-0.4,0.4-0.7,0.3-0.9c-0.1-0.2-0.3-0.4-0.8-0.5l0-0.1c0.5,0.1,0.8,0.4,0.9,0.6
		C19.4,64.7,19.2,65,18.8,65.3z"/>
	<rect x="12" y="63.7" class="st11" width="6.4" height="0.1"/>
	<path class="st11" d="M12,63.8c-1.6-0.1-3.5-1.4-4.1-2.6l0.1-0.1c0.7,1.2,2.4,2.4,4,2.5L12,63.8z"/>
	<path class="st11" d="M7.8,61.3c-0.4-0.8-1.1-3.1-0.7-8.8l0.1,0c-0.4,5.7,0.3,7.9,0.7,8.7L7.8,61.3z"/>
	<path class="st11" d="M7.3,52.6l-0.1,0c0.6-3.5,0.2-6.6-1.1-9.1l0.1-0.1C7.5,45.9,7.9,49.1,7.3,52.6z"/>
	<path class="st11" d="M6.1,43.5c0-0.1-0.1-0.2-0.1-0.3c-0.2-0.4-0.4-0.9-1-1.4l0.1-0.1c0.5,0.6,0.8,1.1,1,1.5
		c0,0.1,0.1,0.2,0.1,0.3L6.1,43.5z"/>
	<path class="st11" d="M5,41.8c-0.6-0.7-1.4-2.6-0.9-4.8l0.1,0C3.7,39.2,4.5,41,5,41.8L5,41.8z"/>
	<path class="st11" d="M6.2,37.7c-0.1-0.5-0.3-0.7-0.5-0.8c-0.3-0.2-0.7-0.2-1-0.1l0-0.1c0.4-0.1,0.8-0.1,1.1,0.1
		c0.2,0.1,0.5,0.4,0.6,0.9L6.2,37.7z"/>
	<path class="st11" d="M6.3,38.6l-0.1,0c0.1-0.3,0-0.6,0-0.9l0.1,0C6.3,38,6.4,38.3,6.3,38.6z"/>
	<path class="st11" d="M7.1,40.9c-0.3,0-0.5-0.2-0.7-0.5C6.1,40,6,39.3,6.2,38.5l0.1,0c-0.2,0.7-0.1,1.4,0.2,1.8
		c0.2,0.2,0.4,0.4,0.6,0.4L7.1,40.9z"/>
	<path class="st11" d="M7.4,31.5c-0.5-1.9-0.6-4.6,0.5-6.1L8,25.4c-1.1,1.5-0.9,4.1-0.5,6L7.4,31.5z"/>
	<path class="st11" d="M8.4,37.3L8.4,37.3c-0.2-1.8-0.2-2.6-1.1-5.8l0.1,0c0.8,3.3,0.9,4,1.1,5.8l0,0.1L8.4,37.3z"/>
	<path class="st11" d="M7.3,40.7l0-0.1c1.1-0.5,1.2-1.4,1.2-3.3h0.1C8.6,39,8.5,40.2,7.3,40.7z"/>
	<g>
		<path class="st11" d="M53.7,34.1c-0.5,1.1-0.5,8.4-0.5,8.4c-0.2-0.1-3.7-1.8-3.7-1.8c-2.1-0.6-0.3-8.3-0.3-8.3
			c1.5-5.9-0.6-7.4-0.6-7.4c4.4,2.4,5.1,2.3,5.1,2.3C55.3,29.8,53.8,34.1,53.7,34.1z"/>
		<path d="M53.3,42.5L53.3,42.5c-0.2-0.1-3.7-1.8-3.7-1.8c-0.9-0.2-1.2-1.7-1-4.4c0.2-2,0.6-3.9,0.6-3.9c0.8-3,0.6-4.9,0.3-5.9
			c-0.3-1.1-0.8-1.5-0.8-1.5l0,0c4.2,2.3,5,2.3,5.1,2.3c0,0,0,0,0,0l0,0l0,0c1.2,1.9,0.5,4.9,0.2,6.1c-0.1,0.3-0.2,0.7-0.2,0.7l0,0
			C53.2,35.2,53.3,42.4,53.3,42.5L53.3,42.5z M48.8,25.1c0.2,0.2,0.5,0.6,0.7,1.4c0.3,1,0.5,2.9-0.3,5.9c0,0.1-1.8,7.7,0.3,8.2
			c0,0,3.3,1.6,3.7,1.8c0-0.6,0-7.3,0.5-8.3l0,0c0-0.1,0.4-1.1,0.6-2.5c0.2-1.2,0.2-3-0.6-4.3C53.7,27.3,52.8,27.2,48.8,25.1z"/>
	</g>
	<path class="st12" d="M53.1,27.2c1,1.5,0.7,3.7,0.7,3.7c-0.3,2.2-0.7,3.4-0.7,3.4c-0.5,2.3-0.3,2.6-0.3,2.6l0.4,0.2
		c0-0.9,0.2-2.7,0.2-2.7c0.8-2.1,0.8-3.6,0.8-3.6c0.2-2.6-0.7-3.6-0.7-3.6L53.1,27.2z"/>
	<path class="st12" d="M49.6,25.5c1.6,1.9,0.5,6.2,0.5,6.2c-2.7,9.4,0.8,9,0.8,9l-1,0c-1.4-0.2-1.3-2.7-1.3-2.7
		c0.1-3.2,0.9-6.3,0.9-6.3c1.1-5.2-0.6-6.6-0.6-6.6L49.6,25.5z"/>
	<path class="st13" d="M56.9,39.4c-0.1-0.1-2.9-1.9-4.2-2.7c-0.1-0.1-0.4-0.1-0.5-0.1c-1.8,0.1-1.3,2.2-1.3,2.2
		c0.4,2.5-1.2,1.9-1.2,1.9l6.7,3.4C57.8,40.8,56.9,39.4,56.9,39.4z"/>
	<path class="st12" d="M53.1,36.9c-0.7-0.7-1.6-0.2-1.6-0.2c-1,0.5-0.7,2-0.7,2c0.4,2.3-1.1,2-1.1,2l0.6,0.3
		c1.3-0.5,0.9-2.2,0.9-2.2c-0.2-0.8,0.1-1.5,0.1-1.5c0.5-0.8,1.6-0.3,1.6-0.3L53.1,36.9z"/>
	<g>
		<path class="st11" d="M56.6,39.1c1.6,1.5-0.1,4.7-0.1,4.7c-2.4,4.2-2.3,4.9-2.3,4.9c0.8,9.9,0.1,13.1,0.1,13.1
			c-1.6,7.5-10.8,7.6-10.8,7.6h-4.9L38,64.9c-0.6-1,0.9-1.4,0.9-1.4h6.2c1.2,0,3.1-1.3,3.8-2.3c0.7-1,1.2-5.4,0.6-9.8
			c-0.6-4.5,1-8.6,2.2-9.7c1.2-1.1,1.4-3,1-5.1L56.6,39.1z"/>
		<path d="M38.6,69.4L38.6,69.4L38.6,69.4L38,64.9c-0.1-0.3-0.2-0.5-0.1-0.7c0.2-0.5,1-0.7,1-0.7l6.2,0c1.2,0,3.1-1.3,3.7-2.2
			c0.7-0.9,1.2-5.2,0.6-9.8c-0.3-2.5,0.1-4.7,0.4-6.1c0.4-1.6,1.1-3,1.7-3.6c1.1-1,1.4-2.8,1-5.1l0,0l3.9,2.4
			c1.6,1.4-0.1,4.7-0.1,4.8c-2.4,4.1-2.3,4.9-2.3,4.9c0.8,9.8,0.1,13.1,0.1,13.1c-0.4,1.7-1.2,3.2-2.4,4.4c-1,0.9-2.2,1.7-3.6,2.3
			c-2.5,1-4.8,1-4.8,1L38.6,69.4z M38.6,69.4h4.9c0,0,2.3,0,4.8-1c2.3-0.9,5.2-2.7,6-6.6c0,0,0.7-3.3-0.1-13.1c0,0-0.1-0.7,2.3-4.9
			c0,0,1.7-3.3,0.1-4.7l-3.8-2.4c0.4,2.2,0,4.1-1,5c-0.6,0.6-1.3,1.9-1.7,3.5c-0.4,1.4-0.8,3.6-0.4,6.1c0.6,4.6,0,8.9-0.6,9.9
			c-0.7,1-2.6,2.3-3.8,2.3h-6.2c0,0-0.8,0.2-1,0.7c-0.1,0.2-0.1,0.4,0.1,0.7l0,0L38.6,69.4z"/>
	</g>
	<path class="st13" d="M38.7,72c1.6,1,5.1-0.4,5.1-0.4c0.1-0.4-0.8-6-0.8-6c-0.8-1.2-2.2-0.4-2.2-0.4c-2.7,1.1-2.9-0.5-2.9-0.5
		C37.6,65.4,38.7,71.9,38.7,72z"/>
	<g>
		<path class="st11" d="M28.6,75c6,0,8.8-0.6,8.8-0.6c4.1-0.4,6.3-2.8,6.3-2.8c0.1-3.3-0.8-6-0.8-6s0.9,1.9-6.2,3.2
			c0,0-4.4,0.4-8.2,0.4l0,0c-3.8,0-8.2-0.4-8.2-0.4c-7.1-1.2-6.2-3.2-6.2-3.2s-0.8,2.7-0.8,6c0,0,2.2,2.3,6.3,2.8
			C19.8,74.3,22.6,75,28.6,75L28.6,75z"/>
		<path d="M28.6,75c-5.5,0-8.3-0.5-8.8-0.6c0,0,0,0,0,0c-4.1-0.4-6.3-2.8-6.3-2.8l0,0l0,0c-0.1-3,0.6-5.5,0.7-6c0,0,0-0.1,0-0.1l0,0
			c0,0,0,0,0,0.1c0,0.1,0,0.3,0.1,0.6c0.4,0.7,1.7,1.7,6.1,2.5c0,0,4.4,0.4,8.2,0.4c3.8,0,8.2-0.4,8.2-0.4c4.3-0.7,5.7-1.8,6.1-2.5
			c0.1-0.3,0.1-0.5,0.1-0.6c0,0,0-0.1,0-0.1l0,0c0,0,0,0,0,0.1c0.1,0.5,0.8,3,0.7,6l0,0l0,0c0,0-2.3,2.4-6.3,2.8
			C37.5,74.4,34.6,75,28.6,75z M19.8,74.3C19.8,74.3,19.8,74.3,19.8,74.3c0.5,0.1,3.4,0.6,8.8,0.6c5.9,0,8.8-0.6,8.8-0.6
			c4-0.4,6.2-2.6,6.3-2.8c0.1-2.7-0.5-5-0.7-5.7c0,0.1,0,0.2-0.1,0.4c-0.4,0.7-1.8,1.7-6.1,2.5c0,0-4.4,0.4-8.2,0.4
			c-3.8,0-8.2-0.4-8.2-0.4c-4.4-0.8-5.7-1.8-6.1-2.5c-0.1-0.2-0.1-0.3-0.1-0.4c-0.2,0.8-0.7,3-0.7,5.7
			C13.6,71.7,15.9,73.9,19.8,74.3C19.8,74.3,19.8,74.3,19.8,74.3z"/>
	</g>
	<path class="st12" d="M43,65.5c-0.8-1.2-2.2-0.4-2.2-0.4c-2.6,1.1-2.9-0.5-2.9-0.5c-0.4,2.1,3,1,3,1c1.4-0.7,2.2,0.1,2.2,0.1
		L43,65.5z"/>
	<path class="st12" d="M28.6,69.1c-4,0-8.2-0.4-8.2-0.4s-6-0.9-6.2-2.9L14,66.7c0,0-0.7,1.6,6.4,2.8c0,0,3.8,0.4,8.3,0.4
		c4.5,0,8.3-0.4,8.3-0.4c7.1-1.2,6.4-2.8,6.4-2.8l-0.2-0.9c-0.2,2-6.2,2.9-6.2,2.9S32.6,69.1,28.6,69.1z"/>
	<path class="st12" d="M28.6,74.3c-2.2,0.1-5.2-0.2-5.2-0.2c-1.1-0.1-3.7-0.6-3.7-0.6s-4.2-0.6-6.2-3.3l0,1.2c0,0,2.3,2.4,6.3,2.8
		c0,0,0.5,0.1,1.4,0.2c0,0,3.1,0.4,7.4,0.4s7.4-0.4,7.4-0.4c0.9-0.1,1.4-0.2,1.4-0.2c4.1-0.4,6.3-2.8,6.3-2.8l0-1.2
		c-2,2.7-6.2,3.3-6.2,3.3s-2.5,0.5-3.7,0.6C33.9,74.1,30.8,74.4,28.6,74.3L28.6,74.3z"/>
	<path class="st12" d="M56.1,38.7c1.2,2.1-0.2,4.3-0.2,4.3c-3,4.9-2.5,6.4-2.5,6.4c0.5,5.2,0.3,9.3,0.3,9.3
		c0.3,9.7-10.1,9.8-10.1,9.8l0.1,0.9c8.5-0.7,10.2-6.4,10.2-6.4c0.6-1.4,0.6-4.2,0.6-4.2c0.2-4.1-0.4-10.1-0.4-10.1
		c0.3-1.3,1-2.6,1.7-3.9c0.5-0.9,0.7-1.2,0.7-1.2c1.5-3.4,0-4.4,0-4.4L56.1,38.7z"/>
	<path class="st12" d="M53.5,37.2c0.9,3-1.3,5.3-1.3,5.3c-2.8,4.1-1.8,9.9-1.8,9.9c0.5,8-0.7,9.2-0.7,9.2c-1.9,2.6-4.4,2.8-4.4,2.8
		L39,64.2c-1.5,0.3-0.2,1.2-0.2,1.2l-0.2-0.1c-0.4-0.2-0.5-0.5-0.5-0.5c-0.5-0.9,0.9-1.3,0.9-1.3h6.3l0.3,0c2.3-0.6,3.4-2.3,3.4-2.3
		c0.6-1.2,0.6-2.5,0.6-2.5c0.4-3,0-6.3,0-6.3c-0.3-2-0.2-3.1-0.2-3.1c0.2-5.2,2.2-7.4,2.2-7.4c1.9-1.7,1.1-5.1,1.1-5.1L53.5,37.2z"
		/>
	<path class="st11" d="M54,32.3l-0.1,0c0.2-0.9,0.4-3.3-0.5-5l0.1-0.1C54.5,28.9,54.3,31.4,54,32.3z"/>
	<path class="st11" d="M53.5,34.4l-0.1,0c0.2-0.6,0.4-1.4,0.4-1.8c0-0.1,0-0.2,0.1-0.3l0.1,0c0,0,0,0.1-0.1,0.3
		C53.9,33,53.7,33.8,53.5,34.4z"/>
	<path class="st11" d="M53.1,36.9c0-1,0.1-1.8,0.3-2.6l0.1,0c-0.2,0.7-0.3,1.6-0.3,2.5L53.1,36.9z"/>
	<path class="st11" d="M56.5,42.9l-0.1,0l0.1-0.1c0.4-0.8,0.9-2-0.1-3.6l0.1-0.1c1,1.6,0.5,2.9,0.1,3.7L56.5,42.9z"/>
	<path class="st11" d="M54,48.6l-0.1,0c0.2-1.6,0.9-2.9,1.7-4.2c0.3-0.5,0.6-1,0.9-1.6l0.1,0.1c-0.3,0.6-0.6,1.1-0.9,1.6
		C54.9,45.8,54.2,47,54,48.6z"/>
	<path class="st11" d="M53.8,49.3c0,0,0-0.1,0-0.1c0-0.1,0-0.3,0-0.6l0.1,0c0,0.3,0,0.4,0,0.6c0,0,0,0.1,0,0.1L53.8,49.3z"/>
	<path class="st11" d="M54.1,60.6l-0.1,0c0.3-2,0.2-7.3-0.2-11.3l0.1,0C54.3,53.3,54.4,58.6,54.1,60.6z"/>
	<path class="st11" d="M51.1,66.3L51.1,66.3c1.9-1.9,2.5-3,2.9-5.7l0.1,0C53.7,63.4,53.1,64.4,51.1,66.3z"/>
	<path class="st11" d="M43.7,69l0-0.1c3.5-0.1,5.6-1.4,7.3-2.7l0.1,0.1C49.4,67.6,47.3,68.9,43.7,69z"/>
	<path class="st11" d="M38.5,73.9l0-0.1c2.7-0.6,4.3-1.9,5.2-2.8l0.1,0.1C42.8,72,41.3,73.2,38.5,73.9z"/>
	<path class="st11" d="M27.3,74.7c-3.9,0-7-0.5-8.6-0.8l-0.6-0.1l0.1,0c-2.5-0.7-3.9-1.9-4.8-2.7l0.1-0.1c0.9,0.9,2.5,2.2,5.2,2.8
		l0.2,0c1.8,0.4,5.3,0.9,9.6,0.8c4.8,0.1,8.5-0.5,9.9-0.8l0,0.1c-1.4,0.3-5.1,1-9.9,0.8C28.2,74.7,27.8,74.7,27.3,74.7z"/>
	<path class="st11" d="M36.9,69.1l0-0.1c3.8-0.5,5.9-1.4,6.3-2.7l0.1,0C42.9,67.7,40.8,68.6,36.9,69.1z"/>
	<path class="st11" d="M42.9,65.6c-0.7-0.8-1.7-0.4-2-0.3l-0.1-0.1C41.7,64.9,42.5,65,42.9,65.6L42.9,65.6z"/>
	<path class="st11" d="M39.1,65.8c-0.6,0-1-0.2-1.2-0.8l0.1,0c0.4,1.1,1.5,0.8,2.9,0.4l0,0.1C40.2,65.6,39.6,65.8,39.1,65.8z"/>
	<path class="st11" d="M28.6,69.6c-4.5,0-7.6-0.3-8.3-0.4l0,0c-3.9-0.5-6-1.4-6.3-2.8l0.1,0c0.4,1.3,2.5,2.2,6.3,2.7l0,0
		c0.7,0.1,3.8,0.4,8.2,0.4c4.6,0,7.7-0.3,8.2-0.4l0,0.1C36.3,69.2,33.2,69.6,28.6,69.6z"/>
	<path class="st11" d="M38.4,65.3c-0.4-0.4-0.5-0.7-0.4-0.9c0.1-0.3,0.4-0.5,0.9-0.6l0,0.1c-0.5,0.1-0.7,0.3-0.8,0.5
		C38.1,64.6,38.2,64.9,38.4,65.3L38.4,65.3z"/>
	<rect x="38.9" y="63.7" class="st11" width="6.4" height="0.1"/>
	<path class="st11" d="M45.3,63.8l0-0.1c1.6-0.1,3.4-1.3,4-2.5l0.1,0.1C48.8,62.5,46.9,63.8,45.3,63.8z"/>
	<path class="st11" d="M49.4,61.3l-0.1-0.1c0.4-0.8,1.1-3,0.7-8.7l0.1,0C50.5,58.3,49.9,60.5,49.4,61.3z"/>
	<path class="st11" d="M50,52.6c-0.6-3.5-0.2-6.7,1.1-9.2l0.1,0.1c-1.3,2.5-1.7,5.6-1.1,9.1L50,52.6z"/>
	<path class="st11" d="M51.2,43.5l-0.1-0.1c0-0.1,0.1-0.2,0.1-0.3c0.2-0.4,0.5-0.9,1-1.5l0.1,0.1c-0.5,0.6-0.8,1.1-1,1.4
		C51.3,43.3,51.2,43.4,51.2,43.5z"/>
	<path class="st11" d="M52.3,41.8L52.3,41.8c0.5-0.8,1.3-2.6,0.8-4.8l0.1,0C53.7,39.2,52.9,41.1,52.3,41.8z"/>
	<path class="st11" d="M51.1,37.7l-0.1,0c0.1-0.5,0.3-0.8,0.6-0.9c0.3-0.2,0.8-0.2,1.1-0.1l0,0.1c-0.3-0.1-0.7-0.1-1,0.1
		C51.4,37,51.2,37.3,51.1,37.7z"/>
	<path class="st11" d="M51,38.6c-0.1-0.3,0-0.6,0-0.9l0.1,0c0,0.3-0.1,0.6,0,0.9L51,38.6z"/>
	<path class="st11" d="M50.2,40.9l0-0.1c0.2,0,0.5-0.2,0.6-0.4c0.3-0.4,0.4-1.1,0.2-1.8l0.1,0c0.2,0.8,0.1,1.4-0.2,1.9
		C50.7,40.7,50.5,40.9,50.2,40.9z"/>
	<path class="st11" d="M49.9,31.5l-0.1,0c0.5-1.9,0.6-4.5-0.5-6l0.1-0.1C50.5,26.9,50.3,29.5,49.9,31.5z"/>
	<path class="st11" d="M48.8,37.3l-0.1,0l0-0.1c0.1-1.8,0.2-2.5,1.1-5.8l0.1,0C49,34.7,49,35.4,48.8,37.3L48.8,37.3z"/>
	<path class="st11" d="M50,40.7c-1.2-0.5-1.2-1.6-1.2-3.4h0.1c0,1.9,0.1,2.8,1.2,3.3L50,40.7z"/>
</g>
<path class="st14" d="M3.8,27.3"/>
<path class="st14" d="M4.2,36.9"/>
<path d="M24.5,29.3c0,0-1.9-0.2-2.6-1.6c0,0,1.3,1,2.3,0.8c0,0-2-2.6-3.5-3.7c0,0,1.8,1.3,2.1,1.5l-0.5-2.7c0,0-0.8-1.1-0.4-2.4
	c0,0,0.1,1.8,0.5,1.8c0,0,0.3-0.2,0.6-1.6c0,0,0,1.7-0.4,2.2c0,0,0.3,0.3,1.3-0.8c0,0-0.6,1-1.1,1.4l0,0.5c0,0,0.5,2.6,2.1,3.9
	c0,0,0.7,0.5,2,0c0,0-0.3-0.4-0.4-1.4c0,0,0.6,1,1.1,1.2c0,0,0.1,0.1,0.1,0.1c0.5,0.2,1.2,0.3,1.9-0.9c0,0-0.8-1.2-0.8-2.6
	c0,0,0.7,2.1,1.3,2.3c0,0,0.3,0.3,2.2-2.2c0,0,0.1-1.6-0.7-2.5c0,0,0.7,0.8,1.1,1.5c0,0,0.7-0.2,0.4-2.6c0,0,0.2,1.3,0.4,2
	c0,0,0.5-0.8,0.8-1.9c0,0-0.3,4.2-6.5,8.1C27.9,29.7,25,29.4,24.5,29.3z"/>
<g>
	<path class="st11" d="M21.3,31.9c0,0-0.3-0.7,0-0.7c0.4-0.1,2-0.5,2.4-1.1c0,0,1.1-1.1,1.9-1c0,0,1.6,0.2,2.1,0.6
		c0,0,2.1,0,2.5-0.3c0,0,0.4,0.3,0,0.7c0,0-0.5,0.8-2.3,0.9c0,0-0.1,3-0.6,4.3c-0.3,0.9-0.7,3.6,1.4,4c0,0,3,0.5,4.2,0
		c1.2-0.5,6.7-1.3,8.1,2.3c0,0,0.5,1.1-0.8,0.5c0,0-0.8,2.3-0.2,4c0,0-0.2,2.1,3.1,3.2c0,0-0.1,4.3,1.4,5.8v0.5c0,0-1.1,1.6-0.9,2.1
		h-1.2c0,0,1.1-1.8,1.3-2.2c0,0-0.8-2.9-1-4c0,0-0.7-1.4-1.5-1.6c0,0-2.9-0.4-4.3-1.8c0,0-0.1,2-1.4,3.6c0,0-0.4,0.2-0.5,0.7l-0.1,4
		c0,0-1.1,0.8-1.1,1.3h-1.5c0,0,1.5-1.9,1.6-1.9c0,0,0.9-3.6,0.8-4.4c0,0,0.2-1-0.3-1.6c0,0-2.5-2.2-2.5-3.6c0,0-2.2,1-4.5,0.5
		c0,0,0.2,1-0.4,1.7c0,0-0.2,1.9-0.1,2.3c0,0,0.8,1,0,1.8L26.7,56l0.4,0.2c0,0-0.8,1.2-0.8,1.7H25c0,0,0.7-1.2,1-1.4L26,52.7
		c0,0-0.7-0.4-0.2-1.7c0,0,0-1.3-0.4-1.7c0,0-1.9-1.9-1.9-3.1c0,0-3.1,0.2-4.6-1c0,0,0-0.1-1.6,0c0,0-0.7,1.1-1.6,1.7
		c0,0-1,2.2-0.8,3.1l-0.6,0.8L13.2,51c0,0,0.9-1.7,1.2-2.4c0,0,1.3-3.5,1.7-4.2c0,0,0.2-0.9,1.4-1c0,0,2.9-0.3,3.3-0.8
		c0,0,0.3-0.3,0.3-0.8c0,0-1-1.3,0.4-4.1c0,0,1.7-1.9,2.6-4.1c0,0-0.5-1.1-1.1-1.2c0,0-0.7,0.1-1.6-0.4L21.3,31.9z"/>
	<path class="st15" d="M26.3,57.9h-1.4l0.1-0.1c0,0,0.6-1.1,1-1.4l-0.1-3.7c-0.1-0.1-0.7-0.5-0.2-1.7c0-0.1,0-1.3-0.3-1.6
		c-0.1-0.1-1.9-1.9-1.9-3.1c-0.5,0-3.1,0.1-4.5-1.1l0,0c0,0-0.3-0.1-1.5,0c-0.1,0.2-0.8,1.1-1.5,1.7c-0.1,0.2-0.9,2.2-0.8,3.1l0,0
		l-0.7,0.8L13,51.1l0.1-0.1c0,0,0.9-1.7,1.2-2.4c0.1-0.1,1.3-3.5,1.7-4.2c0-0.1,0.3-0.9,1.4-1c0,0,2.8-0.3,3.3-0.8
		c0,0,0.3-0.3,0.3-0.7c-0.1-0.2-0.9-1.5,0.4-4.1c0,0,1.7-1.9,2.6-4.1c-0.1-0.2-0.5-1-1-1.1c-0.1,0-0.8,0-1.6-0.4l0,0L21.2,32
		c0-0.1-0.2-0.5-0.1-0.7c0-0.1,0.1-0.1,0.1-0.1c0.4-0.1,1.9-0.5,2.4-1.1c0-0.1,1.1-1.1,1.9-1.1c0.1,0,1.6,0.2,2.1,0.6
		c0.2,0,2.1-0.1,2.5-0.3l0,0l0,0c0,0,0.2,0.1,0.2,0.4c0,0.2,0,0.3-0.2,0.5c0,0-0.5,0.8-2.3,0.9c0,0.4-0.1,3-0.6,4.2
		c-0.2,0.7-0.4,2.1,0.1,3c0.3,0.5,0.7,0.8,1.3,0.9c0,0,3,0.5,4.2,0c0.8-0.3,3.8-0.9,6,0.1c1,0.5,1.8,1.2,2.1,2.2c0,0,0.2,0.5,0,0.7
		c-0.1,0.1-0.4,0.1-0.8-0.1c-0.1,0.4-0.7,2.4-0.2,3.9l0,0l0,0c0,0-0.1,2.1,3,3.2l0,0l0,0c0,0-0.1,4.3,1.3,5.7l0,0v0.6l0,0
		c-0.3,0.4-1.1,1.6-0.9,2l0,0.1h-1.4l0.1-0.1c0,0,1-1.8,1.3-2.2c-0.1-0.3-0.8-2.9-1-3.9c-0.1-0.1-0.7-1.3-1.4-1.5
		c0,0-2.8-0.4-4.2-1.7c0,0.5-0.3,2.2-1.4,3.5l0,0c0,0-0.3,0.2-0.5,0.7l-0.1,4l0,0c-0.3,0.2-1.1,0.9-1.1,1.2v0.1H32l0.1-0.1
		c0.3-0.4,1.4-1.7,1.6-1.9c0.1-0.3,0.9-3.6,0.8-4.3c0,0,0.2-1-0.3-1.6c-0.1-0.1-2.4-2.1-2.6-3.6c-0.4,0.2-2.4,0.9-4.3,0.5
		c0,0.3,0.1,1-0.4,1.6c-0.1,0.5-0.2,1.9-0.1,2.2c0.1,0.1,0.7,1.1,0,1.9L26.8,56l0.4,0.2l0,0.1C27.1,56.2,26.3,57.4,26.3,57.9
		L26.3,57.9z M25.2,57.8h1c0.1-0.5,0.6-1.4,0.8-1.6l-0.3-0.1l0.1-3.5l0,0c0.7-0.8,0-1.7,0-1.7l0,0c-0.1-0.4,0.1-2.2,0.1-2.3l0,0l0,0
		c0.6-0.7,0.3-1.6,0.3-1.6l0-0.1l0.1,0c2.2,0.5,4.4-0.5,4.4-0.5l0.1,0l0,0.1c0,1.4,2.5,3.6,2.5,3.6c0.5,0.7,0.3,1.6,0.3,1.6
		c0,0.8-0.8,4.2-0.8,4.4l0,0l0,0c-0.1,0.1-1,1.1-1.5,1.8h1.3c0.1-0.5,1-1.1,1.1-1.3l0.1-4c0.2-0.5,0.5-0.7,0.5-0.7
		c1.3-1.5,1.4-3.5,1.4-3.5l0-0.1l0.1,0.1c1.4,1.4,4.2,1.8,4.3,1.8c0.8,0.2,1.5,1.6,1.5,1.6l0,0c0.1,1.1,0.9,3.9,1,3.9l0,0l0,0
		c-0.2,0.3-1,1.7-1.3,2.1h1c-0.1-0.5,0.8-1.8,0.9-2v-0.5c-1.4-1.5-1.4-5.3-1.4-5.8c-3.1-1-3.1-3.1-3.1-3.3c-0.6-1.7,0.2-4,0.2-4
		l0-0.1l0.1,0c0.5,0.2,0.7,0.2,0.8,0.1c0.1-0.1,0-0.4,0-0.6c-0.4-1-1.1-1.7-2.1-2.1c-2.2-1-5.2-0.4-5.9-0.1c-1.2,0.5-4.1,0-4.2,0
		c-0.6-0.1-1.1-0.5-1.4-1c-0.5-1-0.3-2.4-0.1-3.1c0.5-1.3,0.6-4.2,0.6-4.3l0-0.1l0.1,0c1.8-0.1,2.3-0.9,2.3-0.9
		c0.1-0.1,0.2-0.3,0.2-0.4c0-0.1-0.1-0.2-0.1-0.2c-0.5,0.3-2.5,0.3-2.5,0.3l0,0l0,0c-0.5-0.4-2-0.6-2-0.6c-0.7-0.1-1.8,1-1.8,1
		c-0.5,0.6-2.1,1-2.5,1.1c0,0,0,0,0,0c-0.1,0.1,0,0.4,0.1,0.6l0.2,0.2c0.9,0.4,1.6,0.4,1.6,0.4l0,0l0,0c0.7,0.1,1.1,1.2,1.1,1.2l0,0
		l0,0c-0.8,2.2-2.6,4.1-2.6,4.1c-1.4,2.7-0.4,4-0.4,4l0,0l0,0c0,0.5-0.3,0.8-0.4,0.8c-0.5,0.5-3.3,0.8-3.4,0.8
		c-1.1,0.1-1.3,0.9-1.3,0.9l0,0c-0.4,0.6-1.7,4.1-1.7,4.1c-0.3,0.6-0.9,1.9-1.1,2.3l1-0.2l0.6-0.8c-0.1-1,0.8-3,0.8-3.1l0,0l0,0
		c0.8-0.6,1.5-1.7,1.5-1.7l0,0l0,0c1.6-0.1,1.6,0,1.7,0l0,0c1.5,1.2,4.5,1,4.5,1l0.1,0v0.1c0,1.2,1.9,3,1.9,3.1
		c0.4,0.4,0.4,1.7,0.4,1.7l0,0c-0.5,1.2,0.1,1.6,0.2,1.6l0,0l0,0l0.1,3.8l0,0C25.8,56.7,25.3,57.5,25.2,57.8z"/>
</g>
<polygon points="14.3,50.7 13.1,50.9 13,52.3 14.6,51.3 14.5,50.5 "/>
<path d="M25,57.8h1.2c0,0,0.2,0.6,0.2,0.8h-1.7C24.7,58.6,24.8,58,25,57.8z"/>
<path d="M32.1,57.8c0,0-0.5,0.4-0.5,0.8h1.8c0,0,0-0.5,0.1-0.8H32.1z"/>
<path d="M43.4,57.8h-1.2c0,0-0.5,0.4-0.6,0.8h1.8C43.4,58.6,43.4,58.1,43.4,57.8z"/>
<path d="M25.1,30.1c0,0-0.3,0.3-0.9,0.5c0,0-0.1,0.1,0,0.2c0,0,0.5,0.1,1.1,0C25.4,30.9,25.7,30.2,25.1,30.1"/>
<path class="st15" d="M31.7,46.4L31.7,46.4c0.7-0.8,2.7-1.3,3.8-1.1l0,0.1C34.5,45.2,32.5,45.7,31.7,46.4z"/>
<path class="st15" d="M36.7,48.3c-1-1.1-1.5-2.4-1.2-3.3l0.1,0C35.4,45.9,35.8,47.1,36.7,48.3L36.7,48.3z"/>
<path class="st15" d="M23.5,46.2h-0.1c0-0.4,0-0.7,0.1-1l0.1,0C23.6,45.5,23.5,45.8,23.5,46.2z"/>
<path class="st15" d="M27.2,46.9l0-0.2c-0.1-0.4-0.1-0.6-0.3-1.1l0.1,0c0.2,0.5,0.2,0.7,0.3,1.1l0,0.2L27.2,46.9z"/>
<path class="st15" d="M23.5,46.2c-1.2-0.3-2-1.2-2.2-2.5l0.1,0c0.2,1.2,0.9,2.1,2.1,2.4L23.5,46.2z"/>
<path class="st15" d="M24.2,32.7c-0.3,0-0.7-0.1-1.1-0.2l0-0.1c1.1,0.3,1.8,0.2,2.3-0.2l0.1,0.1C25.1,32.6,24.7,32.7,24.2,32.7z"/>
<path class="st13" d="M21.3,43.8c0,0-0.9,1.2-1,2c0,0,1,0.4,2.8,0.4C23.1,46.1,21.6,45.6,21.3,43.8z"/>
<path class="st13" d="M32,47c0,0,3.1-0.8,3.9,0c0,0-0.5-0.9-0.4-1.7c0,0-1.9-0.2-3.7,1C31.8,46.4,31.8,46.7,32,47z"/>
<path class="st13" d="M23.5,32.7c0,0,1.2,0.2,1.9-0.3c0,0-0.4,0.8-1.2,1.4C24.2,33.7,23.9,33.1,23.5,32.7z"/>
</svg>
